<svg width="24" height="24" viewBox="0 0 24 24" fill="none" xmlns="http://www.w3.org/2000/svg">
<path d="M20.3304 17.7374H19.4652C19.263 6.23277 15.1082 3.78269 11.6087 3.78269C8.1092 3.78269 3.95431 6.23277 3.75213 17.7374H2.88695C2.39709 17.7374 2 18.1345 2 18.6243C2 19.1142 2.39709 19.5113 2.88695 19.5113H7.32345C7.73455 21.5002 9.49972 23 11.6087 23C13.7176 23 15.4828 21.5002 15.8939 19.5113H20.3304C20.8203 19.5113 21.2174 19.1142 21.2174 18.6243C21.2174 18.1345 20.8203 17.7374 20.3304 17.7374ZM11.6087 5.5566C16.6471 5.5566 17.5991 12.7049 17.6908 17.7374H5.52657C5.61828 12.705 6.57025 5.5566 11.6087 5.5566ZM11.6087 21.2261C10.4854 21.2261 9.52629 20.5105 9.16281 19.5113H14.0546C13.6911 20.5105 12.7319 21.2261 11.6087 21.2261ZM14.2885 1.52358C14.4893 1.07677 15.0142 0.877342 15.4611 1.07819C17.9202 2.18351 19.7964 4.46298 21.0374 7.85332C21.2058 8.31334 20.9694 8.82272 20.5094 8.9911C20.0484 9.1598 19.5397 8.92223 19.3716 8.4631C18.301 5.53846 16.7407 3.59816 14.7339 2.69617C14.2871 2.49537 14.0877 1.97042 14.2885 1.52358ZM2.17996 7.85336C3.42099 4.46303 5.29716 2.18351 7.75624 1.07824C8.20304 0.877431 8.72807 1.07686 8.92884 1.52362C9.12964 1.97042 8.93025 2.49541 8.48345 2.69622C6.47668 3.59821 4.9163 5.5385 3.84575 8.46314C3.67736 8.92312 3.1679 9.15958 2.70797 8.99115C2.24799 8.82276 2.01157 8.31338 2.17996 7.85336Z" fill="#070F21"/>
</svg>
