<svg width="24" height="24" viewBox="0 0 24 24" fill="none" xmlns="http://www.w3.org/2000/svg">
<path d="M16.0567 1.39979H16.0567H6.51099C5.40636 1.39979 4.50186 2.30429 4.50186 3.40892V11.4227H3.40865C2.30401 11.4227 1.39951 12.3272 1.39951 13.4319V20.5911C1.39951 21.6958 2.30401 22.6003 3.40865 22.6003H20.5909C21.6955 22.6003 22.6 21.6958 22.6 20.5911V13.4319C22.6 12.3272 21.6955 11.4227 20.5909 11.4227H19.9749V5.31806C19.9749 5.16495 19.9141 5.01813 19.8058 4.90989L16.4648 1.56891C16.4648 1.56891 16.4648 1.56891 16.4648 1.5689C16.3566 1.46065 16.2098 1.39982 16.0567 1.39979ZM17.6435 12.5715L17.6435 12.5716L17.0329 14.4042C17.0329 14.4042 17.0329 14.4042 17.0329 14.4042C16.9607 14.6207 16.7622 14.7637 16.534 14.7637H7.78344C7.5684 14.7637 7.38404 14.6246 7.32494 14.4177L6.80757 12.6065L6.71141 12.6339L6.80757 12.6065C6.6474 12.0459 6.20068 11.6264 5.65642 11.4813V3.40892C5.65642 2.92706 6.02913 2.55435 6.51099 2.55435H15.0021V4.84077C15.0021 5.68099 15.6937 6.37262 16.534 6.37262H18.8204V11.4797C18.2781 11.6195 17.8265 12.0227 17.6435 12.5715ZM18.1287 14.7695L18.1287 14.7695L18.7393 12.9368C18.7393 12.9368 18.7393 12.9368 18.7393 12.9368C18.8115 12.7203 19.01 12.5773 19.2383 12.5773H20.5909C21.0727 12.5773 21.4454 12.95 21.4454 13.4319V20.5911C21.4454 21.073 21.0727 21.4457 20.5909 21.4457H3.40865C2.92679 21.4457 2.55408 21.073 2.55408 20.5911V13.4319C2.55408 12.95 2.92679 12.5773 3.40865 12.5773H5.23854C5.45358 12.5773 5.63795 12.7165 5.69705 12.9233L6.21442 14.7346L6.31057 14.7071L6.21442 14.7346C6.41393 15.4329 7.05717 15.9183 7.78344 15.9183H16.534C17.2554 15.9183 17.9005 15.454 18.1287 14.7695ZM16.1567 4.84077V2.8934L18.4813 5.21806H16.534C16.3165 5.21806 16.1567 5.05822 16.1567 4.84077Z" fill="#070F21" stroke="#070F21" stroke-width="0.2"/>
<path d="M8.42012 6.64994C8.26702 6.64994 8.12018 6.71076 8.01192 6.81902C7.90366 6.92728 7.84284 7.07412 7.84284 7.22722C7.84284 7.38033 7.90366 7.52716 8.01192 7.63542C8.12018 7.74369 8.26702 7.80451 8.42012 7.80451H14.1475C14.3006 7.80451 14.4475 7.74369 14.5557 7.63542C14.664 7.52716 14.7248 7.38033 14.7248 7.22722C14.7248 7.07412 14.664 6.92728 14.5557 6.81902C14.4475 6.71076 14.3006 6.64994 14.1475 6.64994H8.42012Z" fill="#070F21" stroke="#070F21" stroke-width="0.2"/>
<path d="M8.42012 9.03629C8.26702 9.03629 8.12019 9.09711 8.01192 9.20537C7.90366 9.31364 7.84284 9.46047 7.84284 9.61358C7.84284 9.76668 7.90366 9.91352 8.01192 10.0218C8.12019 10.13 8.26702 10.1909 8.42012 10.1909H16.0567C16.2098 10.1909 16.3566 10.13 16.4649 10.0218C16.5731 9.91351 16.6339 9.76668 16.6339 9.61358C16.6339 9.46047 16.5731 9.31364 16.4649 9.20537C16.3566 9.09711 16.2098 9.03629 16.0567 9.03629H8.42012Z" fill="#070F21" stroke="#070F21" stroke-width="0.2"/>
<path d="M8.42012 11.4227C8.26702 11.4227 8.12019 11.4836 8.01192 11.5918C7.90366 11.7001 7.84284 11.8469 7.84284 12C7.84284 12.1531 7.90366 12.3 8.01192 12.4082C8.12019 12.5165 8.26702 12.5773 8.42012 12.5773H14.1475C14.3006 12.5773 14.4475 12.5165 14.5557 12.4082C14.664 12.3 14.7248 12.1531 14.7248 12C14.7248 11.8469 14.664 11.7001 14.5557 11.5918C14.4475 11.4836 14.3006 11.4227 14.1475 11.4227H8.42012Z" fill="#070F21" stroke="#070F21" stroke-width="0.2"/>
</svg>
