<svg width="22" height="22" viewBox="0 0 22 22" fill="none" xmlns="http://www.w3.org/2000/svg">
<path d="M15.2231 3.43749L11.6893 3.43749C11.3247 3.43749 10.9749 3.58236 10.7171 3.84022C10.4592 4.09809 10.3143 4.44782 10.3143 4.81249L10.3143 10.3125L6.7806 10.3125C6.61326 9.66442 6.21531 9.09961 5.66134 8.72395C5.10737 8.3483 4.4354 8.18757 3.77141 8.27191C3.10741 8.35625 2.49697 8.67986 2.0545 9.18208C1.61203 9.68431 1.36792 10.3307 1.36792 11C1.36792 11.6693 1.61203 12.3157 2.0545 12.8179C2.49697 13.3201 3.10741 13.6437 3.77141 13.7281C4.43541 13.8124 5.10737 13.6517 5.66134 13.276C6.21531 12.9004 6.61326 12.3356 6.7806 11.6875L10.3143 11.6875L10.3143 17.1875C10.3143 17.5522 10.4592 17.9019 10.7171 18.1598C10.9749 18.4176 11.3247 18.5625 11.6893 18.5625L15.2231 18.5625C15.3904 19.2106 15.7884 19.7754 16.3424 20.151C16.8963 20.5267 17.5683 20.6874 18.2323 20.6031C18.8963 20.5187 19.5067 20.1951 19.9492 19.6929C20.3917 19.1907 20.6358 18.5443 20.6358 17.875C20.6358 17.2057 20.3917 16.5593 19.9492 16.0571C19.5067 15.5549 18.8963 15.2312 18.2323 15.1469C17.5683 15.0626 16.8963 15.2233 16.3424 15.599C15.7884 15.9746 15.3904 16.5394 15.2231 17.1875L11.6893 17.1875L11.6893 4.81249L15.2231 4.81249C15.3904 5.46057 15.7884 6.02537 16.3424 6.40103C16.8963 6.77669 17.5683 6.93741 18.2323 6.85308C18.8963 6.76874 19.5067 6.44513 19.9492 5.9429C20.3917 5.44068 20.6358 4.79432 20.6358 4.12499C20.6358 3.45566 20.3917 2.8093 19.9492 2.30708C19.5067 1.80486 18.8963 1.48125 18.2323 1.39691C17.5683 1.31257 16.8963 1.47329 16.3424 1.84895C15.7884 2.22461 15.3904 2.78941 15.2231 3.43749ZM17.8768 16.5C18.2415 16.5 18.5913 16.6449 18.8491 16.9027C19.107 17.1606 19.2518 17.5103 19.2518 17.875C19.2518 18.2397 19.107 18.5894 18.8491 18.8473C18.5913 19.1051 18.2415 19.25 17.8768 19.25C17.5122 19.25 17.1624 19.1051 16.9046 18.8473C16.6467 18.5894 16.5018 18.2397 16.5018 17.875C16.5018 17.5103 16.6467 17.1606 16.9046 16.9027C17.1624 16.6449 17.5122 16.5 17.8768 16.5ZM4.12685 12.375C3.76217 12.375 3.41244 12.2301 3.15457 11.9723C2.89671 11.7144 2.75185 11.3647 2.75185 11C2.75185 10.6353 2.89671 10.2856 3.15457 10.0277C3.41244 9.76986 3.76217 9.62499 4.12685 9.62499C4.49152 9.62499 4.84125 9.76986 5.09912 10.0277C5.35698 10.2856 5.50185 10.6353 5.50185 11C5.50185 11.3647 5.35698 11.7144 5.09912 11.9723C4.84126 12.2301 4.49152 12.375 4.12685 12.375ZM19.2518 4.12499C19.2518 4.48967 19.107 4.8394 18.8491 5.09726C18.5913 5.35513 18.2415 5.49999 17.8768 5.49999C17.5122 5.49999 17.1624 5.35513 16.9046 5.09726C16.6467 4.8394 16.5018 4.48967 16.5018 4.12499C16.5018 3.76032 16.6467 3.41058 16.9046 3.15272C17.1624 2.89486 17.5122 2.74999 17.8768 2.74999C18.2415 2.74999 18.5913 2.89486 18.8491 3.15272C19.107 3.41058 19.2518 3.76032 19.2518 4.12499Z" fill="#070F21"/>
</svg>
