<svg width="22" height="22" viewBox="0 0 22 22" fill="none" xmlns="http://www.w3.org/2000/svg">
<path fill-rule="evenodd" clip-rule="evenodd" d="M2.84443 3.9444C3.25699 3.53182 3.81655 3.30002 4.40001 3.29999H17.6C18.1835 3.29999 18.7431 3.53177 19.1556 3.94435C19.5682 4.35693 19.8 4.91651 19.8 5.49999V10.45C19.8 10.5959 19.7421 10.7358 19.6389 10.8389C19.5358 10.942 19.3959 11 19.25 11C19.1041 11 18.9642 10.942 18.8611 10.8389C18.758 10.7358 18.7 10.5959 18.7 10.45V7.02165L11 11.6417L9.54251 10.7662L3.33668 14.5842C3.39929 14.8183 3.53747 15.0252 3.72975 15.1727C3.92203 15.3202 4.15766 15.4001 4.40001 15.4H10.45C10.5222 15.4 10.5938 15.4142 10.6605 15.4419C10.7272 15.4695 10.7878 15.51 10.8389 15.5611C10.89 15.6122 10.9305 15.6728 10.9581 15.7395C10.9858 15.8062 11 15.8778 11 15.95C11 16.0222 10.9858 16.0937 10.9581 16.1605C10.9305 16.2272 10.89 16.2878 10.8389 16.3389C10.7878 16.39 10.7272 16.4305 10.6605 16.4581C10.5938 16.4858 10.5222 16.5 10.45 16.5H4.40001C3.81844 16.5 3.26052 16.2697 2.84825 15.8595C2.43599 15.4493 2.20292 14.8926 2.20001 14.311V5.49999C2.1998 4.91665 2.43126 4.35711 2.84351 3.9444H2.84443ZM3.30001 13.3155L8.47918 10.1282L3.30001 7.02165V13.3164V13.3155ZM3.30001 5.49999V5.73832L11 10.3583L18.7 5.73832V5.49999C18.7 5.20825 18.5841 4.92846 18.3778 4.72217C18.1715 4.51588 17.8917 4.39999 17.6 4.39999H4.40001C4.10827 4.39999 3.82848 4.51588 3.62219 4.72217C3.4159 4.92846 3.30001 5.20825 3.30001 5.49999Z" fill="#070F21"/>
<path fill-rule="evenodd" clip-rule="evenodd" d="M18.6725 17.5725C19.03 17.215 19.3136 16.7905 19.5071 16.3234C19.7006 15.8563 19.8002 15.3556 19.8002 14.85C19.8002 14.3444 19.7006 13.8437 19.5071 13.3766C19.3136 12.9095 19.03 12.485 18.6725 12.1275C18.315 11.77 17.8905 11.4864 17.4234 11.2929C16.9563 11.0994 16.4556 10.9998 15.95 10.9998C15.4444 10.9998 14.9437 11.0994 14.4766 11.2929C14.0095 11.4864 13.585 11.77 13.2275 12.1275C12.5054 12.8496 12.0998 13.8289 12.0998 14.85C12.0998 15.8711 12.5054 16.8505 13.2275 17.5725C13.9495 18.2946 14.9289 18.7002 15.95 18.7002C16.9711 18.7002 17.9504 18.2946 18.6725 17.5725ZM13.9113 15.2387C13.8345 15.1618 13.7822 15.0638 13.761 14.9572C13.7398 14.8506 13.7507 14.74 13.7923 14.6396C13.8339 14.5392 13.9043 14.4533 13.9947 14.3929C14.085 14.3324 14.1913 14.3001 14.3 14.3H17.6C17.7459 14.3 17.8858 14.358 17.9889 14.4611C18.092 14.5642 18.15 14.7041 18.15 14.85C18.15 14.9959 18.092 15.1358 17.9889 15.2389C17.8858 15.3421 17.7459 15.4 17.6 15.4H14.3C14.1542 15.3999 14.0144 15.3419 13.9113 15.2387Z" fill="#070F21"/>
</svg>
