<svg width="40" height="40" viewBox="0 0 40 40" fill="none" xmlns="http://www.w3.org/2000/svg">
<rect x="0.5" y="0.5" width="39" height="39" rx="7.5" stroke="#070F21" stroke-opacity="0.1"/>
<g opacity="0.8" clip-path="url(#clip0_0_332)">
<path d="M18.5031 13.8441C16.2376 14.3664 14.4169 16.1631 13.8646 18.4214C13.3222 20.6398 13.9549 22.9041 15.5571 24.4786C16.1461 25.0574 16.4844 25.9209 16.4844 26.8477V28.2801C16.4845 30.4117 18.0425 31.9998 19.9995 31.9998C21.9381 31.9998 23.5147 30.4227 23.5147 28.4842L23.5148 26.8496C23.5148 25.9336 23.8699 25.0527 24.4882 24.4328C25.6745 23.2434 26.3278 21.6691 26.3278 19.9998C26.3278 16.0084 22.6347 12.8916 18.5031 13.8441ZM19.9996 30.5936C18.7971 30.5936 17.8903 29.599 17.8902 28.28V27.7342H22.109V28.4842C22.109 29.6473 21.1627 30.5936 19.9996 30.5936ZM23.4926 23.4397C22.733 24.2013 22.2536 25.2326 22.1371 26.3279H17.8636C17.7514 25.223 17.284 24.204 16.5428 23.4755C15.279 22.2338 14.8008 20.5134 15.2306 18.7555C15.6578 17.0084 17.0664 15.6185 18.8191 15.2144C22.0445 14.4708 24.9215 16.8767 24.9215 19.9998C24.9215 21.2942 24.414 22.5158 23.4926 23.4397Z" fill="#070F21"/>
<path d="M19.2969 8.70312V10.1562C19.2969 10.5446 19.6117 10.8594 20 10.8594C20.3883 10.8594 20.7031 10.5446 20.7031 10.1562V8.70312C20.7031 8.31481 20.3883 8 20 8C19.6117 8 19.2969 8.31481 19.2969 8.70312Z" fill="#070F21"/>
<path d="M10.8594 20C10.8594 19.6117 10.5446 19.2969 10.1562 19.2969H8.70312C8.31481 19.2969 8 19.6117 8 20C8 20.3883 8.31481 20.7031 8.70312 20.7031H10.1562C10.5446 20.7031 10.8594 20.3883 10.8594 20Z" fill="#070F21"/>
<path d="M31.2969 19.2969H29.8438C29.4554 19.2969 29.1406 19.6117 29.1406 20C29.1406 20.3883 29.4554 20.7031 29.8438 20.7031H31.2969C31.6852 20.7031 32 20.3883 32 20C32 19.6117 31.6852 19.2969 31.2969 19.2969Z" fill="#070F21"/>
<path d="M11.1234 24.3131L9.9056 25.0162C9.56927 25.2104 9.45405 25.6404 9.64826 25.9767C9.84302 26.314 10.2734 26.4276 10.6087 26.234L11.8265 25.5309C12.1629 25.3367 12.2781 24.9067 12.0839 24.5704C11.8897 24.2341 11.4597 24.1189 11.1234 24.3131Z" fill="#070F21"/>
<path d="M29.3906 13.7662L28.1728 14.4693C27.8365 14.6635 27.7212 15.0935 27.9154 15.4298C28.1102 15.7672 28.5406 15.8807 28.8759 15.6871L30.0937 14.984C30.43 14.7899 30.5453 14.3598 30.3511 14.0235C30.1569 13.6872 29.7268 13.572 29.3906 13.7662Z" fill="#070F21"/>
<path d="M25.0162 9.90542L24.3131 11.1233C24.1189 11.4596 24.2341 11.8896 24.5704 12.0838C24.9053 12.2771 25.3359 12.1641 25.5309 11.8264L26.234 10.6085C26.4282 10.2723 26.313 9.84224 25.9767 9.64808C25.6403 9.45383 25.2104 9.56909 25.0162 9.90542Z" fill="#070F21"/>
<path d="M14.4693 11.8269C14.6641 12.1642 15.0945 12.2778 15.4298 12.0842C15.7661 11.89 15.8814 11.46 15.6872 11.1237L14.984 9.90587C14.7899 9.56954 14.3598 9.45437 14.0236 9.64853C13.6872 9.84268 13.572 10.2727 13.7662 10.609L14.4693 11.8269Z" fill="#070F21"/>
<path d="M30.0937 25.0162L28.8759 24.3131C28.5395 24.1189 28.1095 24.2341 27.9154 24.5705C27.7212 24.9067 27.8365 25.3368 28.1728 25.5309L29.3906 26.2341C29.7254 26.4274 30.1561 26.3144 30.3511 25.9767C30.5453 25.6404 30.43 25.2104 30.0937 25.0162Z" fill="#070F21"/>
<path d="M11.8265 14.4694L10.6087 13.7663C10.2724 13.572 9.84241 13.6873 9.64826 14.0236C9.45405 14.3599 9.56927 14.7899 9.9056 14.9841L11.1234 15.6872C11.4582 15.8806 11.8889 15.7676 12.0839 15.4299C12.2781 15.0936 12.1629 14.6635 11.8265 14.4694Z" fill="#070F21"/>
<path d="M20 17.1875C18.8369 17.1875 17.8906 18.1338 17.8906 19.2969C17.8906 19.6852 18.2054 20 18.5938 20C18.9821 20 19.2969 19.6852 19.2969 19.2969C19.2969 18.9092 19.6123 18.5938 20 18.5938C20.3877 18.5938 20.7031 18.9092 20.7031 19.2969C20.7031 19.5868 20.5292 19.8433 20.2599 19.9506C19.6749 20.1837 19.2969 20.7412 19.2969 21.3709V21.4062C19.2969 21.7946 19.6117 22.1094 20 22.1094C20.3883 22.1094 20.7031 21.7946 20.7031 21.4062V21.3709C20.7031 21.3212 20.7342 21.2754 20.7804 21.257C21.5877 20.9354 22.1094 20.166 22.1094 19.2969C22.1094 18.1338 21.1631 17.1875 20 17.1875Z" fill="#070F21"/>
<path d="M20 24.9219C20.3883 24.9219 20.7031 24.6071 20.7031 24.2188C20.7031 23.8304 20.3883 23.5156 20 23.5156C19.6117 23.5156 19.2969 23.8304 19.2969 24.2188C19.2969 24.6071 19.6117 24.9219 20 24.9219Z" fill="#070F21"/>
</g>
<defs>
<clipPath id="clip0_0_332">
<rect width="24" height="24" fill="white" transform="translate(8 8)"/>
</clipPath>
</defs>
</svg>
