<svg width="16" height="16" viewBox="0 0 16 16" fill="none" xmlns="http://www.w3.org/2000/svg">
<path fill-rule="evenodd" clip-rule="evenodd" d="M2.13379 4.79993C2.13379 4.50539 2.37257 4.2666 2.66712 4.2666H13.3338C13.6283 4.2666 13.8671 4.50539 13.8671 4.79993C13.8671 5.09448 13.6283 5.33327 13.3338 5.33327H2.66712C2.37257 5.33327 2.13379 5.09448 2.13379 4.79993ZM7.46712 7.99994C7.46712 7.70539 7.70591 7.4666 8.00046 7.4666H13.3338C13.6283 7.4666 13.8671 7.70539 13.8671 7.99994C13.8671 8.29448 13.6283 8.53327 13.3338 8.53327H8.00046C7.70591 8.53327 7.46712 8.29448 7.46712 7.99994ZM4.26712 11.1999C4.26712 10.9054 4.50591 10.6666 4.80046 10.6666H13.3338C13.6283 10.6666 13.8671 10.9054 13.8671 11.1999C13.8671 11.4944 13.6283 11.7333 13.3338 11.7333H4.80046C4.50591 11.7333 4.26712 11.4944 4.26712 11.1999Z" fill="#070F21"/>
</svg>
