<svg width="22" height="22" viewBox="0 0 22 22" fill="none" xmlns="http://www.w3.org/2000/svg">
<path d="M20.1667 11C20.1667 16.5 16.1425 20.1667 11.1778 20.1667C7.14267 20.1667 3.88667 18.0262 2.75 14.6667" stroke="#070F21" stroke-width="1.5" stroke-linecap="round" stroke-linejoin="round"/>
<path d="M1.83331 11C1.83331 5.49998 5.85748 1.83331 10.8221 1.83331C14.8582 1.83331 18.1133 3.97373 19.25 7.33331" stroke="#070F21" stroke-width="1.5" stroke-linecap="round" stroke-linejoin="round"/>
<path d="M6.41665 15.5834L2.74998 14.6667L1.83331 18.3334" stroke="#070F21" stroke-width="1.5" stroke-linecap="round" stroke-linejoin="round"/>
<path d="M15.5833 6.41669L19.25 7.33335L20.1666 3.66669" stroke="#070F21" stroke-width="1.5" stroke-linecap="round" stroke-linejoin="round"/>
<path d="M11.7537 15.2987V14.6642C13.0709 14.6642 13.9873 13.6305 13.9873 12.4668C13.9873 11.255 13.0027 10.2693 11.7925 10.2693H10.1949C9.82283 10.2693 9.52021 9.96545 9.52021 9.59194C9.52021 9.23146 9.80393 8.91466 10.2055 8.91466H11.7351C12.0035 8.91734 12.2691 9.0383 12.4642 9.24681C12.7509 9.55338 13.2318 9.56939 13.5385 9.28264C13.845 8.99589 13.861 8.51491 13.5743 8.20834C13.0976 7.69868 12.4345 7.4027 11.7537 7.39485V6.76008C11.7537 6.34031 11.4134 6 10.9937 6C10.5739 6 10.2336 6.34031 10.2336 6.76008V7.39455C8.91646 7.39455 8 8.42826 8 9.59199C8 10.8037 8.98461 11.7895 10.1948 11.7895H11.7925C12.1645 11.7895 12.4671 12.0933 12.4671 12.4668C12.4671 12.8429 12.1636 13.1442 11.7926 13.1442L11.7818 13.1441H10.1128C9.92341 13.1422 9.72199 13.0735 9.54535 12.9508C9.20057 12.7112 8.72694 12.7965 8.48741 13.1412C8.24784 13.4859 8.33307 13.9595 8.67779 14.1991C9.19819 14.5608 9.68257 14.6643 10.2335 14.6643V15.2988C10.2335 15.7186 10.5738 16.0589 10.9936 16.0589C11.4134 16.0588 11.7537 15.7184 11.7537 15.2987Z" fill="#070F21"/>
<path d="M11.7537 15.2987V14.6642C13.0709 14.6642 13.9873 13.6305 13.9873 12.4668C13.9873 11.255 13.0027 10.2693 11.7925 10.2693H10.1949C9.82283 10.2693 9.52021 9.96545 9.52021 9.59194C9.52021 9.23146 9.80393 8.91466 10.2055 8.91466H11.7351C12.0035 8.91734 12.2691 9.0383 12.4642 9.24681C12.7509 9.55338 13.2318 9.56939 13.5385 9.28264C13.845 8.99589 13.861 8.51491 13.5743 8.20834C13.0976 7.69868 12.4345 7.4027 11.7537 7.39485V6.76008C11.7537 6.34031 11.4134 6 10.9937 6C10.5739 6 10.2336 6.34031 10.2336 6.76008V7.39455C8.91646 7.39455 8 8.42826 8 9.59199C8 10.8037 8.98461 11.7895 10.1948 11.7895H11.7925C12.1645 11.7895 12.4671 12.0933 12.4671 12.4668C12.4671 12.8429 12.1636 13.1442 11.7926 13.1442L11.7818 13.1441H10.1128C9.92341 13.1422 9.72199 13.0735 9.54535 12.9508C9.20057 12.7112 8.72694 12.7965 8.48741 13.1412C8.24784 13.4859 8.33307 13.9595 8.67779 14.1991C9.19819 14.5608 9.68257 14.6643 10.2335 14.6643V15.2988C10.2335 15.7186 10.5738 16.0589 10.9936 16.0589C11.4134 16.0588 11.7537 15.7184 11.7537 15.2987Z" stroke="#070F21"/>
</svg>
