<svg width="24" height="24" viewBox="0 0 24 24" fill="none" xmlns="http://www.w3.org/2000/svg">
<g clip-path="url(#clip0_2_22951)">
<path d="M14.2917 23.15H21.625C22.4659 23.15 23.15 22.4659 23.15 21.625V14.2917C23.15 13.4508 22.4659 12.7667 21.625 12.7667H14.2917C13.4507 12.7667 12.7667 13.4508 12.7667 14.2917V21.625C12.7667 22.4659 13.4507 23.15 14.2917 23.15ZM13.9833 14.2917C13.9833 14.1217 14.1222 13.9834 14.2917 13.9834H21.625C21.7944 13.9834 21.9333 14.1217 21.9333 14.2917V21.625C21.9333 21.795 21.7944 21.9334 21.625 21.9334H14.2917C14.1222 21.9334 13.9833 21.795 13.9833 21.625V14.2917Z" fill="#070F21" stroke="#070F21" stroke-width="0.3"/>
<path d="M2.375 23.15H9.70833C10.5493 23.15 11.2333 22.4659 11.2333 21.625V2.375C11.2333 1.53407 10.5493 0.85 9.70833 0.85H2.375C1.53407 0.85 0.85 1.53407 0.85 2.375V21.625C0.85 22.4659 1.53407 23.15 2.375 23.15ZM2.06667 2.375C2.06667 2.20504 2.20556 2.06667 2.375 2.06667H9.70833C9.87777 2.06667 10.0167 2.20504 10.0167 2.375V21.625C10.0167 21.795 9.87777 21.9333 9.70833 21.9333H2.375C2.20556 21.9333 2.06667 21.795 2.06667 21.625V2.375Z" fill="#070F21" stroke="#070F21" stroke-width="0.3"/>
<path d="M14.2917 11.2333H21.625C22.4659 11.2333 23.15 10.5493 23.15 9.70833V2.375C23.15 1.53407 22.4659 0.85 21.625 0.85H14.2917C13.4507 0.85 12.7667 1.53407 12.7667 2.375V9.70833C12.7667 10.5493 13.4507 11.2333 14.2917 11.2333ZM13.9833 2.375C13.9833 2.20504 14.1222 2.06667 14.2917 2.06667H21.625C21.7944 2.06667 21.9333 2.20504 21.9333 2.375V9.70833C21.9333 9.87829 21.7944 10.0167 21.625 10.0167H14.2917C14.1222 10.0167 13.9833 9.87829 13.9833 9.70833V2.375Z" fill="#070F21" stroke="#070F21" stroke-width="0.3"/>
</g>
<defs>
<clipPath id="clip0_2_22951">
<rect width="24" height="24" fill="white"/>
</clipPath>
</defs>
</svg>
