<svg width="22" height="22" viewBox="0 0 22 22" fill="none" xmlns="http://www.w3.org/2000/svg">
<g clip-path="url(#clip0_2_22955)">
<path d="M16.2654 14.0767C15.4033 14.0767 14.605 14.3556 13.9558 14.8279L12.345 13.2154C12.652 12.5308 12.823 11.7723 12.823 10.9743C12.823 10.186 12.6558 9.43586 12.3555 8.75742L13.9961 7.11537C14.6379 7.57007 15.4209 7.83762 16.2654 7.83762C18.4365 7.83762 20.2026 6.07002 20.2026 3.89724C20.2026 1.72463 18.4363 -0.0429688 16.2654 -0.0429688C14.0944 -0.0429688 12.3283 1.72463 12.3283 3.89724C12.3283 4.76031 12.6073 5.55943 13.0793 6.20916L11.6741 7.61572C10.6693 6.3186 9.0983 5.48222 7.33523 5.48222C4.30945 5.48222 1.84764 7.94605 1.84764 10.9743C1.84764 14.0028 4.30945 16.4666 7.33523 16.4666C9.0894 16.4666 10.6537 15.6386 11.659 14.3528L13.0503 15.7452C12.5957 16.3876 12.3283 17.1716 12.3283 18.0169C12.3283 20.1895 14.0944 21.9571 16.2654 21.9571C18.4365 21.9571 20.2026 20.1895 20.2026 18.0169C20.2026 15.8441 18.4363 14.0767 16.2654 14.0767ZM16.2654 1.2461C17.7256 1.2461 18.9135 2.43546 18.9135 3.89724C18.9135 5.35919 17.7256 6.54838 16.2654 6.54838C14.8053 6.54838 13.6174 5.35919 13.6174 3.89724C13.6174 2.43546 14.8053 1.2461 16.2654 1.2461ZM3.13671 10.9743C3.13671 8.65671 5.02012 6.77128 7.33523 6.77128C9.65035 6.77128 11.5339 8.65671 11.5339 10.9743C11.5339 11.8804 11.2461 12.7203 10.7571 13.4073C10.5092 12.4255 9.84857 11.6068 8.97157 11.1459C9.174 10.8379 9.29216 10.4698 9.29216 10.0743C9.29216 8.99543 8.41432 8.11759 7.33523 8.11759C6.25631 8.11759 5.37847 8.99543 5.37847 10.0743C5.37847 10.4698 5.49664 10.8379 5.69906 11.1459C4.82206 11.6068 4.16141 12.4255 3.91333 13.4073C3.4244 12.7203 3.13671 11.8804 3.13671 10.9743ZM6.66754 10.0745C6.66754 9.70626 6.96714 9.40665 7.33523 9.40665C7.70349 9.40665 8.00309 9.70626 8.00309 10.0745C8.00309 10.4426 7.70349 10.7422 7.33523 10.7422C6.96714 10.7422 6.66754 10.4426 6.66754 10.0745ZM5.09498 14.5277V14.2715C5.09498 13.0363 6.10005 12.0313 7.33523 12.0313C8.57059 12.0313 9.57549 13.0363 9.57549 14.2715V14.5277C8.92676 14.9391 8.15835 15.1776 7.33523 15.1776C6.51211 15.1776 5.74371 14.9391 5.09498 14.5277ZM16.2654 20.668C14.8053 20.668 13.6174 19.4786 13.6174 18.0169C13.6174 16.5549 14.8053 15.3657 16.2654 15.3657C17.7256 15.3657 18.9135 16.5549 18.9135 18.0169C18.9135 19.4786 17.7256 20.668 16.2654 20.668Z" fill="#070F21"/>
</g>
<defs>
<clipPath id="clip0_2_22955">
<rect width="22" height="22" fill="white"/>
</clipPath>
</defs>
</svg>
