<svg width="24" height="24" viewBox="0 0 24 24" fill="none" xmlns="http://www.w3.org/2000/svg">
<mask id="path-1-outside-1_2_23152" maskUnits="userSpaceOnUse" x="0.00115967" y="0.189331" width="24" height="23" fill="black">
<rect fill="white" x="0.00115967" y="0.189331" width="24" height="23"/>
<path d="M1.20925 3.71203C1.93181 3.02787 4.37206 0.193783 5.23415 1.55387C5.3536 1.74307 5.39302 1.97196 5.34373 2.19021C5.29444 2.40846 5.16048 2.5982 4.97131 2.71769C4.04235 3.30472 3.1994 4.0179 2.4666 4.83679C2.38767 4.92547 2.29082 4.9964 2.18246 5.0449C2.07409 5.0934 1.95668 5.11837 1.83795 5.11816C1.67614 5.11577 1.51837 5.06721 1.38322 4.97818C1.24808 4.88914 1.14119 4.76335 1.07513 4.61561C1.00907 4.46788 0.986603 4.30434 1.01036 4.14426C1.03413 3.98418 1.10313 3.83422 1.20925 3.71203ZM17.4174 2.71769C18.3464 3.30516 19.1896 4.01844 19.9229 4.83721C20.002 4.92577 20.0988 4.99658 20.2072 5.04501C20.3155 5.09343 20.4329 5.11836 20.5516 5.11816C20.7134 5.11576 20.8712 5.06716 21.0064 4.9781C21.1415 4.88904 21.2484 4.76321 21.3145 4.61544C21.3805 4.46767 21.403 4.3041 21.3792 4.144C21.3554 3.98389 21.2864 3.83392 21.1802 3.71173C20.455 3.02718 18.0211 0.195538 17.1546 1.55381C17.0352 1.743 16.9957 1.9719 17.045 2.19017C17.0943 2.40843 17.2282 2.59819 17.4174 2.71769ZM18.0575 20.1491C18.6003 19.6458 19.5864 18.8302 18.7925 18.1072C18.6224 17.9621 18.4017 17.8902 18.1788 17.9074C17.9558 17.9245 17.7487 18.0293 17.6028 18.1987C16.4814 19.5084 14.9856 20.4431 13.3168 20.8769C11.648 21.3107 9.88643 21.2228 8.26914 20.625C6.65185 20.0272 5.25656 18.9482 4.27112 17.5334C3.28568 16.1185 2.75742 14.4356 2.75745 12.7114C2.79256 4.29118 13.8539 1.10699 18.3435 8.22899C18.4648 8.4137 18.6536 8.54348 18.8695 8.59047C19.0854 8.63745 19.3112 8.59789 19.4982 8.48028C19.6853 8.36267 19.8187 8.17639 19.8699 7.96146C19.9212 7.74652 19.886 7.52007 19.7721 7.33074C18.8641 5.8755 17.5998 4.67606 16.0987 3.84595C14.5977 3.01585 12.9096 2.58256 11.1944 2.58708C2.00111 2.57774 -2.38784 14.0214 4.33984 20.1408L3.08537 21.3955C3.00703 21.4738 2.94489 21.5668 2.9025 21.6691C2.8601 21.7715 2.83828 21.8812 2.83828 21.992C2.83828 22.1028 2.8601 22.2125 2.9025 22.3148C2.94489 22.4172 3.00703 22.5102 3.08537 22.5885C3.1637 22.6668 3.2567 22.729 3.35905 22.7714C3.4614 22.8138 3.5711 22.8356 3.68188 22.8356C3.79267 22.8356 3.90236 22.8138 4.00471 22.7714C4.10706 22.729 4.20006 22.6668 4.2784 22.5885L5.67736 21.1892C7.32023 22.2536 9.23605 22.8197 11.1936 22.8193C13.1511 22.8188 15.0667 22.2518 16.709 21.1867L18.1111 22.5885C18.1894 22.6673 18.2824 22.7298 18.3849 22.7726C18.4873 22.8154 18.5972 22.8375 18.7083 22.8377C18.8193 22.8379 18.9293 22.8161 19.0319 22.7737C19.1345 22.7313 19.2278 22.6691 19.3063 22.5906C19.3848 22.5121 19.447 22.4188 19.4894 22.3162C19.5318 22.2136 19.5535 22.1036 19.5533 21.9926C19.5531 21.8815 19.531 21.7716 19.4883 21.6692C19.4455 21.5667 19.3829 21.4737 19.3041 21.3954L18.0575 20.1491ZM11.1944 6.56455C11.0836 6.56452 10.9738 6.58632 10.8715 6.62871C10.7691 6.6711 10.6761 6.73324 10.5977 6.81159C10.5194 6.88994 10.4572 6.98296 10.4148 7.08533C10.3724 7.18771 10.3506 7.29743 10.3507 7.40824V12.7114C10.3506 12.8222 10.3724 12.9319 10.4148 13.0343C10.4572 13.1367 10.5194 13.2297 10.5977 13.308C10.6761 13.3864 10.7691 13.4485 10.8715 13.4909C10.9738 13.5333 11.0836 13.5551 11.1944 13.5551H14.7298C14.9507 13.5508 15.1611 13.46 15.3158 13.3022C15.4705 13.1444 15.5572 12.9323 15.5572 12.7114C15.5572 12.4904 15.4705 12.2783 15.3158 12.1205C15.1611 11.9628 14.9507 11.872 14.7297 11.8677H12.0381V7.40824C12.0381 7.29743 12.0163 7.18771 11.9739 7.08534C11.9315 6.98296 11.8694 6.88994 11.791 6.81159C11.7127 6.73324 11.6196 6.6711 11.5173 6.62871C11.4149 6.58632 11.3052 6.56452 11.1944 6.56455ZM22.1623 14.5294H20.5433L22.8214 11.6815C22.9183 11.5567 22.9785 11.4074 22.9952 11.2503C23.0119 11.0932 22.9845 10.9346 22.916 10.7922C22.8476 10.6498 22.7408 10.5294 22.6076 10.4444C22.4745 10.3593 22.3203 10.3131 22.1623 10.3109H18.7875C18.5666 10.3151 18.356 10.4059 18.2012 10.5636C18.0464 10.7214 17.9597 10.9336 17.9597 11.1546C17.9597 11.3757 18.0465 11.5879 18.2013 11.7456C18.3561 11.9034 18.5666 11.9941 18.7876 11.9983H20.4065L18.1284 14.8462C18.0315 14.9709 17.9713 15.1203 17.9546 15.2774C17.9379 15.4345 17.9653 15.5931 18.0338 15.7355C18.1023 15.8779 18.2091 15.9983 18.3423 16.0833C18.4754 16.1683 18.6296 16.2145 18.7876 16.2168H22.1624C22.3833 16.2124 22.5937 16.1217 22.7484 15.9639C22.9031 15.8061 22.9898 15.594 22.9898 15.373C22.9898 15.1521 22.9031 14.94 22.7484 14.7822C22.5937 14.6245 22.3833 14.5337 22.1623 14.5294V14.5294Z"/>
</mask>
<path d="M1.20925 3.71203C1.93181 3.02787 4.37206 0.193783 5.23415 1.55387C5.3536 1.74307 5.39302 1.97196 5.34373 2.19021C5.29444 2.40846 5.16048 2.5982 4.97131 2.71769C4.04235 3.30472 3.1994 4.0179 2.4666 4.83679C2.38767 4.92547 2.29082 4.9964 2.18246 5.0449C2.07409 5.0934 1.95668 5.11837 1.83795 5.11816C1.67614 5.11577 1.51837 5.06721 1.38322 4.97818C1.24808 4.88914 1.14119 4.76335 1.07513 4.61561C1.00907 4.46788 0.986603 4.30434 1.01036 4.14426C1.03413 3.98418 1.10313 3.83422 1.20925 3.71203ZM17.4174 2.71769C18.3464 3.30516 19.1896 4.01844 19.9229 4.83721C20.002 4.92577 20.0988 4.99658 20.2072 5.04501C20.3155 5.09343 20.4329 5.11836 20.5516 5.11816C20.7134 5.11576 20.8712 5.06716 21.0064 4.9781C21.1415 4.88904 21.2484 4.76321 21.3145 4.61544C21.3805 4.46767 21.403 4.3041 21.3792 4.144C21.3554 3.98389 21.2864 3.83392 21.1802 3.71173C20.455 3.02718 18.0211 0.195538 17.1546 1.55381C17.0352 1.743 16.9957 1.9719 17.045 2.19017C17.0943 2.40843 17.2282 2.59819 17.4174 2.71769ZM18.0575 20.1491C18.6003 19.6458 19.5864 18.8302 18.7925 18.1072C18.6224 17.9621 18.4017 17.8902 18.1788 17.9074C17.9558 17.9245 17.7487 18.0293 17.6028 18.1987C16.4814 19.5084 14.9856 20.4431 13.3168 20.8769C11.648 21.3107 9.88643 21.2228 8.26914 20.625C6.65185 20.0272 5.25656 18.9482 4.27112 17.5334C3.28568 16.1185 2.75742 14.4356 2.75745 12.7114C2.79256 4.29118 13.8539 1.10699 18.3435 8.22899C18.4648 8.4137 18.6536 8.54348 18.8695 8.59047C19.0854 8.63745 19.3112 8.59789 19.4982 8.48028C19.6853 8.36267 19.8187 8.17639 19.8699 7.96146C19.9212 7.74652 19.886 7.52007 19.7721 7.33074C18.8641 5.8755 17.5998 4.67606 16.0987 3.84595C14.5977 3.01585 12.9096 2.58256 11.1944 2.58708C2.00111 2.57774 -2.38784 14.0214 4.33984 20.1408L3.08537 21.3955C3.00703 21.4738 2.94489 21.5668 2.9025 21.6691C2.8601 21.7715 2.83828 21.8812 2.83828 21.992C2.83828 22.1028 2.8601 22.2125 2.9025 22.3148C2.94489 22.4172 3.00703 22.5102 3.08537 22.5885C3.1637 22.6668 3.2567 22.729 3.35905 22.7714C3.4614 22.8138 3.5711 22.8356 3.68188 22.8356C3.79267 22.8356 3.90236 22.8138 4.00471 22.7714C4.10706 22.729 4.20006 22.6668 4.2784 22.5885L5.67736 21.1892C7.32023 22.2536 9.23605 22.8197 11.1936 22.8193C13.1511 22.8188 15.0667 22.2518 16.709 21.1867L18.1111 22.5885C18.1894 22.6673 18.2824 22.7298 18.3849 22.7726C18.4873 22.8154 18.5972 22.8375 18.7083 22.8377C18.8193 22.8379 18.9293 22.8161 19.0319 22.7737C19.1345 22.7313 19.2278 22.6691 19.3063 22.5906C19.3848 22.5121 19.447 22.4188 19.4894 22.3162C19.5318 22.2136 19.5535 22.1036 19.5533 21.9926C19.5531 21.8815 19.531 21.7716 19.4883 21.6692C19.4455 21.5667 19.3829 21.4737 19.3041 21.3954L18.0575 20.1491ZM11.1944 6.56455C11.0836 6.56452 10.9738 6.58632 10.8715 6.62871C10.7691 6.6711 10.6761 6.73324 10.5977 6.81159C10.5194 6.88994 10.4572 6.98296 10.4148 7.08533C10.3724 7.18771 10.3506 7.29743 10.3507 7.40824V12.7114C10.3506 12.8222 10.3724 12.9319 10.4148 13.0343C10.4572 13.1367 10.5194 13.2297 10.5977 13.308C10.6761 13.3864 10.7691 13.4485 10.8715 13.4909C10.9738 13.5333 11.0836 13.5551 11.1944 13.5551H14.7298C14.9507 13.5508 15.1611 13.46 15.3158 13.3022C15.4705 13.1444 15.5572 12.9323 15.5572 12.7114C15.5572 12.4904 15.4705 12.2783 15.3158 12.1205C15.1611 11.9628 14.9507 11.872 14.7297 11.8677H12.0381V7.40824C12.0381 7.29743 12.0163 7.18771 11.9739 7.08534C11.9315 6.98296 11.8694 6.88994 11.791 6.81159C11.7127 6.73324 11.6196 6.6711 11.5173 6.62871C11.4149 6.58632 11.3052 6.56452 11.1944 6.56455ZM22.1623 14.5294H20.5433L22.8214 11.6815C22.9183 11.5567 22.9785 11.4074 22.9952 11.2503C23.0119 11.0932 22.9845 10.9346 22.916 10.7922C22.8476 10.6498 22.7408 10.5294 22.6076 10.4444C22.4745 10.3593 22.3203 10.3131 22.1623 10.3109H18.7875C18.5666 10.3151 18.356 10.4059 18.2012 10.5636C18.0464 10.7214 17.9597 10.9336 17.9597 11.1546C17.9597 11.3757 18.0465 11.5879 18.2013 11.7456C18.3561 11.9034 18.5666 11.9941 18.7876 11.9983H20.4065L18.1284 14.8462C18.0315 14.9709 17.9713 15.1203 17.9546 15.2774C17.9379 15.4345 17.9653 15.5931 18.0338 15.7355C18.1023 15.8779 18.2091 15.9983 18.3423 16.0833C18.4754 16.1683 18.6296 16.2145 18.7876 16.2168H22.1624C22.3833 16.2124 22.5937 16.1217 22.7484 15.9639C22.9031 15.8061 22.9898 15.594 22.9898 15.373C22.9898 15.1521 22.9031 14.94 22.7484 14.7822C22.5937 14.6245 22.3833 14.5337 22.1623 14.5294V14.5294Z" fill="#070F21"/>
<path d="M1.20925 3.71203C1.93181 3.02787 4.37206 0.193783 5.23415 1.55387C5.3536 1.74307 5.39302 1.97196 5.34373 2.19021C5.29444 2.40846 5.16048 2.5982 4.97131 2.71769C4.04235 3.30472 3.1994 4.0179 2.4666 4.83679C2.38767 4.92547 2.29082 4.9964 2.18246 5.0449C2.07409 5.0934 1.95668 5.11837 1.83795 5.11816C1.67614 5.11577 1.51837 5.06721 1.38322 4.97818C1.24808 4.88914 1.14119 4.76335 1.07513 4.61561C1.00907 4.46788 0.986603 4.30434 1.01036 4.14426C1.03413 3.98418 1.10313 3.83422 1.20925 3.71203ZM17.4174 2.71769C18.3464 3.30516 19.1896 4.01844 19.9229 4.83721C20.002 4.92577 20.0988 4.99658 20.2072 5.04501C20.3155 5.09343 20.4329 5.11836 20.5516 5.11816C20.7134 5.11576 20.8712 5.06716 21.0064 4.9781C21.1415 4.88904 21.2484 4.76321 21.3145 4.61544C21.3805 4.46767 21.403 4.3041 21.3792 4.144C21.3554 3.98389 21.2864 3.83392 21.1802 3.71173C20.455 3.02718 18.0211 0.195538 17.1546 1.55381C17.0352 1.743 16.9957 1.9719 17.045 2.19017C17.0943 2.40843 17.2282 2.59819 17.4174 2.71769ZM18.0575 20.1491C18.6003 19.6458 19.5864 18.8302 18.7925 18.1072C18.6224 17.9621 18.4017 17.8902 18.1788 17.9074C17.9558 17.9245 17.7487 18.0293 17.6028 18.1987C16.4814 19.5084 14.9856 20.4431 13.3168 20.8769C11.648 21.3107 9.88643 21.2228 8.26914 20.625C6.65185 20.0272 5.25656 18.9482 4.27112 17.5334C3.28568 16.1185 2.75742 14.4356 2.75745 12.7114C2.79256 4.29118 13.8539 1.10699 18.3435 8.22899C18.4648 8.4137 18.6536 8.54348 18.8695 8.59047C19.0854 8.63745 19.3112 8.59789 19.4982 8.48028C19.6853 8.36267 19.8187 8.17639 19.8699 7.96146C19.9212 7.74652 19.886 7.52007 19.7721 7.33074C18.8641 5.8755 17.5998 4.67606 16.0987 3.84595C14.5977 3.01585 12.9096 2.58256 11.1944 2.58708C2.00111 2.57774 -2.38784 14.0214 4.33984 20.1408L3.08537 21.3955C3.00703 21.4738 2.94489 21.5668 2.9025 21.6691C2.8601 21.7715 2.83828 21.8812 2.83828 21.992C2.83828 22.1028 2.8601 22.2125 2.9025 22.3148C2.94489 22.4172 3.00703 22.5102 3.08537 22.5885C3.1637 22.6668 3.2567 22.729 3.35905 22.7714C3.4614 22.8138 3.5711 22.8356 3.68188 22.8356C3.79267 22.8356 3.90236 22.8138 4.00471 22.7714C4.10706 22.729 4.20006 22.6668 4.2784 22.5885L5.67736 21.1892C7.32023 22.2536 9.23605 22.8197 11.1936 22.8193C13.1511 22.8188 15.0667 22.2518 16.709 21.1867L18.1111 22.5885C18.1894 22.6673 18.2824 22.7298 18.3849 22.7726C18.4873 22.8154 18.5972 22.8375 18.7083 22.8377C18.8193 22.8379 18.9293 22.8161 19.0319 22.7737C19.1345 22.7313 19.2278 22.6691 19.3063 22.5906C19.3848 22.5121 19.447 22.4188 19.4894 22.3162C19.5318 22.2136 19.5535 22.1036 19.5533 21.9926C19.5531 21.8815 19.531 21.7716 19.4883 21.6692C19.4455 21.5667 19.3829 21.4737 19.3041 21.3954L18.0575 20.1491ZM11.1944 6.56455C11.0836 6.56452 10.9738 6.58632 10.8715 6.62871C10.7691 6.6711 10.6761 6.73324 10.5977 6.81159C10.5194 6.88994 10.4572 6.98296 10.4148 7.08533C10.3724 7.18771 10.3506 7.29743 10.3507 7.40824V12.7114C10.3506 12.8222 10.3724 12.9319 10.4148 13.0343C10.4572 13.1367 10.5194 13.2297 10.5977 13.308C10.6761 13.3864 10.7691 13.4485 10.8715 13.4909C10.9738 13.5333 11.0836 13.5551 11.1944 13.5551H14.7298C14.9507 13.5508 15.1611 13.46 15.3158 13.3022C15.4705 13.1444 15.5572 12.9323 15.5572 12.7114C15.5572 12.4904 15.4705 12.2783 15.3158 12.1205C15.1611 11.9628 14.9507 11.872 14.7297 11.8677H12.0381V7.40824C12.0381 7.29743 12.0163 7.18771 11.9739 7.08534C11.9315 6.98296 11.8694 6.88994 11.791 6.81159C11.7127 6.73324 11.6196 6.6711 11.5173 6.62871C11.4149 6.58632 11.3052 6.56452 11.1944 6.56455ZM22.1623 14.5294H20.5433L22.8214 11.6815C22.9183 11.5567 22.9785 11.4074 22.9952 11.2503C23.0119 11.0932 22.9845 10.9346 22.916 10.7922C22.8476 10.6498 22.7408 10.5294 22.6076 10.4444C22.4745 10.3593 22.3203 10.3131 22.1623 10.3109H18.7875C18.5666 10.3151 18.356 10.4059 18.2012 10.5636C18.0464 10.7214 17.9597 10.9336 17.9597 11.1546C17.9597 11.3757 18.0465 11.5879 18.2013 11.7456C18.3561 11.9034 18.5666 11.9941 18.7876 11.9983H20.4065L18.1284 14.8462C18.0315 14.9709 17.9713 15.1203 17.9546 15.2774C17.9379 15.4345 17.9653 15.5931 18.0338 15.7355C18.1023 15.8779 18.2091 15.9983 18.3423 16.0833C18.4754 16.1683 18.6296 16.2145 18.7876 16.2168H22.1624C22.3833 16.2124 22.5937 16.1217 22.7484 15.9639C22.9031 15.8061 22.9898 15.594 22.9898 15.373C22.9898 15.1521 22.9031 14.94 22.7484 14.7822C22.5937 14.6245 22.3833 14.5337 22.1623 14.5294V14.5294Z" stroke="#070F21" stroke-width="0.2" mask="url(#path-1-outside-1_2_23152)"/>
</svg>
