<svg width="24" height="24" viewBox="0 0 24 24" fill="none" xmlns="http://www.w3.org/2000/svg">
<path d="M5.50869 16.0286H2.50298V20.5371H5.50869V16.0286ZM13.023 10.0171H10.0173V20.5371H13.023V10.0171ZM20.5373 2.50286V20.5371H17.5315V2.50286H20.5373ZM17.5315 1C17.133 1 16.7507 1.15834 16.4689 1.44018C16.187 1.72202 16.0287 2.10427 16.0287 2.50286V20.5371C16.0287 20.9357 16.187 21.318 16.4689 21.5998C16.7507 21.8817 17.133 22.04 17.5315 22.04H20.5373C20.9358 22.04 21.3181 21.8817 21.5999 21.5998C21.8818 21.318 22.0401 20.9357 22.0401 20.5371V2.50286C22.0401 2.10427 21.8818 1.72202 21.5999 1.44018C21.3181 1.15834 20.9358 1 20.5373 1H17.5315ZM8.5144 10.0171C8.5144 9.61856 8.67274 9.2363 8.95458 8.95446C9.23642 8.67262 9.61868 8.51428 10.0173 8.51428H13.023C13.4216 8.51428 13.8038 8.67262 14.0857 8.95446C14.3675 9.2363 14.5258 9.61856 14.5258 10.0171V20.5371C14.5258 20.9357 14.3675 21.318 14.0857 21.5998C13.8038 21.8817 13.4216 22.04 13.023 22.04H10.0173C9.61868 22.04 9.23642 21.8817 8.95458 21.5998C8.67274 21.318 8.5144 20.9357 8.5144 20.5371V10.0171ZM1.00012 16.0286C1.00012 15.63 1.15846 15.2477 1.4403 14.9659C1.72214 14.684 2.1044 14.5257 2.50298 14.5257H5.50869C5.90727 14.5257 6.28953 14.684 6.57137 14.9659C6.85321 15.2477 7.01155 15.63 7.01155 16.0286V20.5371C7.01155 20.9357 6.85321 21.318 6.57137 21.5998C6.28953 21.8817 5.90727 22.04 5.50869 22.04H2.50298C2.1044 22.04 1.72214 21.8817 1.4403 21.5998C1.15846 21.318 1.00012 20.9357 1.00012 20.5371V16.0286Z" fill="#070F21"/>
</svg>
