<svg width="22" height="22" viewBox="0 0 22 22" fill="none" xmlns="http://www.w3.org/2000/svg">
<path d="M4.58331 19.25H15.5833C16.5558 19.25 17.4884 18.8637 18.176 18.1761C18.8637 17.4884 19.25 16.5558 19.25 15.5833V4.58333C19.25 4.0971 19.0568 3.63079 18.713 3.28697C18.3692 2.94315 17.9029 2.75 17.4166 2.75H8.24998C7.76375 2.75 7.29743 2.94315 6.95362 3.28697C6.6098 3.63079 6.41665 4.0971 6.41665 4.58333V16.5C6.41665 18.0189 6.10223 19.25 4.58331 19.25Z" stroke="#070F21" stroke-width="1.5" stroke-linecap="round" stroke-linejoin="round"/>
<path d="M2.75 9.16665C2.75 8.68042 2.94315 8.2141 3.28697 7.87028C3.63079 7.52647 4.0971 7.33331 4.58333 7.33331H6.41667V16.9583C6.41667 18.2233 5.84833 19.25 4.58333 19.25C3.31833 19.25 2.75 18.2233 2.75 16.9583V9.16665Z" stroke="#070F21" stroke-width="1.5" stroke-linecap="round" stroke-linejoin="round"/>
<path d="M11 6.41669C10.7569 6.41669 10.5237 6.51326 10.3518 6.68517C10.1799 6.85708 10.0833 7.09024 10.0833 7.33335C10.0833 7.57647 10.1799 7.80963 10.3518 7.98153C10.5237 8.15344 10.7569 8.25002 11 8.25002C11.2431 8.25002 11.4763 8.15344 11.6482 7.98153C11.8201 7.80963 11.9166 7.57647 11.9166 7.33335C11.9166 7.09024 11.8201 6.85708 11.6482 6.68517C11.4763 6.51326 11.2431 6.41669 11 6.41669Z" stroke="#070F21" stroke-width="1.5" stroke-linecap="round" stroke-linejoin="round"/>
<path d="M10.0833 12.8333H15.5833" stroke="#070F21" stroke-width="1.5" stroke-linecap="round" stroke-linejoin="round"/>
<path d="M10.0833 15.5833H12.8333" stroke="#070F21" stroke-width="1.5" stroke-linecap="round" stroke-linejoin="round"/>
</svg>
