<svg width="36" height="36" viewBox="0 0 36 36" fill="none" xmlns="http://www.w3.org/2000/svg">
<path d="M23.2684 6.20775C22.811 5.89802 22.2846 5.70528 21.7354 5.64644C21.1862 5.58759 20.631 5.66444 20.1184 5.87025L12.2929 9H5.625C4.72989 9 3.87145 9.35558 3.23851 9.98851C2.60558 10.6214 2.25 11.4799 2.25 12.375V19.125C2.25288 19.8205 2.47059 20.4982 2.87335 21.0653C3.2761 21.6324 3.84423 22.0612 4.5 22.293V28.179C4.5 28.6222 4.5873 29.0611 4.75691 29.4706C4.92652 29.88 5.17512 30.2521 5.48851 30.5655C5.80191 30.8789 6.17397 31.1275 6.58344 31.2971C6.99292 31.4667 7.43179 31.554 7.875 31.554C8.31821 31.554 8.75708 31.4667 9.16656 31.2971C9.57603 31.1275 9.94809 30.8789 10.2615 30.5655C10.5749 30.2521 10.8235 29.88 10.9931 29.4706C11.1627 29.0611 11.25 28.6222 11.25 28.179V22.5H12.024L20.124 25.7389C20.6359 25.9432 21.1901 26.019 21.7381 25.9597C22.2861 25.9004 22.8112 25.7078 23.2676 25.3987C23.724 25.0896 24.0977 24.6734 24.3561 24.1866C24.6145 23.6997 24.7498 23.1569 24.75 22.6058V9C24.7497 8.44899 24.6146 7.90643 24.3563 7.41969C24.098 6.93296 23.7245 6.51687 23.2684 6.20775ZM4.5 12.375C4.5 12.0766 4.61853 11.7905 4.8295 11.5795C5.04048 11.3685 5.32663 11.25 5.625 11.25H11.25V20.25H5.625C5.32663 20.25 5.04048 20.1315 4.8295 19.9205C4.61853 19.7095 4.5 19.4234 4.5 19.125V12.375ZM9 28.179C9 28.4774 8.88147 28.7635 8.6705 28.9745C8.45952 29.1855 8.17337 29.304 7.875 29.304C7.57663 29.304 7.29048 29.1855 7.0795 28.9745C6.86853 28.7635 6.75 28.4774 6.75 28.179V22.554H9V28.179ZM22.5 22.6058C22.5 22.7896 22.4548 22.9707 22.3686 23.1331C22.2824 23.2955 22.1576 23.4343 22.0053 23.5373C21.853 23.6404 21.6777 23.7045 21.4949 23.7241C21.312 23.7437 21.1272 23.7182 20.9565 23.6497L13.5 20.6674V10.9406L20.9565 7.95825C21.127 7.88991 21.3117 7.86437 21.4943 7.88386C21.677 7.90334 21.8521 7.96726 22.0044 8.07002C22.1566 8.17279 22.2814 8.31128 22.3678 8.47339C22.4542 8.6355 22.4996 8.8163 22.5 9V22.6058Z" fill="#070F21"/>
<path d="M32.625 16.929H29.25C28.9516 16.929 28.6655 16.8105 28.4545 16.5995C28.2435 16.3885 28.125 16.1024 28.125 15.804C28.125 15.5056 28.2435 15.2195 28.4545 15.0085C28.6655 14.7975 28.9516 14.679 29.25 14.679H32.625C32.9234 14.679 33.2095 14.7975 33.4205 15.0085C33.6315 15.2195 33.75 15.5056 33.75 15.804C33.75 16.1024 33.6315 16.3885 33.4205 16.5995C33.2095 16.8105 32.9234 16.929 32.625 16.929Z" fill="#070F21"/>
<path d="M29.25 9.05399C28.9942 9.05713 28.7449 8.97297 28.5434 8.81541C28.3418 8.65784 28.1999 8.43628 28.1412 8.18726C28.0825 7.93824 28.1104 7.67665 28.2204 7.44563C28.3303 7.21461 28.5157 7.02797 28.746 6.91649L30.996 5.79149C31.1283 5.72409 31.2726 5.68354 31.4207 5.67218C31.5687 5.66082 31.7175 5.67888 31.8586 5.72532C31.9996 5.77175 32.13 5.84564 32.2424 5.94273C32.3547 6.03982 32.4467 6.15818 32.5131 6.29099C32.5794 6.42381 32.6189 6.56845 32.6291 6.71657C32.6393 6.8647 32.62 7.01337 32.5725 7.15404C32.525 7.2947 32.4501 7.42456 32.3521 7.53613C32.2542 7.6477 32.1351 7.73878 32.0018 7.80412L29.7518 8.92912C29.5966 9.00949 29.4247 9.05226 29.25 9.05399Z" fill="#070F21"/>
<path d="M31.5 25.929C31.3257 25.929 31.1539 25.8882 30.9983 25.8097L28.7483 24.6847C28.6149 24.6194 28.4959 24.5283 28.3979 24.4167C28.2999 24.3052 28.225 24.1753 28.1775 24.0347C28.13 23.894 28.1107 23.7453 28.1209 23.5972C28.1311 23.4491 28.1706 23.3044 28.2369 23.1716C28.3033 23.0388 28.3953 22.9204 28.5077 22.8233C28.62 22.7263 28.7504 22.6524 28.8915 22.6059C29.0325 22.5595 29.1813 22.5414 29.3293 22.5528C29.4774 22.5642 29.6217 22.6047 29.754 22.6721L32.004 23.7971C32.2311 23.9103 32.4133 24.0969 32.5209 24.3267C32.6286 24.5565 32.6554 24.8159 32.597 25.0628C32.5386 25.3097 32.3985 25.5297 32.1993 25.6869C32.0002 25.8442 31.7537 25.9295 31.5 25.929Z" fill="#070F21"/>
</svg>
