<svg width="22" height="22" viewBox="0 0 22 22" fill="none" xmlns="http://www.w3.org/2000/svg">
<g opacity="0.8">
<path d="M11 8.25C10.2707 8.25 9.57118 8.53973 9.05546 9.05546C8.53973 9.57118 8.25 10.2707 8.25 11C8.25 11.7293 8.53973 12.4288 9.05546 12.9445C9.57118 13.4603 10.2707 13.75 11 13.75C11.7293 13.75 12.4288 13.4603 12.9445 12.9445C13.4603 12.4288 13.75 11.7293 13.75 11C13.75 10.2707 13.4603 9.57118 12.9445 9.05546C12.4288 8.53973 11.7293 8.25 11 8.25Z" stroke="#070F21" stroke-width="1.5" stroke-linecap="round" stroke-linejoin="round"/>
<path d="M11 1.83331C10.5138 1.83331 10.0475 2.02647 9.70366 2.37028C9.35984 2.7141 9.16669 3.18042 9.16669 3.66665C9.16669 4.15288 9.35984 4.61919 9.70366 4.96301C10.0475 5.30683 10.5138 5.49998 11 5.49998C11.4863 5.49998 11.9526 5.30683 12.2964 4.96301C12.6402 4.61919 12.8334 4.15288 12.8334 3.66665C12.8334 3.18042 12.6402 2.7141 12.2964 2.37028C11.9526 2.02647 11.4863 1.83331 11 1.83331Z" stroke="#070F21" stroke-width="1.5" stroke-linecap="round" stroke-linejoin="round"/>
<path d="M18.3333 9.16669C17.8471 9.16669 17.3808 9.35984 17.037 9.70366C16.6932 10.0475 16.5 10.5138 16.5 11C16.5 11.4863 16.6932 11.9526 17.037 12.2964C17.3808 12.6402 17.8471 12.8334 18.3333 12.8334C18.8196 12.8334 19.2859 12.6402 19.6297 12.2964C19.9735 11.9526 20.1667 11.4863 20.1667 11C20.1667 10.5138 19.9735 10.0475 19.6297 9.70366C19.2859 9.35984 18.8196 9.16669 18.3333 9.16669Z" stroke="#070F21" stroke-width="1.5" stroke-linecap="round" stroke-linejoin="round"/>
<path d="M3.66665 9.16669C3.18042 9.16669 2.7141 9.35984 2.37028 9.70366C2.02647 10.0475 1.83331 10.5138 1.83331 11C1.83331 11.4863 2.02647 11.9526 2.37028 12.2964C2.7141 12.6402 3.18042 12.8334 3.66665 12.8334C4.15288 12.8334 4.61919 12.6402 4.96301 12.2964C5.30683 11.9526 5.49998 11.4863 5.49998 11C5.49998 10.5138 5.30683 10.0475 4.96301 9.70366C4.61919 9.35984 4.15288 9.16669 3.66665 9.16669Z" stroke="#070F21" stroke-width="1.5" stroke-linecap="round" stroke-linejoin="round"/>
<path d="M11 16.5C10.5138 16.5 10.0475 16.6932 9.70366 17.037C9.35984 17.3808 9.16669 17.8471 9.16669 18.3333C9.16669 18.8196 9.35984 19.2859 9.70366 19.6297C10.0475 19.9735 10.5138 20.1667 11 20.1667C11.4863 20.1667 11.9526 19.9735 12.2964 19.6297C12.6402 19.2859 12.8334 18.8196 12.8334 18.3333C12.8334 17.8471 12.6402 17.3808 12.2964 17.037C11.9526 16.6932 11.4863 16.5 11 16.5Z" stroke="#070F21" stroke-width="1.5" stroke-linecap="round" stroke-linejoin="round"/>
<path d="M11 5.5V8.25" stroke="#070F21" stroke-width="1.5" stroke-linecap="round" stroke-linejoin="round"/>
<path d="M13.75 11H16.5" stroke="#070F21" stroke-width="1.5" stroke-linecap="round" stroke-linejoin="round"/>
<path d="M11 13.75V16.5" stroke="#070F21" stroke-width="1.5" stroke-linecap="round" stroke-linejoin="round"/>
<path d="M8.25 11H5.5" stroke="#070F21" stroke-width="1.5" stroke-linecap="round" stroke-linejoin="round"/>
</g>
</svg>
