<svg width="24" height="24" viewBox="0 0 24 24" fill="none" xmlns="http://www.w3.org/2000/svg">
<path d="M9.6488 3.53864C7.5521 1.44301 3.44912 1.20001 0.544902 1.20001C0.244125 1.20001 0 1.44409 0 1.74486C0 4.64908 0.241929 8.75207 2.33863 10.8488C3.22354 11.7337 4.5803 12.1293 5.92506 12.1293C7.38644 12.1293 8.83475 11.6618 9.6488 10.8477C11.2105 9.28609 11.4971 5.3858 9.6488 3.53864ZM8.87837 10.0783C7.7123 11.2433 4.47461 11.4427 3.11024 10.0783C1.41781 8.38595 1.12464 4.94771 1.09302 2.29303C3.7477 2.32465 7.18594 2.61777 8.87832 4.3102C10.2427 5.67457 10.0433 8.91339 8.87837 10.0783Z" fill="#070F21"/>
<path d="M23.4548 3.3556C20.5506 3.3556 16.4476 3.59753 14.3509 5.69423C12.5026 7.54139 12.7892 11.4417 14.3509 13.0033C15.1649 13.8163 16.6122 14.2838 18.0736 14.2838C19.4183 14.2838 20.774 13.8893 21.6611 13.0045C23.7567 10.9078 23.9997 6.80478 23.9997 3.90051C23.9997 3.59973 23.7556 3.3556 23.4548 3.3556ZM20.8884 12.2329C19.5241 13.5972 16.2852 13.3978 15.1203 12.2329C13.9553 11.0679 13.7559 7.82909 15.1203 6.46472C16.8127 4.77229 20.2509 4.47917 22.9056 4.44755C22.874 7.1033 22.5809 10.5415 20.8884 12.2329Z" fill="#070F21"/>
<path d="M19.5205 8.07211C19.392 7.79856 19.0236 7.70487 18.7523 7.83125C14.573 9.79611 12.5199 13.2223 11.587 16.7445C10.4329 9.25555 7.09497 6.9725 5.67936 6.00371C5.50282 5.88274 5.3655 5.79447 5.28924 5.71928C5.07673 5.50677 4.73126 5.50677 4.51875 5.71928C4.30625 5.93178 4.30625 6.27726 4.51875 6.48976C4.62664 6.59658 4.81299 6.73062 5.06473 6.90277C6.66015 7.99365 10.8982 10.8935 10.8982 22.4505C10.8982 22.7513 11.1424 22.9954 11.4432 22.9954C11.7439 22.9954 11.9881 22.7513 11.9881 22.4517C11.9881 17.782 13.2424 11.6259 19.2165 8.81863L19.3048 8.77613C19.5761 8.64751 19.6491 8.34453 19.5205 8.07211Z" fill="#070F21"/>
</svg>
