<svg width="24" height="24" viewBox="0 0 24 24" fill="none" xmlns="http://www.w3.org/2000/svg">
<path d="M21.4393 2.58186C20.9391 2.06848 20.1988 1.87722 19.5085 2.07854L3.41191 6.7594C2.68361 6.96174 2.1674 7.54257 2.02834 8.28043C1.88628 9.03138 2.38249 9.98467 3.03075 10.3833L8.06381 13.4767C8.58002 13.7938 9.24629 13.7143 9.67347 13.2834L15.4368 7.48418C15.7269 7.18219 16.2071 7.18219 16.4973 7.48418C16.7874 7.77611 16.7874 8.24923 16.4973 8.55122L10.7239 14.3515C10.2957 14.7813 10.2157 15.4507 10.5308 15.9701L13.6061 21.0537C13.9662 21.6576 14.5865 21.9999 15.2667 21.9999C15.3468 21.9999 15.4368 21.9999 15.5169 21.9898C16.2972 21.8892 16.9174 21.3557 17.1475 20.6007L21.9195 4.52467C22.1296 3.84016 21.9395 3.09525 21.4393 2.58186Z" fill="#070F21"/>
</svg>
