<svg width="24" height="24" viewBox="0 0 24 24" fill="none" xmlns="http://www.w3.org/2000/svg">
<path d="M18.9993 4.00037H4.99927C4.73405 4.00037 4.4797 4.10572 4.29216 4.29326C4.10462 4.4808 3.99927 4.73515 3.99927 5.00037V19.0004C3.99927 19.2656 4.10462 19.5199 4.29216 19.7075C4.4797 19.895 4.73405 20.0004 4.99927 20.0004H18.9993C19.2645 20.0004 19.5188 19.895 19.7064 19.7075C19.8939 19.5199 19.9993 19.2656 19.9993 19.0004V5.00037C19.9993 4.73515 19.8939 4.4808 19.7064 4.29326C19.5188 4.10572 19.2645 4.00037 18.9993 4.00037V4.00037Z" stroke="#070F21" stroke-width="1.5" stroke-linecap="round" stroke-linejoin="round"/>
<path d="M15.9993 16.0004H16.0023V16.0034H15.9993V16.0004Z" stroke="#070F21" stroke-width="1.5" stroke-linecap="round" stroke-linejoin="round"/>
<path d="M12 16.0004H12.003V16.0034H12V16.0004Z" stroke="#070F21" stroke-width="1.5" stroke-linecap="round" stroke-linejoin="round"/>
<path d="M8.00073 16.0004H8.00373V16.0034H8.00073V16.0004Z" stroke="#070F21" stroke-width="1.5" stroke-linecap="round" stroke-linejoin="round"/>
<path d="M15.9993 12H16.0023V12.003H15.9993V12Z" stroke="#070F21" stroke-width="1.5" stroke-linecap="round" stroke-linejoin="round"/>
<path d="M12 12H12.0032V12.0032H12V12Z" stroke="#070F21" stroke-width="1.5" stroke-linecap="round" stroke-linejoin="round"/>
<path d="M8.00073 12H8.00398V12.0032H8.00073V12Z" stroke="#070F21" stroke-width="1.5" stroke-linecap="round" stroke-linejoin="round"/>
<path d="M3.99927 7.99963H19.9993" stroke="#070F21" stroke-width="1.5" stroke-linecap="round" stroke-linejoin="round"/>
<path d="M15.9993 1.99963V3.99963" stroke="#070F21" stroke-width="1.5" stroke-linecap="round" stroke-linejoin="round"/>
<path d="M8.00073 1.99963V3.99963" stroke="#070F21" stroke-width="1.5" stroke-linecap="round" stroke-linejoin="round"/>
</svg>
