<svg width="20" height="20" viewBox="0 0 20 20" fill="none" xmlns="http://www.w3.org/2000/svg">
<g clip-path="url(#clip0_2_22963)">
<path d="M10.0013 1.6665C7.79116 1.6665 5.67155 2.54448 4.10875 4.10728C2.54594 5.67008 1.66797 7.7897 1.66797 9.99984C1.66797 12.21 2.54594 14.3296 4.10875 15.8924C5.67155 17.4552 7.79116 18.3332 10.0013 18.3332C12.2114 18.3332 14.3311 17.4552 15.8939 15.8924C17.4567 14.3296 18.3346 12.21 18.3346 9.99984C18.3346 7.7897 17.4567 5.67008 15.8939 4.10728C14.3311 2.54448 12.2114 1.6665 10.0013 1.6665Z" fill="#070F21" stroke="#070F21" stroke-width="1.5" stroke-linecap="round" stroke-linejoin="round"/>
<path d="M6.66797 10.4165L9.16797 12.9165L13.3346 7.9165" stroke="white" stroke-width="1.5" stroke-linecap="round" stroke-linejoin="round"/>
</g>
<defs>
<clipPath id="clip0_2_22963">
<rect width="20" height="20" fill="white"/>
</clipPath>
</defs>
</svg>
