<svg width="24" height="24" viewBox="0 0 24 24" fill="none" xmlns="http://www.w3.org/2000/svg">
<g clip-path="url(#clip0_2_23042)">
<path d="M16 21V19C16 17.9391 15.5786 16.9217 14.8284 16.1716C14.0783 15.4214 13.0609 15 12 15H5C3.93913 15 2.92172 15.4214 2.17157 16.1716C1.42143 16.9217 1 17.9391 1 19V21" stroke="#070F21" stroke-width="1.5" stroke-linecap="round" stroke-linejoin="round"/>
<path d="M8.5 3C7.43913 3 6.42172 3.42143 5.67157 4.17157C4.92143 4.92172 4.5 5.93913 4.5 7C4.5 8.06087 4.92143 9.07828 5.67157 9.82843C6.42172 10.5786 7.43913 11 8.5 11C9.56087 11 10.5783 10.5786 11.3284 9.82843C12.0786 9.07828 12.5 8.06087 12.5 7C12.5 5.93913 12.0786 4.92172 11.3284 4.17157C10.5783 3.42143 9.56087 3 8.5 3Z" stroke="#070F21" stroke-width="1.5" stroke-linecap="round" stroke-linejoin="round"/>
<path d="M20 8V14" stroke="#070F21" stroke-width="1.5" stroke-linecap="round" stroke-linejoin="round"/>
<path d="M23 11H17" stroke="#070F21" stroke-width="1.5" stroke-linecap="round" stroke-linejoin="round"/>
</g>
<defs>
<clipPath id="clip0_2_23042">
<rect width="24" height="24" fill="white"/>
</clipPath>
</defs>
</svg>
