<svg width="24" height="24" viewBox="0 0 24 24" fill="none" xmlns="http://www.w3.org/2000/svg">
<path d="M11.5136 1C10.5412 1 9.71305 1.63215 9.4009 2.50236H3.25208C2.0166 2.50236 1 3.51894 1 4.75444V15.2739C1 16.5094 2.0166 17.5245 3.25208 17.5245H9.26299V20.5307H6.2568C5.27662 20.5519 5.27662 22.0119 6.2568 22.0331H16.7763C17.7997 22.0552 17.7997 20.5086 16.7763 20.5307H13.7715V17.5245H19.7825C21.0179 17.5245 22.0331 16.5094 22.0331 15.2739V4.75444C22.0331 3.51894 21.0179 2.50236 19.7825 2.50236H13.6322C13.3186 1.63215 12.486 1 11.5136 1ZM11.5136 2.50236C11.9357 2.50236 12.2637 2.82628 12.2662 3.24767C12.2662 3.2511 12.2662 3.25452 12.2662 3.25794C12.2629 3.67865 11.9352 4.00619 11.5136 4.00619C11.0941 4.00619 10.7747 3.68146 10.7683 3.26381C10.7684 3.25501 10.7684 3.24621 10.7683 3.23741C10.7762 2.82135 11.0951 2.50236 11.5136 2.50236ZM3.25208 4.00619H9.40384C9.71768 4.87473 10.5434 5.50855 11.5136 5.50855C12.4838 5.50855 13.3139 4.87473 13.6292 4.00619H19.7825C20.2116 4.00619 20.5307 4.32528 20.5307 4.75444V15.2739C20.5307 15.703 20.2116 16.0222 19.7825 16.0222H16.0222C16.0222 14.3268 15.0738 12.8463 13.682 12.0785C14.1967 11.5396 14.5198 10.8159 14.5198 10.0171C14.5198 8.36653 13.1642 7.01092 11.5136 7.01092C9.86303 7.01092 8.51474 8.36653 8.51474 10.0171C8.51474 10.8152 8.83421 11.5382 9.34662 12.077C7.95615 12.8447 7.01091 14.3265 7.01092 16.0222H3.25208C2.82293 16.0222 2.50383 15.703 2.50383 15.2739V4.75444C2.50383 4.32528 2.82293 4.00619 3.25208 4.00619ZM11.5136 8.51328C12.3522 8.51328 13.016 9.17849 13.016 10.0171C13.016 10.8558 12.3522 11.5195 11.5136 11.5195C10.675 11.5195 10.0171 10.8558 10.0171 10.0171C10.0171 9.17849 10.675 8.51328 11.5136 8.51328ZM11.5136 13.016C13.182 13.016 14.5198 14.3538 14.5198 16.0222C12.4609 16.0222 10.2936 16.0222 8.51474 16.0222C8.51474 14.3538 9.84524 13.016 11.5136 13.016ZM10.7654 17.5245H12.2677V20.5307H10.7654V17.5245Z" fill="#070F21"/>
</svg>
