<svg width="40" height="40" viewBox="0 0 40 40" fill="none" xmlns="http://www.w3.org/2000/svg">
<rect x="0.5" y="0.5" width="39" height="39" rx="7.5" stroke="#070F21" stroke-opacity="0.1"/>
<g opacity="0.8" clip-path="url(#clip0_0_411)">
<path d="M18.5031 13.8443C16.2376 14.3667 14.4169 16.1634 13.8646 18.4217C13.3222 20.64 13.9549 22.9044 15.5571 24.4788C16.1461 25.0576 16.4844 25.9212 16.4844 26.8479V28.2803C16.4845 30.4119 18.0425 32.0001 19.9995 32.0001C21.9381 32.0001 23.5147 30.423 23.5147 28.4845L23.5148 26.8499C23.5148 25.9338 23.8699 25.053 24.4882 24.433C25.6745 23.2437 26.3278 21.6693 26.3278 20.0001C26.3278 16.0087 22.6347 12.8919 18.5031 13.8443ZM19.9996 30.5938C18.7971 30.5938 17.8903 29.5992 17.8902 28.2803V27.7344H22.109V28.4844C22.109 29.6475 21.1627 30.5938 19.9996 30.5938ZM23.4926 23.44C22.733 24.2016 22.2536 25.2328 22.1371 26.3282H17.8636C17.7514 25.2232 17.284 24.2042 16.5428 23.4758C15.279 22.234 14.8008 20.5136 15.2306 18.7557C15.6578 17.0087 17.0664 15.6187 18.8191 15.2147C22.0445 14.471 24.9215 16.877 24.9215 20.0001C24.9215 21.2944 24.414 22.5161 23.4926 23.44Z" fill="#070F21"/>
<path d="M19.2969 8.70312V10.1562C19.2969 10.5446 19.6117 10.8594 20 10.8594C20.3883 10.8594 20.7031 10.5446 20.7031 10.1562V8.70312C20.7031 8.31481 20.3883 8 20 8C19.6117 8 19.2969 8.31481 19.2969 8.70312Z" fill="#070F21"/>
<path d="M10.8594 20C10.8594 19.6117 10.5446 19.2969 10.1562 19.2969H8.70312C8.31481 19.2969 8 19.6117 8 20C8 20.3883 8.31481 20.7031 8.70312 20.7031H10.1562C10.5446 20.7031 10.8594 20.3883 10.8594 20Z" fill="#070F21"/>
<path d="M31.2969 19.2969H29.8438C29.4554 19.2969 29.1406 19.6117 29.1406 20C29.1406 20.3883 29.4554 20.7031 29.8438 20.7031H31.2969C31.6852 20.7031 32 20.3883 32 20C32 19.6117 31.6852 19.2969 31.2969 19.2969Z" fill="#070F21"/>
<path d="M11.1234 24.3131L9.9056 25.0162C9.56927 25.2104 9.45405 25.6404 9.64826 25.9767C9.84302 26.314 10.2734 26.4276 10.6087 26.234L11.8265 25.5309C12.1629 25.3367 12.2781 24.9067 12.0839 24.5704C11.8897 24.2341 11.4597 24.1189 11.1234 24.3131Z" fill="#070F21"/>
<path d="M29.3906 13.7662L28.1728 14.4693C27.8365 14.6635 27.7212 15.0935 27.9154 15.4298C28.1102 15.7672 28.5406 15.8807 28.8759 15.6871L30.0937 14.984C30.43 14.7899 30.5453 14.3598 30.3511 14.0235C30.1569 13.6872 29.7268 13.572 29.3906 13.7662Z" fill="#070F21"/>
<path d="M25.0162 9.90567L24.3131 11.1235C24.1189 11.4598 24.2341 11.8898 24.5704 12.084C24.9053 12.2774 25.3359 12.1644 25.5309 11.8267L26.234 10.6088C26.4282 10.2725 26.313 9.84248 25.9767 9.64832C25.6403 9.45407 25.2104 9.56934 25.0162 9.90567Z" fill="#070F21"/>
<path d="M14.4693 11.8266C14.6641 12.164 15.0945 12.2775 15.4298 12.084C15.7661 11.8898 15.8814 11.4598 15.6872 11.1235L14.984 9.90562C14.7899 9.5693 14.3598 9.45413 14.0236 9.64828C13.6872 9.84244 13.572 10.2725 13.7662 10.6087L14.4693 11.8266Z" fill="#070F21"/>
<path d="M30.0937 25.016L28.8759 24.3129C28.5395 24.1186 28.1095 24.2339 27.9154 24.5702C27.7212 24.9065 27.8365 25.3365 28.1728 25.5307L29.3906 26.2338C29.7254 26.4272 30.1561 26.3142 30.3511 25.9765C30.5453 25.6402 30.43 25.2102 30.0937 25.016Z" fill="#070F21"/>
<path d="M11.8265 14.4691L10.6087 13.766C10.2724 13.5717 9.84241 13.687 9.64826 14.0234C9.45405 14.3596 9.56927 14.7897 9.9056 14.9838L11.1234 15.687C11.4582 15.8803 11.8889 15.7673 12.0839 15.4296C12.2781 15.0933 12.1629 14.6633 11.8265 14.4691Z" fill="#070F21"/>
<path d="M20 17.1875C18.8369 17.1875 17.8906 18.1338 17.8906 19.2969C17.8906 19.6852 18.2054 20 18.5938 20C18.9821 20 19.2969 19.6852 19.2969 19.2969C19.2969 18.9092 19.6123 18.5938 20 18.5938C20.3877 18.5938 20.7031 18.9092 20.7031 19.2969C20.7031 19.5868 20.5292 19.8433 20.2599 19.9506C19.6749 20.1837 19.2969 20.7412 19.2969 21.3709V21.4062C19.2969 21.7946 19.6117 22.1094 20 22.1094C20.3883 22.1094 20.7031 21.7946 20.7031 21.4062V21.3709C20.7031 21.3212 20.7342 21.2754 20.7804 21.257C21.5877 20.9354 22.1094 20.166 22.1094 19.2969C22.1094 18.1338 21.1631 17.1875 20 17.1875Z" fill="#070F21"/>
<path d="M20 24.9219C20.3883 24.9219 20.7031 24.6071 20.7031 24.2188C20.7031 23.8304 20.3883 23.5156 20 23.5156C19.6117 23.5156 19.2969 23.8304 19.2969 24.2188C19.2969 24.6071 19.6117 24.9219 20 24.9219Z" fill="#070F21"/>
</g>
<defs>
<clipPath id="clip0_0_411">
<rect width="24" height="24" fill="white" transform="translate(8 8)"/>
</clipPath>
</defs>
</svg>
