<svg width="24" height="24" viewBox="0 0 24 24" fill="none" xmlns="http://www.w3.org/2000/svg">
<path d="M21.4623 6.6646C21.451 6.07063 21.4402 5.50952 21.4402 4.96668C21.4402 4.5414 21.0955 4.19662 20.6701 4.19662C17.3769 4.19662 14.8695 3.25017 12.7794 1.21804C12.4804 0.927268 12.0046 0.927371 11.7058 1.21804C9.61593 3.25017 7.10894 4.19662 3.81587 4.19662C3.39059 4.19662 3.04581 4.5414 3.04581 4.96668C3.04581 5.50962 3.03513 6.07094 3.02374 6.66501C2.91819 12.1926 2.77362 19.7629 11.9904 22.9576C12.0721 22.9859 12.1573 23.0001 12.2425 23.0001C12.3278 23.0001 12.4131 22.9859 12.4947 22.9576C21.7122 19.7628 21.5678 12.1923 21.4623 6.6646ZM12.2426 21.4128C4.33807 18.5413 4.45758 12.251 4.56364 6.69438C4.57001 6.36089 4.57617 6.03767 4.58048 5.72082C7.66482 5.59063 10.1313 4.65599 12.2426 2.81668C14.3542 4.65599 16.8211 5.59073 19.9056 5.72082C19.9099 6.03757 19.9161 6.36058 19.9225 6.69386C20.0284 12.2507 20.1478 18.5412 12.2426 21.4128Z" fill="#070F21"/>
<path d="M14.8944 9.32486L11.1777 13.0414L9.59173 11.4554C9.291 11.1547 8.8034 11.1547 8.50277 11.4554C8.20204 11.7562 8.20204 12.2437 8.50277 12.5444L10.6333 14.6749C10.7836 14.8252 10.9807 14.9004 11.1777 14.9004C11.3748 14.9004 11.5719 14.8252 11.7222 14.6749L15.9833 10.4139C16.2841 10.1132 16.2841 9.6256 15.9834 9.32497C15.6828 9.02423 15.1952 9.02413 14.8944 9.32486Z" fill="#070F21"/>
</svg>
