<svg width="24" height="24" viewBox="0 0 24 24" fill="none" xmlns="http://www.w3.org/2000/svg">
<path d="M12 2C9.34784 2 6.8043 3.05357 4.92893 4.92893C3.05357 6.8043 2 9.34784 2 12C2 14.6522 3.05357 17.1957 4.92893 19.0711C6.8043 20.9464 9.34784 22 12 22C14.6522 22 17.1957 20.9464 19.0711 19.0711C20.9464 17.1957 22 14.6522 22 12C22 9.34784 20.9464 6.8043 19.0711 4.92893C17.1957 3.05357 14.6522 2 12 2V2Z" stroke="#070F21" stroke-width="2" stroke-linecap="round" stroke-linejoin="round"/>
<path d="M16 12C16 9.34784 15.5786 6.8043 14.8284 4.92893C14.0783 3.05357 13.0609 2 12 2C10.9391 2 9.92172 3.05357 9.17157 4.92893C8.42143 6.8043 8 9.34784 8 12C8 14.6522 8.42143 17.1957 9.17157 19.0711C9.92172 20.9464 10.9391 22 12 22C13.0609 22 14.0783 20.9464 14.8284 19.0711C15.5786 17.1957 16 14.6522 16 12V12Z" stroke="#070F21" stroke-width="2" stroke-linecap="round" stroke-linejoin="round"/>
<path d="M2 12H22" stroke="#070F21" stroke-width="2" stroke-linecap="round" stroke-linejoin="round"/>
</svg>
