<svg width="24" height="24" viewBox="0 0 24 24" fill="none" xmlns="http://www.w3.org/2000/svg">
<path d="M22.5 12.9075L19.7925 4.21498C19.6512 3.75444 19.3658 3.35141 18.9783 3.06519C18.5908 2.77896 18.1217 2.62466 17.64 2.62498H6.39C5.90316 2.61818 5.42725 2.76949 5.03372 3.05618C4.64019 3.34288 4.35027 3.74949 4.2075 4.21498L1.5 12.9075C1.49219 12.9798 1.49219 13.0527 1.5 13.125V19.125C1.5 19.7217 1.73705 20.294 2.15901 20.716C2.58096 21.1379 3.15326 21.375 3.75 21.375H20.25C20.8467 21.375 21.419 21.1379 21.841 20.716C22.2629 20.294 22.5 19.7217 22.5 19.125V13.125C22.5078 13.0527 22.5078 12.9798 22.5 12.9075ZM5.64 4.65748C5.68814 4.49804 5.78799 4.35917 5.92378 4.26275C6.05958 4.16634 6.22361 4.11786 6.39 4.12498H17.64C17.8064 4.11786 17.9704 4.16634 18.1062 4.26275C18.242 4.35917 18.3419 4.49804 18.39 4.65748L20.7375 12.375H15.75C15.5511 12.375 15.3603 12.454 15.2197 12.5946C15.079 12.7353 15 12.9261 15 13.125V14.625C15 14.8239 14.921 15.0147 14.7803 15.1553C14.6397 15.296 14.4489 15.375 14.25 15.375H9.75C9.55109 15.375 9.36032 15.296 9.21967 15.1553C9.07902 15.0147 9 14.8239 9 14.625V13.125C9 12.9261 8.92098 12.7353 8.78033 12.5946C8.63968 12.454 8.44891 12.375 8.25 12.375H3.2625L5.64 4.65748ZM20.25 19.875H3.75C3.55109 19.875 3.36032 19.796 3.21967 19.6553C3.07902 19.5147 3 19.3239 3 19.125V13.875H7.5V14.625C7.5 15.2217 7.73705 15.794 8.15901 16.216C8.58096 16.6379 9.15326 16.875 9.75 16.875H14.25C14.8467 16.875 15.419 16.6379 15.841 16.216C16.2629 15.794 16.5 15.2217 16.5 14.625V13.875H21V19.125C21 19.3239 20.921 19.5147 20.7803 19.6553C20.6397 19.796 20.4489 19.875 20.25 19.875Z" fill="#070F21"/>
</svg>
