<svg width="24" height="24" viewBox="0 0 24 24" fill="none" xmlns="http://www.w3.org/2000/svg">
<path fill-rule="evenodd" clip-rule="evenodd" d="M11.679 1.44598C8.78099 1.44598 6.42899 3.79873 6.42899 6.69598C6.42899 9.59398 8.78099 11.946 11.679 11.946C14.5762 11.946 16.929 9.59398 16.929 6.69598C16.929 3.79873 14.5762 1.44598 11.679 1.44598ZM11.679 2.94598C13.7482 2.94598 15.429 4.62673 15.429 6.69598C15.429 8.76598 13.7482 10.446 11.679 10.446C9.60899 10.446 7.92899 8.76598 7.92899 6.69598C7.92899 4.62673 9.60899 2.94598 11.679 2.94598Z" fill="#070F21"/>
<path fill-rule="evenodd" clip-rule="evenodd" d="M2.67899 20.946H12C12.414 20.946 12.75 21.282 12.75 21.696C12.75 22.11 12.414 22.446 12 22.446H1.92899C1.51424 22.446 1.17899 22.1107 1.17899 21.696C1.17899 21.696 1.17899 21.078 1.17899 20.196C1.17899 16.4685 4.20074 13.446 7.92899 13.446H12C12.414 13.446 12.75 13.782 12.75 14.196C12.75 14.61 12.414 14.946 12 14.946H7.92899C5.02949 14.946 2.67899 17.2965 2.67899 20.196V20.946Z" fill="#070F21"/>
<path fill-rule="evenodd" clip-rule="evenodd" d="M15.75 15H21.9877C22.4017 15 22.7377 14.664 22.7377 14.25C22.7377 13.836 22.4017 13.5 21.9877 13.5H15.75C15.336 13.5 15 13.836 15 14.25C15 14.664 15.336 15 15.75 15Z" fill="#070F21"/>
<path fill-rule="evenodd" clip-rule="evenodd" d="M15.75 18.744H21.9877C22.4017 18.744 22.7377 18.4073 22.7377 17.994C22.7377 17.58 22.4017 17.244 21.9877 17.244H15.75C15.336 17.244 15 17.58 15 17.994C15 18.4073 15.336 18.744 15.75 18.744Z" fill="#070F21"/>
<path fill-rule="evenodd" clip-rule="evenodd" d="M15.75 22.4872H21.9877C22.4017 22.4872 22.7377 22.1512 22.7377 21.7372C22.7377 21.3232 22.4017 20.9872 21.9877 20.9872H15.75C15.336 20.9872 15 21.3232 15 21.7372C15 22.1512 15.336 22.4872 15.75 22.4872Z" fill="#070F21"/>
</svg>
