<svg width="24" height="24" viewBox="0 0 24 24" fill="none" xmlns="http://www.w3.org/2000/svg">
<path d="M14.1969 2C14.3865 1.99985 14.5684 2.07494 14.7027 2.2088L21.79 9.29608C21.8566 9.36257 21.9094 9.44152 21.9454 9.52843C21.9815 9.61533 22 9.70849 22 9.80257C22 9.89665 21.9815 9.9898 21.9454 10.0767C21.9094 10.1636 21.8566 10.2426 21.79 10.3091C21.1028 10.9963 20.2557 11.1502 19.6388 11.1502C19.3847 11.1502 19.1592 11.1252 18.9802 11.0953L14.4939 15.5816C14.6109 16.0588 14.6872 16.5432 14.7218 17.0324C14.7875 18.0371 14.6765 19.4473 13.691 20.4329C13.5567 20.5669 13.3748 20.6423 13.1851 20.6423C12.9954 20.6423 12.8134 20.5669 12.6792 20.4329L8.62844 16.3822L4.07182 20.94C3.79262 21.2192 2.32743 22.231 2.04824 21.9518C1.76904 21.6726 2.78083 20.205 3.06003 19.927L7.61546 15.3716L3.56711 11.3208C3.43305 11.1866 3.35775 11.0047 3.35775 10.815C3.35775 10.6252 3.43305 10.4433 3.56711 10.3091C4.55146 9.32352 5.96176 9.21136 6.96758 9.27818C7.45677 9.31159 7.94238 9.38914 8.41725 9.50727L12.9047 5.02104C12.8673 4.80308 12.8481 4.58238 12.8474 4.36123C12.8474 3.74557 13.0025 2.89724 13.691 2.2088C13.8253 2.07494 14.0072 1.99985 14.1969 2ZM14.3711 5.02343V5.02104V5.02343ZM14.3711 5.02104V5.02343C14.4125 5.14934 14.4181 5.28427 14.3873 5.41319C14.3566 5.54212 14.2906 5.65998 14.1969 5.75363L9.13553 10.8138C9.0414 10.9076 8.92301 10.9733 8.79363 11.0037C8.66424 11.034 8.52896 11.0278 8.40294 10.9856H8.40055L8.38027 10.9808C7.88903 10.8347 7.38333 10.7427 6.87213 10.7064C6.2684 10.6658 5.6754 10.7171 5.18979 10.9211L13.0801 18.8078C13.2817 18.321 13.333 17.7292 13.2925 17.1255C13.256 16.6139 13.164 16.1078 13.018 15.6162L13.0121 15.5983V15.5959C12.9697 15.4699 12.9634 15.3346 12.9937 15.2051C13.0241 15.0757 13.0899 14.9573 13.1839 14.8633L18.2464 9.80197C18.344 9.70375 18.4679 9.63591 18.6032 9.60669C18.7385 9.57747 18.8794 9.58811 19.0088 9.63732L19.146 9.66834C19.2701 9.6922 19.4443 9.71726 19.6388 9.71726C19.8023 9.71726 19.9681 9.70175 20.1292 9.65999L14.3376 3.86966C14.2981 4.03047 14.2788 4.19562 14.2804 4.36123C14.2816 4.58316 14.3114 4.80508 14.3699 5.01985L14.3711 5.02104Z" fill="#070F21"/>
</svg>
