<svg width="10" height="10" viewBox="0 0 10 10" fill="none" xmlns="http://www.w3.org/2000/svg">
<g clip-path="url(#clip0_2_23104)">
<path d="M3.33398 5.20825L4.58398 6.45825L6.66732 3.95825" stroke="#070F21" stroke-width="1.5" stroke-linecap="round" stroke-linejoin="round"/>
<path d="M5.00065 0.833252C3.89558 0.833252 2.83577 1.27224 2.05437 2.05364C1.27297 2.83504 0.833984 3.89485 0.833984 4.99992C0.833984 6.10499 1.27297 7.1648 2.05437 7.9462C2.83577 8.7276 3.89558 9.16659 5.00065 9.16659C6.10572 9.16659 7.16553 8.7276 7.94693 7.9462C8.72833 7.1648 9.16732 6.10499 9.16732 4.99992C9.16732 3.89485 8.72833 2.83504 7.94693 2.05364C7.16553 1.27224 6.10572 0.833252 5.00065 0.833252V0.833252Z" stroke="#070F21" stroke-width="1.5" stroke-linecap="round" stroke-linejoin="round"/>
</g>
<defs>
<clipPath id="clip0_2_23104">
<rect width="10" height="10" fill="white"/>
</clipPath>
</defs>
</svg>
