<svg width="26" height="18" viewBox="0 0 26 18" fill="none" xmlns="http://www.w3.org/2000/svg">
<g clip-path="url(#clip0_2_23063)">
<path d="M23.264 4.44039V16.6765C23.264 17.4091 22.6654 18 21.931 18H1.33653C0.598652 18 0 17.4091 0 16.6765V1.32348C0 0.594355 0.598652 0 1.33653 0H4.87625C5.62109 0 6.33461 0.307545 6.84625 0.846612L8.18627 2.2703C8.69791 2.80937 9.40794 3.11691 10.1528 3.11691H21.931C22.6654 3.11691 23.264 3.71127 23.264 4.44039Z" fill="#070F21"/>
<path d="M20.1798 15.8714H3.08333C2.41506 15.8714 1.87558 15.3357 1.87558 14.6757V3.32768C1.87558 2.66421 2.41506 2.1286 3.08333 2.1286H20.1798C20.8481 2.1286 21.3876 2.66421 21.3876 3.32768V14.6757C21.3876 15.3357 20.8481 15.8714 20.1798 15.8714Z" fill="#C7CCD8"/>
<path d="M26.2672 5.67051L23.6045 16.6523C23.4235 17.3987 22.6787 17.9999 21.9443 17.9999H1.34987C0.61547 17.9999 0.162993 17.3987 0.343982 16.6523L3.00661 5.67051C3.1876 4.92757 3.93243 4.32285 4.66683 4.32285H25.2613C25.9992 4.32285 26.4482 4.92757 26.2672 5.67051Z" fill="#4C566F"/>
</g>
<defs>
<clipPath id="clip0_2_23063">
<rect width="26" height="18" fill="white"/>
</clipPath>
</defs>
</svg>
