<svg width="16" height="16" viewBox="0 0 16 16" fill="none" xmlns="http://www.w3.org/2000/svg">
<path fill-rule="evenodd" clip-rule="evenodd" d="M4.93297 4.26667H4.86823C4.31071 4.26658 3.95394 4.26653 3.64602 4.32532C2.38704 4.56574 1.38497 5.51522 1.12864 6.75236C1.06612 7.05408 1.06619 7.40264 1.06629 7.93267L1.0663 8L1.06629 8.06733C1.06619 8.59737 1.06612 8.94592 1.12864 9.24764C1.38497 10.4848 2.38704 11.4342 3.64602 11.6747C3.95395 11.7334 4.31072 11.7334 4.86824 11.7333H4.93297H5.8663C6.16085 11.7333 6.39963 11.4946 6.39963 11.2C6.39963 10.9055 6.16085 10.6667 5.8663 10.6667H4.93297C4.28884 10.6667 4.04162 10.6643 3.8461 10.6269C2.9894 10.4634 2.33762 9.82514 2.17312 9.03122C2.13576 8.85096 2.13297 8.62134 2.13297 8C2.13297 7.37868 2.13576 7.14906 2.17312 6.96878C2.33762 6.17487 2.9894 5.53665 3.8461 5.37306C4.04162 5.33572 4.28884 5.33334 4.93297 5.33334H5.8663C6.16085 5.33334 6.39963 5.09455 6.39963 4.8C6.39963 4.50545 6.16085 4.26667 5.8663 4.26667H4.93297ZM11.0663 5.33334C11.7105 5.33334 11.9577 5.33572 12.1532 5.37306C13.0099 5.53665 13.6617 6.17487 13.8262 6.96878C13.8635 7.14906 13.8663 7.37868 13.8663 8C13.8663 8.62134 13.8635 8.85096 13.8262 9.03122C13.6617 9.82514 13.0099 10.4634 12.1532 10.6269C11.9577 10.6643 11.7105 10.6667 11.0663 10.6667H10.133C9.83842 10.6667 9.59963 10.9055 9.59963 11.2C9.59963 11.4946 9.83842 11.7333 10.133 11.7333H11.0663H11.131C11.6886 11.7334 12.0453 11.7334 12.3532 11.6747C13.6122 11.4342 14.6143 10.4848 14.8707 9.24764C14.9332 8.94592 14.9331 8.59738 14.933 8.06734V8V7.93266C14.9331 7.40264 14.9332 7.05408 14.8707 6.75236C14.6143 5.51522 13.6122 4.56574 12.3532 4.32532C12.0453 4.26653 11.6886 4.26658 11.131 4.26667H11.0663H10.133C9.83842 4.26667 9.59963 4.50545 9.59963 4.8C9.59963 5.09455 9.83842 5.33334 10.133 5.33334H11.0663ZM5.33368 7.46666C5.03913 7.46666 4.80035 7.70544 4.80035 7.99999C4.80035 8.29454 5.03913 8.53332 5.33368 8.53332H10.667C10.9615 8.53332 11.2004 8.29454 11.2004 7.99999C11.2004 7.70544 10.9615 7.46666 10.667 7.46666H5.33368Z" fill="#070F21"/>
</svg>
