<svg width="15" height="15" viewBox="0 0 15 15" fill="none" xmlns="http://www.w3.org/2000/svg">
<path fill-rule="evenodd" clip-rule="evenodd" d="M4.49998 0C4.77612 0 4.99998 0.223857 4.99998 0.499998V2.49999C4.99998 2.77614 4.77612 2.99999 4.49998 2.99999C4.22384 2.99999 3.99998 2.77614 3.99998 2.49999V0.499998C3.99998 0.223857 4.22384 0 4.49998 0ZM0.646156 0.646481C0.841418 0.451219 1.158 0.451219 1.35326 0.646481L2.85325 2.14647C3.04851 2.34174 3.04851 2.65831 2.85325 2.85358C2.658 3.04884 2.34141 3.04884 2.14615 2.85358L0.646157 1.35358C0.450895 1.15832 0.450895 0.841742 0.646156 0.646481ZM0 4.49998C0 4.22384 0.223856 3.99998 0.499998 3.99998H2.49999C2.77613 3.99998 2.99998 4.22384 2.99998 4.49998C2.99998 4.77613 2.77613 4.99998 2.49999 4.99998H0.499998C0.223856 4.99998 0 4.77613 0 4.49998ZM12 10.5C12 10.2238 12.2238 9.99996 12.5 9.99996H14.4999C14.776 9.99996 14.9999 10.2238 14.9999 10.5C14.9999 10.7761 14.776 11 14.4999 11H12.5C12.2238 11 12 10.7761 12 10.5ZM10.5 12C10.7761 12 11 12.2238 11 12.4999V14.4999C11 14.776 10.7761 14.9999 10.5 14.9999C10.2239 14.9999 9.99996 14.776 9.99996 14.4999V12.4999C9.99996 12.2238 10.2239 12 10.5 12ZM12.1461 12.1464C12.3414 11.9512 12.6579 11.9512 12.8532 12.1464L14.3532 13.6464C14.5484 13.8417 14.5484 14.1582 14.3532 14.3535C14.1579 14.5487 13.8413 14.5487 13.6461 14.3535L12.1461 12.8535C11.9509 12.6583 11.9509 12.3417 12.1461 12.1464ZM7.7646 3.69944C8.1916 3.27243 8.35707 3.11013 8.51143 3.00527C9.18778 2.54581 10.043 2.53681 10.6783 2.95406C10.8226 3.0488 10.9766 3.19916 11.3885 3.61105C11.8004 4.02294 11.9508 4.17701 12.0455 4.32127C12.4627 4.95661 12.4538 5.81177 11.9943 6.48813C11.8894 6.64249 11.7271 6.80796 11.3001 7.23496L10.6814 7.85367C10.4862 8.04893 10.4862 8.36552 10.6814 8.56078C10.8767 8.75603 11.1933 8.75603 11.3885 8.56078L12.0072 7.94206L12.0501 7.89916C12.4198 7.52962 12.6563 7.29315 12.8215 7.05004C13.4967 6.05608 13.5315 4.76238 12.8814 3.77234C12.7228 3.53089 12.4917 3.29987 12.1403 2.94858L12.0956 2.90395L12.051 2.8593C11.6997 2.50786 11.4687 2.27676 11.2272 2.11819C10.2372 1.468 8.94348 1.50286 7.9495 2.17809C7.70641 2.34323 7.46994 2.57977 7.10041 2.94941V2.94942L7.0575 2.99233L6.43878 3.61105C6.24352 3.80631 6.24352 4.12289 6.43878 4.31815C6.63404 4.51341 6.95062 4.51341 7.14588 4.31815L7.7646 3.69944ZM2.99165 7.05819L2.94873 7.10109C2.57909 7.47062 2.34255 7.7071 2.1774 7.95019C1.50218 8.94416 1.46732 10.2379 2.11751 11.2279C2.27607 11.4694 2.50718 11.7004 2.8586 12.0517H2.85862L2.90326 12.0963L2.94789 12.1409L2.94791 12.141C3.2992 12.4924 3.5302 12.7235 3.77166 12.882C4.7617 13.5322 6.05539 13.4974 7.04937 12.8221C7.29246 12.657 7.52894 12.4205 7.89847 12.0508L7.94137 12.0079L8.56009 11.3892C8.75536 11.1939 8.75536 10.8774 8.56009 10.6821C8.36483 10.4869 8.04825 10.4869 7.85299 10.6821L7.23427 11.3008C6.80728 11.7278 6.6418 11.8901 6.48744 11.995C5.81109 12.4544 4.95593 12.4634 4.32059 12.0462C4.17632 11.9514 4.02225 11.8011 3.61036 11.3892C3.19848 10.9773 3.04811 10.8233 2.95337 10.679C2.53613 10.0437 2.54513 9.18847 3.00458 8.51212C3.10946 8.35775 3.27176 8.19228 3.69875 7.76529L4.31747 7.14657C4.51273 6.9513 4.51273 6.63473 4.31747 6.43946C4.12221 6.2442 3.80563 6.2442 3.61036 6.43946L2.99165 7.05819Z" fill="#070F21"/>
</svg>
