<svg width="24" height="24" viewBox="0 0 24 24" fill="none" xmlns="http://www.w3.org/2000/svg">
<path d="M6.99689 22.0001H3.99689C3.46645 22.0001 2.95775 21.7894 2.58267 21.4143C2.2076 21.0393 1.99689 20.5306 1.99689 20.0001V13.0001C1.99689 12.4697 2.2076 11.961 2.58267 11.5859C2.95775 11.2108 3.46645 11.0001 3.99689 11.0001H6.99689M13.9969 9.00012V5.00012C13.9969 4.20447 13.6808 3.44141 13.1182 2.8788C12.5556 2.31619 11.7925 2.00012 10.9969 2.00012L6.99689 11.0001V22.0001H18.2769C18.7592 22.0056 19.2273 21.8365 19.5948 21.5241C19.9623 21.2117 20.2046 20.777 20.2769 20.3001L21.6569 11.3001C21.7004 11.0135 21.6811 10.7208 21.6002 10.4424C21.5194 10.1639 21.379 9.90642 21.1887 9.68764C20.9985 9.46886 20.763 9.29405 20.4985 9.17534C20.234 9.05663 19.9468 8.99684 19.6569 9.00012H13.9969Z" stroke="#070F21" stroke-width="1.5" stroke-linecap="round" stroke-linejoin="round"/>
</svg>
