<svg width="24" height="24" viewBox="0 0 24 24" fill="none" xmlns="http://www.w3.org/2000/svg">
<path d="M21.9993 3.61244C21.9993 2.16869 20.6916 0.999939 19.0763 0.999939H4.92241C3.30702 0.999939 1.99933 2.16869 1.99933 3.61244V20.3874C1.99933 21.8312 3.30702 22.9999 4.92241 22.9999H19.0763C20.6916 22.9999 21.9993 21.8312 21.9993 20.3874V3.61244ZM20.4609 20.3874C20.4609 21.0749 19.8455 21.6249 19.0763 21.6249H4.92241C4.15317 21.6249 3.53779 21.0749 3.53779 20.3874V3.61244C3.53779 2.92494 4.15317 2.37494 4.92241 2.37494H19.0763C19.8455 2.37494 20.4609 2.92494 20.4609 3.61244V20.3874Z" fill="#070F21"/>
<path d="M17.6478 5.99994H6.35365C5.93012 5.99994 5.64777 6.28229 5.64777 6.70582C5.64777 7.12935 5.93012 7.4117 6.35365 7.4117H17.6478C18.0713 7.4117 18.3536 7.12935 18.3536 6.70582C18.3536 6.28229 18.0713 5.99994 17.6478 5.99994Z" fill="#070F21"/>
<path d="M17.6478 9.41171H6.35365C5.93012 9.41171 5.64777 9.69407 5.64777 10.1176C5.64777 10.5411 5.93012 10.8235 6.35365 10.8235H17.6478C18.0713 10.8235 18.3536 10.5411 18.3536 10.1176C18.3536 9.69407 18.0713 9.41171 17.6478 9.41171Z" fill="#070F21"/>
<path d="M17.6478 12.8235H6.35365C5.93012 12.8235 5.64777 13.1058 5.64777 13.5293C5.64777 13.9529 5.93012 14.2352 6.35365 14.2352H17.6478C18.0713 14.2352 18.3536 13.9529 18.3536 13.5293C18.3536 13.1058 18.0713 12.8235 17.6478 12.8235Z" fill="#070F21"/>
<path d="M17.6478 16.2352H6.35365C5.93012 16.2352 5.64777 16.5176 5.64777 16.9411C5.64777 17.3646 5.93012 17.647 6.35365 17.647H17.6478C18.0713 17.647 18.3536 17.3646 18.3536 16.9411C18.3536 16.5176 18.0713 16.2352 17.6478 16.2352Z" fill="#070F21"/>
</svg>
