<svg width="14" height="14" viewBox="0 0 14 14" fill="none" xmlns="http://www.w3.org/2000/svg">
<g opacity="0.5">
<path d="M3.4114 10.0399L4.23791 9.21163L4.23803 9.21151C4.33855 9.11111 4.47484 9.05476 4.61691 9.05484C4.75898 9.05492 4.8952 9.11144 4.9956 9.21196C5.096 9.31248 5.15236 9.44877 5.15228 9.59084C5.15219 9.73291 5.09567 9.86913 4.99516 9.96953M3.4114 10.0399L4.92449 9.89878M3.4114 10.0399V2.62757C3.4114 2.48563 3.35502 2.3495 3.25465 2.24913C3.15428 2.14877 3.01816 2.09238 2.87622 2.09238C2.73428 2.09238 2.59815 2.14877 2.49778 2.24913C2.39742 2.3495 2.34103 2.48563 2.34103 2.62757V10.0395L1.51447 9.21231L1.51445 9.21228C1.46468 9.16251 1.4056 9.12304 1.34057 9.0961C1.27555 9.06917 1.20586 9.05531 1.13548 9.05531C1.0651 9.05531 0.995406 9.06917 0.930384 9.0961C0.86536 9.12304 0.806279 9.16251 0.756512 9.21228C0.706745 9.26205 0.667268 9.32113 0.640335 9.38615C0.613401 9.45118 0.599539 9.52087 0.599539 9.59125C0.599539 9.66163 0.613402 9.73132 0.640335 9.79634C0.667269 9.86137 0.706746 9.92045 0.756512 9.97021L0.756542 9.97024L2.49728 11.7095L2.49716 11.7097L2.50153 11.7135L2.50638 11.7179L3.4114 10.0399ZM4.99516 9.96953L4.92449 9.89878M4.99516 9.96953L4.9952 9.96949L4.92449 9.89878M4.99516 9.96953L3.25481 11.7099L3.18375 11.6395M4.92449 9.89878L3.18375 11.6395M3.18375 11.6395L3.25446 11.7102L3.25452 11.7102L3.18375 11.6395ZM6.58807 11.8257L6.62634 11.7333L6.58807 11.8257C6.65301 11.8526 6.7226 11.8664 6.79288 11.8664H7.66325C7.73353 11.8664 7.80312 11.8526 7.86806 11.8257L7.82979 11.7333L7.86806 11.8257C7.93299 11.7988 7.99199 11.7594 8.04168 11.7097C8.09138 11.66 8.1308 11.601 8.1577 11.5361C8.18459 11.4711 8.19843 11.4015 8.19843 11.3313C8.19843 11.261 8.18459 11.1914 8.1577 11.1265C8.1308 11.0615 8.09138 11.0025 8.04168 10.9528C7.99199 10.9031 7.93299 10.8637 7.86806 10.8368L7.82979 10.9292L7.86806 10.8368C7.80312 10.8099 7.73353 10.7961 7.66325 10.7961H6.79288C6.7226 10.7961 6.65301 10.8099 6.58807 10.8368L6.62634 10.9292L6.58807 10.8368C6.52314 10.8637 6.46414 10.9031 6.41445 10.9528C6.36475 11.0025 6.32533 11.0615 6.29843 11.1265C6.27154 11.1914 6.2577 11.261 6.2577 11.3313C6.2577 11.4015 6.27154 11.4711 6.29843 11.5361C6.32533 11.601 6.36475 11.66 6.41445 11.7097C6.46414 11.7594 6.52314 11.7988 6.58807 11.8257ZM6.41445 3.1195C6.31408 3.21987 6.2577 3.356 6.2577 3.49794C6.2577 3.63988 6.31408 3.776 6.41445 3.87637C6.51481 3.97674 6.65094 4.03312 6.79288 4.03312H12.8855C13.0274 4.03312 13.1635 3.97674 13.2639 3.87637C13.3643 3.776 13.4206 3.63988 13.4206 3.49794C13.4206 3.356 13.3643 3.21987 13.2639 3.1195C13.1635 3.01914 13.0274 2.96275 12.8855 2.96275H6.79288C6.65094 2.96275 6.51481 3.01914 6.41445 3.1195ZM6.79288 5.57386C6.65094 5.57386 6.51481 5.63025 6.41445 5.73061C6.31408 5.83098 6.2577 5.96711 6.2577 6.10905C6.2577 6.25099 6.31408 6.38711 6.41445 6.48748C6.51481 6.58784 6.65094 6.64423 6.79288 6.64423H11.1447C11.2867 6.64423 11.4228 6.58784 11.5232 6.48748C11.6235 6.38711 11.6799 6.25099 11.6799 6.10905C11.6799 5.96711 11.6235 5.83098 11.5232 5.73061C11.4228 5.63025 11.2867 5.57386 11.1447 5.57386H6.79288ZM6.79288 8.18497C6.65094 8.18497 6.51481 8.24135 6.41445 8.34172C6.31408 8.44209 6.2577 8.57821 6.2577 8.72015C6.2577 8.86209 6.31408 8.99822 6.41445 9.09859C6.51481 9.19895 6.65094 9.25534 6.79288 9.25534H9.40399C9.54593 9.25534 9.68205 9.19895 9.78242 9.09859C9.88279 8.99822 9.93917 8.86209 9.93917 8.72015C9.93917 8.57821 9.88279 8.44209 9.78242 8.34172C9.68205 8.24135 9.54593 8.18497 9.40399 8.18497H6.79288Z" fill="#070F21" stroke="#070F21" stroke-width="0.2"/>
</g>
</svg>
