<svg width="24" height="24" viewBox="0 0 24 24" fill="none" xmlns="http://www.w3.org/2000/svg">
<g clip-path="url(#clip0_2_23181)">
<path d="M22.1542 13.5999V18.0211H17.5261V17.7141C17.5261 15.4432 16.2021 13.4807 14.2983 12.5892C15.3061 11.9107 16.0096 10.8001 16.1542 9.51877C16.6816 9.29281 17.2416 9.17817 17.8242 9.17817C20.2087 9.17817 22.1542 11.159 22.1542 13.5999ZM17.8243 0.649744C15.4474 0.649744 13.5381 2.67882 13.6464 5.10869C12.597 4.64896 11.4036 4.6488 10.3538 5.10867C10.4621 2.68373 8.55741 0.649744 6.17589 0.649744C3.86726 0.649744 1.9939 2.56542 1.9939 4.91396C1.9939 6.4 2.74335 7.71122 3.87787 8.47503C1.97391 9.36644 0.649988 11.3288 0.649988 13.5999V18.6283C0.649988 18.9606 0.914635 19.2356 1.24805 19.2356H6.47395V22.7425C6.47395 23.075 6.73911 23.3497 7.07201 23.3497H16.928C17.2613 23.3497 17.5261 23.0749 17.5261 22.7425V19.2356H22.7524C23.0855 19.2356 23.35 18.9606 23.35 18.6283V13.5999C23.35 11.3288 22.0261 9.36644 20.1226 8.47503C21.2568 7.71121 22.0062 6.39996 22.0062 4.91396C22.0062 2.56543 20.1334 0.649744 17.8243 0.649744ZM17.8242 1.86391C19.4679 1.86391 20.8099 3.2294 20.8099 4.91391C20.8099 6.59861 19.4678 7.9641 17.8242 7.9641C17.0244 7.9641 16.2788 7.64717 15.7142 7.06957C15.5489 6.74488 15.3439 6.4451 15.1063 6.17589C14.9291 5.77879 14.8379 5.35506 14.8379 4.91391C14.8379 3.22948 16.1805 1.86391 17.8242 1.86391ZM14.9843 9.1012C14.931 10.8095 13.5783 12.0784 12.0002 12.0784C10.3508 12.0784 9.01398 10.705 9.01398 9.02818C9.01398 7.34393 10.3565 5.9784 12.0002 5.9784C13.6584 5.9784 15.0249 7.37385 14.9843 9.1012ZM3.18997 4.91396C3.18997 3.22947 4.53252 1.86395 6.17576 1.86395C7.8195 1.86395 9.16199 3.22948 9.16199 4.91396C9.16199 5.35522 9.07125 5.77892 8.89369 6.17588C8.65606 6.44509 8.45096 6.74489 8.28572 7.06963C7.72111 7.64723 6.97596 7.96415 6.17576 7.96415C4.53257 7.96415 3.18997 6.59859 3.18997 4.91396ZM1.8457 18.0211V13.5999C1.8457 11.159 3.79125 9.17817 6.17576 9.17817C6.75882 9.17817 7.31845 9.29281 7.84578 9.51876C7.99035 10.8001 8.69391 11.9107 9.7017 12.5892C7.79779 13.4807 6.47391 15.4432 6.47391 17.7141V18.0211H1.8457ZM16.3304 22.1356H7.67011V17.7141C7.67011 15.2733 9.61565 13.2927 12.0002 13.2927C14.3848 13.2927 16.3304 15.2734 16.3304 17.7141V22.1356Z" fill="#070F21" stroke="#070F21" stroke-width="0.3"/>
</g>
<defs>
<clipPath id="clip0_2_23181">
<rect width="24" height="24" fill="white"/>
</clipPath>
</defs>
</svg>
