<svg width="36" height="36" viewBox="0 0 36 36" fill="none" xmlns="http://www.w3.org/2000/svg">
<path d="M19.62 30.735C17.5291 30.7201 15.472 30.2058 13.62 29.235C13.3624 29.0947 13.1687 28.8606 13.0793 28.5812C12.9899 28.3018 13.0117 27.9988 13.14 27.735C13.2775 27.4746 13.5116 27.2785 13.792 27.1887C14.0724 27.099 14.3769 27.1228 14.64 27.255C16.8013 28.3664 19.2699 28.7303 21.66 28.29C23.5715 27.9128 25.3465 27.029 26.7995 25.731C28.2525 24.433 29.3301 22.7685 29.9197 20.9115C30.5092 19.0545 30.5891 17.0732 30.1509 15.1748C29.7126 13.2764 28.7725 11.5306 27.4286 10.1199C26.0848 8.70917 24.3867 7.68539 22.5118 7.15557C20.6368 6.62576 18.654 6.60937 16.7706 7.10812C14.8872 7.60687 13.1724 8.60244 11.8054 9.99074C10.4384 11.379 9.46953 13.1091 9 15C8.32473 17.8058 8.78285 20.7647 10.275 23.235C10.416 23.4856 10.4558 23.7807 10.386 24.0596C10.3163 24.3386 10.1424 24.5803 9.9 24.735C9.64941 24.876 9.35433 24.9158 9.07537 24.846C8.79641 24.7763 8.55474 24.6024 8.4 24.36C7.30451 22.5487 6.66446 20.4987 6.5347 18.3859C6.40494 16.273 6.78933 14.1602 7.65494 12.2284C8.52055 10.2966 9.84158 8.60351 11.5048 7.29409C13.1681 5.98466 15.124 5.09797 17.205 4.70999C20.6283 4.07148 24.165 4.81902 27.0371 6.78815C29.9092 8.75728 31.8815 11.7867 32.52 15.21C33.1585 18.6333 32.411 22.17 30.4418 25.0421C28.4727 27.9142 25.4433 29.8865 22.02 30.525C21.2273 30.6618 20.4245 30.7321 19.62 30.735Z" fill="#070F21"/>
<path d="M7.99499 31.5C7.63537 31.5086 7.27943 31.426 6.96037 31.2599C6.6413 31.0938 6.36949 30.8496 6.1703 30.5501C5.97112 30.2505 5.85103 29.9054 5.82125 29.547C5.79147 29.1885 5.85296 28.8283 5.99999 28.5L8.29499 23.37C8.35336 23.2319 8.43911 23.107 8.54708 23.0029C8.65504 22.8988 8.78298 22.8177 8.92317 22.7644C9.06335 22.7112 9.21288 22.6868 9.36272 22.693C9.51256 22.6991 9.65961 22.7355 9.79499 22.8C10.0685 22.9244 10.2819 23.1518 10.3886 23.4327C10.4953 23.7136 10.4869 24.0253 10.365 24.3L8.21999 29.175L13.725 27.21C13.8666 27.1479 14.0195 27.1156 14.1741 27.1152C14.3287 27.1147 14.4818 27.1462 14.6237 27.2076C14.7656 27.269 14.8934 27.359 14.999 27.4719C15.1046 27.5849 15.1857 27.7184 15.2374 27.8642C15.2891 28.0099 15.3102 28.1647 15.2993 28.319C15.2885 28.4732 15.246 28.6236 15.1744 28.7607C15.1029 28.8978 15.0039 29.0186 14.8835 29.1157C14.7632 29.2128 14.6241 29.2841 14.475 29.325L8.69999 31.38C8.47431 31.4628 8.23535 31.5035 7.99499 31.5ZM24 16.125H15C14.7016 16.125 14.4155 16.0065 14.2045 15.7955C13.9935 15.5845 13.875 15.2984 13.875 15C13.875 14.7016 13.9935 14.4155 14.2045 14.2045C14.4155 13.9935 14.7016 13.875 15 13.875H24C24.2984 13.875 24.5845 13.9935 24.7955 14.2045C25.0065 14.4155 25.125 14.7016 25.125 15C25.125 15.2984 25.0065 15.5845 24.7955 15.7955C24.5845 16.0065 24.2984 16.125 24 16.125ZM24 22.125H15C14.7016 22.125 14.4155 22.0065 14.2045 21.7955C13.9935 21.5845 13.875 21.2984 13.875 21C13.875 20.7016 13.9935 20.4155 14.2045 20.2045C14.4155 19.9935 14.7016 19.875 15 19.875H24C24.2984 19.875 24.5845 19.9935 24.7955 20.2045C25.0065 20.4155 25.125 20.7016 25.125 21C25.125 21.2984 25.0065 21.5845 24.7955 21.7955C24.5845 22.0065 24.2984 22.125 24 22.125Z" fill="#070F21"/>
</svg>
