<svg width="24" height="24" viewBox="0 0 24 24" fill="none" xmlns="http://www.w3.org/2000/svg">
<path d="M7 20C7 18.343 9.239 17 12 17C14.761 17 17 18.343 17 20" stroke="#070F21" stroke-width="1.5" stroke-linecap="round" stroke-linejoin="round"/>
<path d="M18 14.25C19.766 14.713 21 15.77 21 17" stroke="#070F21" stroke-width="1.5" stroke-linecap="round" stroke-linejoin="round"/>
<path d="M6 14.25C4.234 14.713 3 15.77 3 17" stroke="#070F21" stroke-width="1.5" stroke-linecap="round" stroke-linejoin="round"/>
<path d="M12 14C12.394 14 12.7841 13.9224 13.1481 13.7716C13.512 13.6209 13.8427 13.3999 14.1213 13.1213C14.3999 12.8427 14.6209 12.512 14.7716 12.1481C14.9224 11.7841 15 11.394 15 11C15 10.606 14.9224 10.2159 14.7716 9.85195C14.6209 9.48797 14.3999 9.15726 14.1213 8.87868C13.8427 8.6001 13.512 8.37913 13.1481 8.22836C12.7841 8.0776 12.394 8 12 8C11.2044 8 10.4413 8.31607 9.87868 8.87868C9.31607 9.44129 9 10.2044 9 11C9 11.7956 9.31607 12.5587 9.87868 13.1213C10.4413 13.6839 11.2044 14 12 14V14Z" stroke="#070F21" stroke-width="1.5" stroke-linecap="round" stroke-linejoin="round"/>
<path d="M18 10.236C18.2963 9.97409 18.5378 9.65619 18.7108 9.30059C18.8838 8.945 18.9847 8.55871 19.0079 8.16396C19.031 7.7692 18.9759 7.37377 18.8456 7.00039C18.7154 6.62702 18.5127 6.28307 18.249 5.98834C17.9854 5.6936 17.6661 5.4539 17.3095 5.283C16.9529 5.11211 16.5661 5.01339 16.1712 4.99255C15.7763 4.9717 15.3812 5.02912 15.0086 5.16151C14.636 5.29391 14.2932 5.49866 14 5.764" stroke="#070F21" stroke-width="1.5" stroke-linecap="round" stroke-linejoin="round"/>
<path d="M6.00001 10.236C5.41231 9.70415 5.05897 8.96133 5.01718 8.16981C4.97539 7.37828 5.24854 6.60238 5.77697 6.0116C6.30539 5.42082 7.04615 5.06317 7.83742 5.01677C8.62869 4.97038 9.40616 5.23902 10 5.76401" stroke="#070F21" stroke-width="1.5" stroke-linecap="round" stroke-linejoin="round"/>
</svg>
