<svg width="22" height="22" viewBox="0 0 22 22" fill="none" xmlns="http://www.w3.org/2000/svg">
<path d="M11 1.83331C8.81196 1.83331 6.71354 2.12304 5.16637 2.63877C3.61919 3.15449 2.75 3.85397 2.75 4.58331C2.75 5.31266 3.61919 6.01213 5.16637 6.52786C6.71354 7.04358 8.81196 7.33331 11 7.33331C13.188 7.33331 15.2865 7.04358 16.8336 6.52786C18.3808 6.01213 19.25 5.31266 19.25 4.58331C19.25 3.85397 18.3808 3.15449 16.8336 2.63877C15.2865 2.12304 13.188 1.83331 11 1.83331Z" stroke="#070F21" stroke-width="1.5" stroke-linecap="round" stroke-linejoin="round"/>
<path d="M19.25 11C19.25 12.5217 15.5833 13.75 11 13.75C6.41667 13.75 2.75 12.5217 2.75 11" stroke="#070F21" stroke-width="1.5" stroke-linecap="round" stroke-linejoin="round"/>
<path d="M2.75 4.58331V17.4166C2.75 18.9383 6.41667 20.1666 11 20.1666C15.5833 20.1666 19.25 18.9383 19.25 17.4166V4.58331" stroke="#070F21" stroke-width="1.5" stroke-linecap="round" stroke-linejoin="round"/>
</svg>
