<svg width="24" height="24" viewBox="0 0 24 24" fill="none" xmlns="http://www.w3.org/2000/svg">
<path d="M22.4218 11.3824L16.8718 5.5024C16.5307 5.14061 15.9613 5.12411 15.5995 5.4655C15.2383 5.80662 15.2215 6.37629 15.5629 6.73779L20.53 11.9998L15.5629 17.2625C15.2215 17.624 15.2383 18.1934 15.5995 18.5348C15.7735 18.6989 15.9958 18.7801 16.2172 18.7801C16.4563 18.7801 16.6951 18.6854 16.8718 18.4984L22.4219 12.6181C22.7491 12.271 22.7491 11.7292 22.4218 11.3824Z" fill="#070F21"/>
<path d="M8.43803 17.2624L3.47122 12L8.43803 6.7377C8.77914 6.3762 8.76264 5.80648 8.40114 5.46542C8.03992 5.1243 7.46992 5.1408 7.12885 5.50231L1.57882 11.3823C1.25154 11.7291 1.25154 12.2712 1.57882 12.6181L7.12913 18.4984C7.30613 18.6859 7.54464 18.7804 7.78375 18.7804C8.00514 18.7804 8.22747 18.6988 8.40114 18.5347C8.76297 18.1936 8.77914 17.6239 8.43803 17.2624Z" fill="#070F21"/>
</svg>
