<svg width="24" height="24" viewBox="0 0 24 24" fill="none" xmlns="http://www.w3.org/2000/svg">
<path d="M15.9236 5.32642C15.6551 5.05786 15.22 5.05786 14.9515 5.32642L1.20142 19.0765C0.932859 19.345 0.932859 19.7801 1.20142 20.0486L3.95144 22.7986C4.0857 22.9329 4.26162 23.0001 4.43754 23.0001C4.61346 23.0001 4.78934 22.9329 4.92365 22.7986L18.6736 9.0486C18.9422 8.78004 18.9422 8.34501 18.6736 8.07644L15.9236 5.32642ZM4.4375 21.3404L2.65969 19.5626L12 10.2222L13.7779 12.0001C13.7779 12 4.4375 21.3404 4.4375 21.3404ZM14.75 11.0279L12.9722 9.25001L15.4375 6.78469L17.2154 8.56254L14.75 11.0279Z" fill="#070F21"/>
<path d="M10.625 6.50003C11.3125 5.12505 12 4.43753 13.375 3.75002C12 3.0625 11.3125 2.37503 10.625 1C9.9375 2.37499 9.24994 3.0625 7.875 3.75002C9.25003 4.43753 9.9375 5.12505 10.625 6.50003Z" fill="#070F21"/>
<path d="M21.625 10.625C21.2812 11.3125 20.9374 11.6563 20.25 12C20.9375 12.3437 21.2812 12.6875 21.625 13.375C21.9687 12.6875 22.3125 12.3437 23 12C22.3125 11.6563 21.9688 11.3125 21.625 10.625Z" fill="#070F21"/>
<path d="M21.625 3.0625C20.5937 2.54685 20.0781 2.03125 19.5625 1C19.0468 2.03125 18.5311 2.5469 17.5 3.0625C18.5312 3.57815 19.0469 4.09375 19.5625 5.125C20.0781 4.09375 20.5937 3.5781 21.625 3.0625Z" fill="#070F21"/>
</svg>
