<svg width="24" height="24" viewBox="0 0 24 24" fill="none" xmlns="http://www.w3.org/2000/svg">
<path d="M12 0.999939C5.92484 0.999939 0.999954 5.92482 0.999954 12C0.999954 18.0751 5.92484 23 12 23C18.0751 23 23 18.0751 23 12C22.9936 5.92754 18.0725 1.00643 12 0.999939ZM5.89031 4.80904C7.59643 3.3611 9.7623 2.56786 12 2.5714C14.2285 2.57071 16.3845 3.36312 18.0822 4.80678L4.80362 18.0854C1.43755 14.1191 1.92408 8.17512 5.89031 4.80904ZM18.1097 19.1909C16.4036 20.6389 14.2377 21.4321 12 21.4286C9.77151 21.4293 7.61549 20.6369 5.91779 19.1932L19.1964 5.91455C22.5625 9.88083 22.0759 15.8249 18.1097 19.1909Z" fill="#070F21"/>
</svg>
