<svg width="24" height="24" viewBox="0 0 24 24" fill="none" xmlns="http://www.w3.org/2000/svg">
<path d="M12 2C9.34784 2 6.8043 3.05357 4.92893 4.92893C3.05357 6.8043 2 9.34784 2 12C2 14.6522 3.05357 17.1957 4.92893 19.0711C6.8043 20.9464 9.34784 22 12 22C14.6522 22 17.1957 20.9464 19.0711 19.0711C20.9464 17.1957 22 14.6522 22 12C22 9.34784 20.9464 6.8043 19.0711 4.92893C17.1957 3.05357 14.6522 2 12 2V2Z" stroke="#070F21" stroke-width="2" stroke-linecap="round"/>
<path d="M12 15.5V16" stroke="#070F21" stroke-width="2" stroke-linecap="round"/>
<path d="M10 9.484C10.5 8.494 11 8 12 8C13.246 8 14 8.989 14 9.978C14 10.967 13.5 11.011 12 12V13" stroke="#070F21" stroke-width="2" stroke-linecap="round"/>
</svg>
