<svg width="24" height="24" viewBox="0 0 24 24" fill="none" xmlns="http://www.w3.org/2000/svg">
<path d="M21.257 10.962C21.731 11.582 21.731 12.419 21.257 13.038C19.764 14.987 16.182 19 12 19C7.81801 19 4.23601 14.987 2.74301 13.038C2.51239 12.7411 2.38721 12.3759 2.38721 12C2.38721 11.6241 2.51239 11.2589 2.74301 10.962C4.23601 9.013 7.81801 5 12 5C16.182 5 19.764 9.013 21.257 10.962V10.962Z" stroke="#070F21" stroke-width="1.5" stroke-linecap="round" stroke-linejoin="round"/>
<path d="M12 9C11.2044 9 10.4413 9.31607 9.87868 9.87868C9.31607 10.4413 9 11.2044 9 12C9 12.7956 9.31607 13.5587 9.87868 14.1213C10.4413 14.6839 11.2044 15 12 15C12.7956 15 13.5587 14.6839 14.1213 14.1213C14.6839 13.5587 15 12.7956 15 12C15 11.2044 14.6839 10.4413 14.1213 9.87868C13.5587 9.31607 12.7956 9 12 9Z" stroke="#070F21" stroke-width="1.5" stroke-linecap="round" stroke-linejoin="round"/>
</svg>
