<svg width="17" height="24" viewBox="0 0 17 24" fill="none" xmlns="http://www.w3.org/2000/svg">
<path fill-rule="evenodd" clip-rule="evenodd" d="M4.99998 13.6C5.37128 13.6 5.72737 13.7475 5.98992 14.0101C6.25248 14.2726 6.39998 14.6287 6.39998 15C6.39998 15.3713 6.25248 15.7274 5.98992 15.99C5.72737 16.2525 5.37128 16.4 4.99998 16.4C4.62867 16.4 4.27258 16.2525 4.01003 15.99C3.74748 15.7274 3.59998 15.3713 3.59998 15C3.59998 14.6287 3.74748 14.2726 4.01003 14.0101C4.27258 13.7475 4.62867 13.6 4.99998 13.6Z" fill="#070F21"/>
<path fill-rule="evenodd" clip-rule="evenodd" d="M10.6004 13.6C10.9717 13.6 11.3278 13.7475 11.5903 14.0101C11.8529 14.2726 12.0004 14.6287 12.0004 15C12.0004 15.3713 11.8529 15.7274 11.5903 15.99C11.3278 16.2525 10.9717 16.4 10.6004 16.4C10.2291 16.4 9.87298 16.2525 9.61043 15.99C9.34788 15.7274 9.20038 15.3713 9.20038 15C9.20038 14.6287 9.34788 14.2726 9.61043 14.0101C9.87298 13.7475 10.2291 13.6 10.6004 13.6Z" fill="#070F21"/>
<path fill-rule="evenodd" clip-rule="evenodd" d="M10.6004 2.39999C10.9717 2.39999 11.3278 2.54749 11.5903 2.81004C11.8529 3.0726 12.0004 3.42869 12.0004 3.79999C12.0004 4.1713 11.8529 4.52739 11.5903 4.78994C11.3278 5.05249 10.9717 5.19999 10.6004 5.19999C10.2291 5.19999 9.87298 5.05249 9.61043 4.78994C9.34788 4.52739 9.20038 4.1713 9.20038 3.79999C9.20038 3.42869 9.34788 3.0726 9.61043 2.81004C9.87298 2.54749 10.2291 2.39999 10.6004 2.39999Z" fill="#070F21"/>
<path fill-rule="evenodd" clip-rule="evenodd" d="M4.99998 2.39999C5.37128 2.39999 5.72737 2.54749 5.98992 2.81004C6.25248 3.0726 6.39998 3.42869 6.39998 3.79999C6.39998 4.1713 6.25248 4.52739 5.98992 4.78994C5.72737 5.05249 5.37128 5.19999 4.99998 5.19999C4.62867 5.19999 4.27258 5.05249 4.01003 4.78994C3.74748 4.52739 3.59998 4.1713 3.59998 3.79999C3.59998 3.42869 3.74748 3.0726 4.01003 2.81004C4.27258 2.54749 4.62867 2.39999 4.99998 2.39999Z" fill="#070F21"/>
<path fill-rule="evenodd" clip-rule="evenodd" d="M10.6004 19.2C10.9717 19.2 11.3278 19.3475 11.5903 19.61C11.8529 19.8726 12.0004 20.2287 12.0004 20.6C12.0004 20.9713 11.8529 21.3274 11.5903 21.5899C11.3278 21.8525 10.9717 22 10.6004 22C10.2291 22 9.87298 21.8525 9.61043 21.5899C9.34788 21.3274 9.20038 20.9713 9.20038 20.6C9.20038 20.2287 9.34788 19.8726 9.61043 19.61C9.87298 19.3475 10.2291 19.2 10.6004 19.2Z" fill="#070F21"/>
<path fill-rule="evenodd" clip-rule="evenodd" d="M4.99998 19.2C5.37128 19.2 5.72737 19.3475 5.98992 19.61C6.25248 19.8726 6.39998 20.2287 6.39998 20.6C6.39998 20.9713 6.25248 21.3274 5.98992 21.5899C5.72737 21.8525 5.37128 22 4.99998 22C4.62867 22 4.27258 21.8525 4.01003 21.5899C3.74748 21.3274 3.59998 20.9713 3.59998 20.6C3.59998 20.2287 3.74748 19.8726 4.01003 19.61C4.27258 19.3475 4.62867 19.2 4.99998 19.2Z" fill="#070F21"/>
<path fill-rule="evenodd" clip-rule="evenodd" d="M10.6004 8.00009C10.9717 8.00009 11.3278 8.14759 11.5903 8.41014C11.8529 8.67269 12.0004 9.02879 12.0004 9.40009C12.0004 9.77139 11.8529 10.1275 11.5903 10.39C11.3278 10.6526 10.9717 10.8001 10.6004 10.8001C10.2291 10.8001 9.87298 10.6526 9.61043 10.39C9.34788 10.1275 9.20038 9.77139 9.20038 9.40009C9.20038 9.02879 9.34788 8.67269 9.61043 8.41014C9.87298 8.14759 10.2291 8.00009 10.6004 8.00009Z" fill="#070F21"/>
<path fill-rule="evenodd" clip-rule="evenodd" d="M4.99998 8.00009C5.37128 8.00009 5.72737 8.14759 5.98992 8.41014C6.25248 8.67269 6.39998 9.02879 6.39998 9.40009C6.39998 9.77139 6.25248 10.1275 5.98992 10.39C5.72737 10.6526 5.37128 10.8001 4.99998 10.8001C4.62867 10.8001 4.27258 10.6526 4.01003 10.39C3.74748 10.1275 3.59998 9.77139 3.59998 9.40009C3.59998 9.02879 3.74748 8.67269 4.01003 8.41014C4.27258 8.14759 4.62867 8.00009 4.99998 8.00009Z" fill="#070F21"/>
</svg>
