<svg width="24" height="24" viewBox="0 0 24 24" fill="none" xmlns="http://www.w3.org/2000/svg">
<path d="M22.25 12.0018C22.2522 11.8139 22.1792 11.6328 22.0472 11.4989L22.0471 11.4987L20.3663 3.27132C20.3695 3.13895 20.3148 3.01196 20.2165 2.92319C20.1183 2.83457 19.9863 2.79303 19.855 2.80968L19.8239 2.56162C19.8238 2.56163 19.8237 2.56165 19.8236 2.56166C19.4659 2.60667 19.2006 2.91416 19.2073 3.2739V4.6378C17.3437 2.83825 14.7822 1.75 12 1.75C6.34447 1.75 1.75 6.34448 1.75 12C1.75 17.6555 6.34447 22.25 12 22.25C17.6549 22.25 22.249 17.6565 22.25 12.0018ZM22.25 12.0018C22.2499 12.0024 22.2499 12.003 22.2499 12.0036L22 12H22.25C22.25 12.0006 22.25 12.0012 22.25 12.0018ZM16.1367 6.04371C16.0023 6.17609 15.9266 6.35673 15.9266 6.5455C15.9266 6.73407 16.0023 6.91489 16.1367 7.0473L16.3121 6.86923C16.3987 6.95452 16.516 7.00176 16.6376 7.00002V7.25002H16.6392H19.776C20.004 7.29865 20.2423 7.23137 20.4115 7.0688L20.4116 7.06867C20.5819 6.90471 20.6583 6.66673 20.6163 6.43521V3.27395L16.6376 6.09083L16.6409 5.84085C16.6403 5.84084 16.6397 5.84083 16.6391 5.84083C16.4515 5.83886 16.2705 5.91163 16.1367 6.04371ZM16.1367 6.04371L16.3121 6.22178L16.1365 6.04387C16.1366 6.04381 16.1366 6.04376 16.1367 6.04371ZM11.2237 13.0406L11.2237 13.0405C11.0933 12.9057 11.0221 12.7247 11.0255 12.5375V7.18744C11.0188 6.82751 11.2845 6.52001 11.6421 6.47516L11.6732 6.72321M11.2237 13.0406L14.9055 15.7225C14.9967 15.6312 15.0449 15.5055 15.0379 15.3766L15.2876 15.3634C15.2876 15.3633 15.2875 15.3632 15.2875 15.3631C15.2772 15.1684 15.1864 14.9871 15.0377 14.8619L12.4347 12.252V7.18738C12.4384 6.98361 12.3538 6.78793 12.2024 6.65118L12.2023 6.65104C12.05 6.51381 11.8454 6.44938 11.6418 6.4752L11.6732 6.72321M11.2237 13.0406L11.2269 13.0437M11.2237 13.0406L11.2269 13.0437M11.6732 6.72321C11.4419 6.75222 11.2701 6.95166 11.2755 7.18486L12.0349 6.83672C11.9366 6.7481 11.8045 6.70657 11.6732 6.72321ZM11.2269 13.0437L14.0449 15.8547L11.2269 13.0437ZM12 3.15909C14.511 3.15909 16.7991 4.18026 18.4151 5.84083L21.0909 12H20.8409C20.8409 12.0006 20.8409 12.0011 20.8409 12.0017C20.84 16.8888 16.8874 20.8409 12 20.8409C7.11214 20.8409 3.15915 16.8879 3.15915 12C3.15915 7.1121 7.11214 3.15909 12 3.15909Z" fill="#070F21" stroke="#070F21" stroke-width="0.5"/>
</svg>
