<svg width="24" height="24" viewBox="0 0 24 24" fill="none" xmlns="http://www.w3.org/2000/svg">
<path d="M7 7H17" stroke="#070F21" stroke-width="1.5" stroke-linecap="round" stroke-linejoin="round"/>
<path d="M7 11H11" stroke="#070F21" stroke-width="1.5" stroke-linecap="round" stroke-linejoin="round"/>
<path d="M3 5V20.793C3.00002 20.8919 3.02939 20.9886 3.0844 21.0709C3.1394 21.1531 3.21757 21.2172 3.309 21.255C3.40043 21.2928 3.50102 21.3026 3.59804 21.2832C3.69505 21.2638 3.78413 21.216 3.854 21.146L7.707 17.293C7.89449 17.1054 8.1488 17.0001 8.414 17H19C19.5304 17 20.0391 16.7893 20.4142 16.4142C20.7893 16.0391 21 15.5304 21 15V5C21 4.46957 20.7893 3.96086 20.4142 3.58579C20.0391 3.21071 19.5304 3 19 3H5C4.46957 3 3.96086 3.21071 3.58579 3.58579C3.21071 3.96086 3 4.46957 3 5V5Z" stroke="#070F21" stroke-width="1.5" stroke-linecap="round" stroke-linejoin="round"/>
</svg>
