<svg width="24" height="24" viewBox="0 0 24 24" fill="none" xmlns="http://www.w3.org/2000/svg">
<path d="M4.26601 16.06C5.11205 17.7705 6.4842 19.1647 8.18101 20.038C9.86565 20.903 11.7864 21.1951 13.652 20.87C15.5234 20.5409 17.2379 19.6147 18.539 18.23C19.8521 16.8321 20.6882 15.0539 20.927 13.151C21.1695 11.2437 20.8042 9.30856 19.883 7.62098C18.9705 5.9465 17.5445 4.60921 15.815 3.80598C14.0967 3.01014 12.1657 2.79667 10.315 3.19798C8.46501 3.59898 6.94801 4.51098 5.69501 5.95298C5.20588 6.48574 4.79509 7.08542 4.47501 7.73398" stroke="#070F21" stroke-width="1.5" stroke-linecap="round" stroke-linejoin="round"/>
<path d="M8.931 7.81303L3.891 8.72003L3 3.59003" stroke="#070F21" stroke-width="1.5" stroke-linecap="round" stroke-linejoin="round"/>
</svg>
