<svg width="24" height="24" viewBox="0 0 24 24" fill="none" xmlns="http://www.w3.org/2000/svg">
<g clip-path="url(#clip0_2_22982)">
<path d="M23.7551 11.3824L18.2051 5.5024C17.864 5.14061 17.2946 5.12411 16.9328 5.4655C16.5716 5.80662 16.5548 6.37629 16.8962 6.73779L21.8633 11.9998L16.8962 17.2625C16.5548 17.624 16.5716 18.1934 16.9328 18.5348C17.1068 18.6989 17.3291 18.7801 17.5505 18.7801C17.7896 18.7801 18.0284 18.6854 18.2051 18.4984L23.7552 12.6181C24.0824 12.271 24.0824 11.7292 23.7551 11.3824Z" fill="#070F21"/>
<path d="M7.10467 17.2624L2.13786 12L7.10467 6.7377C7.44579 6.3762 7.42929 5.80648 7.06778 5.46542C6.70656 5.1243 6.13656 5.1408 5.79549 5.50231L0.245462 11.3823C-0.0818208 11.7291 -0.0818208 12.2712 0.245462 12.6181L5.79578 18.4984C5.97278 18.6859 6.21128 18.7804 6.45039 18.7804C6.67178 18.7804 6.89411 18.6988 7.06778 18.5347C7.42961 18.1936 7.44579 17.6239 7.10467 17.2624Z" fill="#070F21"/>
<path d="M13.4563 2.46954C12.9652 2.39515 12.5056 2.73233 12.4306 3.22344L9.79058 20.5035C9.71558 20.9949 10.0531 21.4543 10.5445 21.5293C10.5907 21.5362 10.6363 21.5395 10.6816 21.5395C11.1187 21.5395 11.5021 21.2206 11.5702 20.7754L14.2102 3.49527C14.2852 3.00383 13.9477 2.54454 13.4563 2.46954Z" fill="#070F21"/>
</g>
<defs>
<clipPath id="clip0_2_22982">
<rect width="24" height="24" fill="white"/>
</clipPath>
</defs>
</svg>
