<svg width="16" height="16" viewBox="0 0 16 16" fill="none" xmlns="http://www.w3.org/2000/svg">
<path d="M2.96789 7.58197V2.27276C2.96789 1.51792 3.58582 0.9 4.34065 0.9H10.7044H10.7045C10.8154 0.900021 10.9217 0.944088 11.0001 1.02251L2.96789 7.58197ZM2.96789 7.58197H2.27242C1.51759 7.58197 0.899664 8.1999 0.899664 8.95473V13.7276C0.899664 14.4824 1.51759 15.1003 2.27242 15.1003H13.7272C14.4821 15.1003 15.1 14.4824 15.1 13.7276V8.95473C15.1 8.1999 14.4821 7.58197 13.7272 7.58197H13.3499V3.54551V3.54549C13.3499 3.4346 13.3059 3.32825 13.2274 3.24983C13.2274 3.24983 13.2274 3.24983 13.2274 3.24983L11.0001 1.02251L2.96789 7.58197ZM11.7307 8.37062L11.7307 8.37064L11.3236 9.59242C11.3236 9.59242 11.3236 9.59243 11.3236 9.59244C11.28 9.72314 11.1604 9.8093 11.0226 9.8093H5.18895C5.06049 9.8093 4.95065 9.7264 4.91533 9.60279L4.57042 8.39529L4.57042 8.39529C4.46275 8.01845 4.16682 7.73464 3.80427 7.62901V2.27276C3.80427 1.96993 4.03782 1.73638 4.34065 1.73638H9.96806V3.22732C9.96806 3.80588 10.4441 4.28189 11.0226 4.28189H12.5136V7.62774C12.1526 7.72944 11.8536 8.0021 11.7307 8.37062ZM12.1174 9.85703L12.1174 9.85701L12.5245 8.63523C12.5245 8.63523 12.5245 8.63522 12.5245 8.63521C12.5681 8.50451 12.6877 8.41835 12.8255 8.41835H13.7272C14.0301 8.41835 14.2636 8.6519 14.2636 8.95473V13.7276C14.2636 14.0304 14.0301 14.2639 13.7272 14.2639H2.27242C1.96959 14.2639 1.73604 14.0304 1.73604 13.7276V8.95473C1.73604 8.6519 1.96959 8.41835 2.27242 8.41835H3.49235C3.62081 8.41835 3.73065 8.50125 3.76597 8.62486L4.11088 9.83236L4.20704 9.80489L4.11088 9.83236C4.24798 10.3122 4.68988 10.6457 5.18895 10.6457H11.0226C11.5179 10.6457 11.9607 10.327 12.1174 9.85703ZM10.8044 2.00955L12.2404 3.44551H11.0226C10.8961 3.44551 10.8044 3.35388 10.8044 3.22732V2.00955Z" fill="white" stroke="white" stroke-width="0.2"/>
<path d="M5.61342 4.4C5.50251 4.4 5.39614 4.44406 5.31771 4.52248C5.23929 4.60091 5.19523 4.70728 5.19523 4.81819C5.19523 4.9291 5.23929 5.03547 5.31771 5.11389C5.39614 5.19232 5.50251 5.23638 5.61342 5.23638H9.43169C9.5426 5.23638 9.64897 5.19232 9.72739 5.11389C9.80582 5.03547 9.84988 4.9291 9.84988 4.81819C9.84988 4.70728 9.80582 4.60091 9.72739 4.52248C9.64897 4.44406 9.5426 4.4 9.43169 4.4H5.61342Z" fill="white" stroke="white" stroke-width="0.2"/>
<path d="M5.61342 5.99082C5.50251 5.99082 5.39614 6.03488 5.31771 6.1133C5.23929 6.19173 5.19523 6.2981 5.19523 6.40901C5.19523 6.51992 5.23929 6.62629 5.31771 6.70471C5.39614 6.78314 5.50251 6.8272 5.61342 6.8272H10.7044C10.8154 6.8272 10.9217 6.78314 11.0001 6.70471C11.0786 6.62629 11.1226 6.51992 11.1226 6.40901C11.1226 6.2981 11.0786 6.19173 11.0001 6.11331C10.9217 6.03488 10.8154 5.99082 10.7044 5.99082H5.61342Z" fill="white" stroke="white" stroke-width="0.2"/>
<path d="M5.61342 7.58213C5.50251 7.58213 5.39614 7.62619 5.31771 7.70461C5.23929 7.78304 5.19523 7.88941 5.19523 8.00032C5.19523 8.11123 5.23929 8.2176 5.31771 8.29602C5.39614 8.37445 5.50251 8.41851 5.61342 8.41851H9.43169C9.5426 8.41851 9.64897 8.37445 9.72739 8.29602C9.80582 8.2176 9.84988 8.11123 9.84988 8.00032C9.84988 7.88941 9.80582 7.78304 9.72739 7.70461C9.64897 7.62619 9.5426 7.58213 9.43169 7.58213H5.61342Z" fill="white" stroke="white" stroke-width="0.2"/>
</svg>
