<svg width="16" height="16" viewBox="0 0 16 16" fill="none" xmlns="http://www.w3.org/2000/svg">
<mask id="path-1-outside-1_2_3541" maskUnits="userSpaceOnUse" x="-0.33255" y="-0.207031" width="16" height="16" fill="black">
<rect fill="white" x="-0.33255" y="-0.207031" width="16" height="16"/>
<path d="M0.806178 2.47477C1.28788 2.01866 2.91472 0.12927 3.48944 1.036C3.56908 1.16212 3.59536 1.31472 3.5625 1.46022C3.52964 1.60572 3.44033 1.73221 3.31422 1.81188C2.69491 2.20323 2.13294 2.67868 1.64441 3.22461C1.59179 3.28373 1.52722 3.33101 1.45498 3.36335C1.38274 3.39568 1.30446 3.41233 1.22531 3.41218C1.11743 3.4106 1.01226 3.37822 0.92216 3.31887C0.832064 3.25951 0.760802 3.17565 0.716764 3.07716C0.672726 2.97866 0.657746 2.86964 0.673586 2.76292C0.689427 2.6562 0.73543 2.55623 0.806178 2.47477ZM11.6116 1.81188C12.231 2.20352 12.7931 2.67904 13.282 3.22489C13.3346 3.28393 13.3992 3.33114 13.4715 3.36342C13.5437 3.3957 13.6219 3.41232 13.7011 3.41219C13.809 3.41059 13.9142 3.37819 14.0043 3.31881C14.0944 3.25944 14.1656 3.17555 14.2097 3.07704C14.2537 2.97852 14.2687 2.86948 14.2528 2.76274C14.2369 2.65601 14.1909 2.55603 14.1201 2.47457C13.6367 2.0182 12.0141 0.13044 11.4364 1.03595C11.3568 1.16208 11.3305 1.31468 11.3633 1.46019C11.3962 1.6057 11.4855 1.73221 11.6116 1.81188ZM12.0384 13.4328C12.4002 13.0973 13.0576 12.5535 12.5283 12.0715C12.4149 11.9748 12.2678 11.9269 12.1192 11.9383C11.9705 11.9498 11.8325 12.0196 11.7352 12.1325C10.9876 13.0057 9.9904 13.6288 8.87789 13.918C7.76537 14.2072 6.59096 14.1486 5.51277 13.7501C4.43458 13.3516 3.50438 12.6322 2.84742 11.689C2.19046 10.7457 1.83829 9.62383 1.83831 8.47434C1.86172 2.86087 9.23596 0.738073 12.229 5.48607C12.3099 5.60921 12.4358 5.69573 12.5797 5.72706C12.7236 5.75838 12.8741 5.73201 12.9988 5.6536C13.1235 5.5752 13.2125 5.45101 13.2466 5.30772C13.2808 5.16443 13.2574 5.01346 13.1814 4.88724C12.5761 3.91708 11.7332 3.11745 10.7325 2.56405C9.7318 2.01065 8.60643 1.72178 7.46292 1.7248C1.33409 1.71858 -1.59188 9.34769 2.89323 13.4273L2.05692 14.2637C2.0047 14.3159 1.96327 14.3779 1.93501 14.4462C1.90675 14.5144 1.8922 14.5875 1.8922 14.6614C1.8922 14.7353 1.90675 14.8084 1.93501 14.8766C1.96327 14.9449 2.0047 15.0069 2.05692 15.0591C2.10915 15.1113 2.17114 15.1527 2.23938 15.181C2.30761 15.2093 2.38074 15.2238 2.4546 15.2238C2.52845 15.2238 2.60159 15.2093 2.66982 15.181C2.73805 15.1527 2.80005 15.1113 2.85228 15.0591L3.78492 14.1262C4.88017 14.8358 6.15738 15.2132 7.4624 15.2129C8.76742 15.2126 10.0445 14.8346 11.1394 14.1245L12.0741 15.0591C12.1263 15.1116 12.1883 15.1533 12.2566 15.1818C12.3249 15.2103 12.3982 15.2251 12.4722 15.2252C12.5462 15.2253 12.6195 15.2108 12.6879 15.1826C12.7564 15.1543 12.8185 15.1128 12.8709 15.0605C12.9232 15.0081 12.9647 14.946 12.993 14.8775C13.0212 14.8091 13.0357 14.7358 13.0356 14.6618C13.0354 14.5878 13.0207 14.5145 12.9922 14.4462C12.9637 14.3779 12.922 14.3159 12.8694 14.2637L12.0384 13.4328ZM7.46292 4.37645C7.38905 4.37643 7.3159 4.39096 7.24765 4.41922C7.1794 4.44748 7.11739 4.48891 7.06515 4.54114C7.01292 4.59337 6.97149 4.65539 6.94323 4.72364C6.91497 4.79189 6.90044 4.86504 6.90046 4.93891V8.47433C6.90044 8.5482 6.91497 8.62135 6.94323 8.6896C6.97149 8.75785 7.01292 8.81986 7.06515 8.8721C7.11739 8.92433 7.1794 8.96576 7.24765 8.99402C7.3159 9.02228 7.38905 9.03681 7.46292 9.03679H9.81987C9.96714 9.03392 10.1074 8.97339 10.2106 8.86822C10.3137 8.76305 10.3715 8.62162 10.3715 8.47432C10.3715 8.32701 10.3137 8.18559 10.2105 8.08042C10.1074 7.97525 9.96711 7.91474 9.81984 7.91187H8.02538V4.93891C8.0254 4.86504 8.01086 4.79189 7.9826 4.72364C7.95434 4.65539 7.91291 4.59338 7.86068 4.54114C7.80845 4.48891 7.74643 4.44748 7.67818 4.41922C7.60993 4.39096 7.53679 4.37643 7.46292 4.37645ZM14.7749 9.68632H13.6955L15.2143 7.78774C15.2789 7.70455 15.319 7.60501 15.3301 7.50028C15.3413 7.39556 15.323 7.2898 15.2774 7.19489C15.2317 7.09998 15.1605 7.01967 15.0718 6.96299C14.983 6.90631 14.8802 6.8755 14.7749 6.87402H12.525C12.3777 6.87682 12.2374 6.93732 12.1342 7.0425C12.031 7.14768 11.9732 7.28915 11.9732 7.4365C11.9732 7.58385 12.031 7.72532 12.1342 7.8305C12.2374 7.93567 12.3777 7.99615 12.5251 7.99895H13.6044L12.0856 9.89752C12.021 9.98071 11.9809 10.0803 11.9698 10.185C11.9586 10.2897 11.9769 10.3955 12.0225 10.4904C12.0682 10.5853 12.1394 10.6656 12.2282 10.7223C12.317 10.779 12.4198 10.8098 12.5251 10.8112H14.7749C14.9222 10.8084 15.0625 10.7479 15.1656 10.6427C15.2687 10.5375 15.3265 10.3961 15.3265 10.2488C15.3265 10.1015 15.2687 9.96005 15.1656 9.85488C15.0625 9.74971 14.9222 9.6892 14.7749 9.68633V9.68632Z"/>
</mask>
<path d="M0.806178 2.47477C1.28788 2.01866 2.91472 0.12927 3.48944 1.036C3.56908 1.16212 3.59536 1.31472 3.5625 1.46022C3.52964 1.60572 3.44033 1.73221 3.31422 1.81188C2.69491 2.20323 2.13294 2.67868 1.64441 3.22461C1.59179 3.28373 1.52722 3.33101 1.45498 3.36335C1.38274 3.39568 1.30446 3.41233 1.22531 3.41218C1.11743 3.4106 1.01226 3.37822 0.92216 3.31887C0.832064 3.25951 0.760802 3.17565 0.716764 3.07716C0.672726 2.97866 0.657746 2.86964 0.673586 2.76292C0.689427 2.6562 0.73543 2.55623 0.806178 2.47477ZM11.6116 1.81188C12.231 2.20352 12.7931 2.67904 13.282 3.22489C13.3346 3.28393 13.3992 3.33114 13.4715 3.36342C13.5437 3.3957 13.6219 3.41232 13.7011 3.41219C13.809 3.41059 13.9142 3.37819 14.0043 3.31881C14.0944 3.25944 14.1656 3.17555 14.2097 3.07704C14.2537 2.97852 14.2687 2.86948 14.2528 2.76274C14.2369 2.65601 14.1909 2.55603 14.1201 2.47457C13.6367 2.0182 12.0141 0.13044 11.4364 1.03595C11.3568 1.16208 11.3305 1.31468 11.3633 1.46019C11.3962 1.6057 11.4855 1.73221 11.6116 1.81188ZM12.0384 13.4328C12.4002 13.0973 13.0576 12.5535 12.5283 12.0715C12.4149 11.9748 12.2678 11.9269 12.1192 11.9383C11.9705 11.9498 11.8325 12.0196 11.7352 12.1325C10.9876 13.0057 9.9904 13.6288 8.87789 13.918C7.76537 14.2072 6.59096 14.1486 5.51277 13.7501C4.43458 13.3516 3.50438 12.6322 2.84742 11.689C2.19046 10.7457 1.83829 9.62383 1.83831 8.47434C1.86172 2.86087 9.23596 0.738073 12.229 5.48607C12.3099 5.60921 12.4358 5.69573 12.5797 5.72706C12.7236 5.75838 12.8741 5.73201 12.9988 5.6536C13.1235 5.5752 13.2125 5.45101 13.2466 5.30772C13.2808 5.16443 13.2574 5.01346 13.1814 4.88724C12.5761 3.91708 11.7332 3.11745 10.7325 2.56405C9.7318 2.01065 8.60643 1.72178 7.46292 1.7248C1.33409 1.71858 -1.59188 9.34769 2.89323 13.4273L2.05692 14.2637C2.0047 14.3159 1.96327 14.3779 1.93501 14.4462C1.90675 14.5144 1.8922 14.5875 1.8922 14.6614C1.8922 14.7353 1.90675 14.8084 1.93501 14.8766C1.96327 14.9449 2.0047 15.0069 2.05692 15.0591C2.10915 15.1113 2.17114 15.1527 2.23938 15.181C2.30761 15.2093 2.38074 15.2238 2.4546 15.2238C2.52845 15.2238 2.60159 15.2093 2.66982 15.181C2.73805 15.1527 2.80005 15.1113 2.85228 15.0591L3.78492 14.1262C4.88017 14.8358 6.15738 15.2132 7.4624 15.2129C8.76742 15.2126 10.0445 14.8346 11.1394 14.1245L12.0741 15.0591C12.1263 15.1116 12.1883 15.1533 12.2566 15.1818C12.3249 15.2103 12.3982 15.2251 12.4722 15.2252C12.5462 15.2253 12.6195 15.2108 12.6879 15.1826C12.7564 15.1543 12.8185 15.1128 12.8709 15.0605C12.9232 15.0081 12.9647 14.946 12.993 14.8775C13.0212 14.8091 13.0357 14.7358 13.0356 14.6618C13.0354 14.5878 13.0207 14.5145 12.9922 14.4462C12.9637 14.3779 12.922 14.3159 12.8694 14.2637L12.0384 13.4328ZM7.46292 4.37645C7.38905 4.37643 7.3159 4.39096 7.24765 4.41922C7.1794 4.44748 7.11739 4.48891 7.06515 4.54114C7.01292 4.59337 6.97149 4.65539 6.94323 4.72364C6.91497 4.79189 6.90044 4.86504 6.90046 4.93891V8.47433C6.90044 8.5482 6.91497 8.62135 6.94323 8.6896C6.97149 8.75785 7.01292 8.81986 7.06515 8.8721C7.11739 8.92433 7.1794 8.96576 7.24765 8.99402C7.3159 9.02228 7.38905 9.03681 7.46292 9.03679H9.81987C9.96714 9.03392 10.1074 8.97339 10.2106 8.86822C10.3137 8.76305 10.3715 8.62162 10.3715 8.47432C10.3715 8.32701 10.3137 8.18559 10.2105 8.08042C10.1074 7.97525 9.96711 7.91474 9.81984 7.91187H8.02538V4.93891C8.0254 4.86504 8.01086 4.79189 7.9826 4.72364C7.95434 4.65539 7.91291 4.59338 7.86068 4.54114C7.80845 4.48891 7.74643 4.44748 7.67818 4.41922C7.60993 4.39096 7.53679 4.37643 7.46292 4.37645ZM14.7749 9.68632H13.6955L15.2143 7.78774C15.2789 7.70455 15.319 7.60501 15.3301 7.50028C15.3413 7.39556 15.323 7.2898 15.2774 7.19489C15.2317 7.09998 15.1605 7.01967 15.0718 6.96299C14.983 6.90631 14.8802 6.8755 14.7749 6.87402H12.525C12.3777 6.87682 12.2374 6.93732 12.1342 7.0425C12.031 7.14768 11.9732 7.28915 11.9732 7.4365C11.9732 7.58385 12.031 7.72532 12.1342 7.8305C12.2374 7.93567 12.3777 7.99615 12.5251 7.99895H13.6044L12.0856 9.89752C12.021 9.98071 11.9809 10.0803 11.9698 10.185C11.9586 10.2897 11.9769 10.3955 12.0225 10.4904C12.0682 10.5853 12.1394 10.6656 12.2282 10.7223C12.317 10.779 12.4198 10.8098 12.5251 10.8112H14.7749C14.9222 10.8084 15.0625 10.7479 15.1656 10.6427C15.2687 10.5375 15.3265 10.3961 15.3265 10.2488C15.3265 10.1015 15.2687 9.96005 15.1656 9.85488C15.0625 9.74971 14.9222 9.6892 14.7749 9.68633V9.68632Z" fill="white"/>
<path d="M0.806178 2.47477C1.28788 2.01866 2.91472 0.12927 3.48944 1.036C3.56908 1.16212 3.59536 1.31472 3.5625 1.46022C3.52964 1.60572 3.44033 1.73221 3.31422 1.81188C2.69491 2.20323 2.13294 2.67868 1.64441 3.22461C1.59179 3.28373 1.52722 3.33101 1.45498 3.36335C1.38274 3.39568 1.30446 3.41233 1.22531 3.41218C1.11743 3.4106 1.01226 3.37822 0.92216 3.31887C0.832064 3.25951 0.760802 3.17565 0.716764 3.07716C0.672726 2.97866 0.657746 2.86964 0.673586 2.76292C0.689427 2.6562 0.73543 2.55623 0.806178 2.47477ZM11.6116 1.81188C12.231 2.20352 12.7931 2.67904 13.282 3.22489C13.3346 3.28393 13.3992 3.33114 13.4715 3.36342C13.5437 3.3957 13.6219 3.41232 13.7011 3.41219C13.809 3.41059 13.9142 3.37819 14.0043 3.31881C14.0944 3.25944 14.1656 3.17555 14.2097 3.07704C14.2537 2.97852 14.2687 2.86948 14.2528 2.76274C14.2369 2.65601 14.1909 2.55603 14.1201 2.47457C13.6367 2.0182 12.0141 0.13044 11.4364 1.03595C11.3568 1.16208 11.3305 1.31468 11.3633 1.46019C11.3962 1.6057 11.4855 1.73221 11.6116 1.81188ZM12.0384 13.4328C12.4002 13.0973 13.0576 12.5535 12.5283 12.0715C12.4149 11.9748 12.2678 11.9269 12.1192 11.9383C11.9705 11.9498 11.8325 12.0196 11.7352 12.1325C10.9876 13.0057 9.9904 13.6288 8.87789 13.918C7.76537 14.2072 6.59096 14.1486 5.51277 13.7501C4.43458 13.3516 3.50438 12.6322 2.84742 11.689C2.19046 10.7457 1.83829 9.62383 1.83831 8.47434C1.86172 2.86087 9.23596 0.738073 12.229 5.48607C12.3099 5.60921 12.4358 5.69573 12.5797 5.72706C12.7236 5.75838 12.8741 5.73201 12.9988 5.6536C13.1235 5.5752 13.2125 5.45101 13.2466 5.30772C13.2808 5.16443 13.2574 5.01346 13.1814 4.88724C12.5761 3.91708 11.7332 3.11745 10.7325 2.56405C9.7318 2.01065 8.60643 1.72178 7.46292 1.7248C1.33409 1.71858 -1.59188 9.34769 2.89323 13.4273L2.05692 14.2637C2.0047 14.3159 1.96327 14.3779 1.93501 14.4462C1.90675 14.5144 1.8922 14.5875 1.8922 14.6614C1.8922 14.7353 1.90675 14.8084 1.93501 14.8766C1.96327 14.9449 2.0047 15.0069 2.05692 15.0591C2.10915 15.1113 2.17114 15.1527 2.23938 15.181C2.30761 15.2093 2.38074 15.2238 2.4546 15.2238C2.52845 15.2238 2.60159 15.2093 2.66982 15.181C2.73805 15.1527 2.80005 15.1113 2.85228 15.0591L3.78492 14.1262C4.88017 14.8358 6.15738 15.2132 7.4624 15.2129C8.76742 15.2126 10.0445 14.8346 11.1394 14.1245L12.0741 15.0591C12.1263 15.1116 12.1883 15.1533 12.2566 15.1818C12.3249 15.2103 12.3982 15.2251 12.4722 15.2252C12.5462 15.2253 12.6195 15.2108 12.6879 15.1826C12.7564 15.1543 12.8185 15.1128 12.8709 15.0605C12.9232 15.0081 12.9647 14.946 12.993 14.8775C13.0212 14.8091 13.0357 14.7358 13.0356 14.6618C13.0354 14.5878 13.0207 14.5145 12.9922 14.4462C12.9637 14.3779 12.922 14.3159 12.8694 14.2637L12.0384 13.4328ZM7.46292 4.37645C7.38905 4.37643 7.3159 4.39096 7.24765 4.41922C7.1794 4.44748 7.11739 4.48891 7.06515 4.54114C7.01292 4.59337 6.97149 4.65539 6.94323 4.72364C6.91497 4.79189 6.90044 4.86504 6.90046 4.93891V8.47433C6.90044 8.5482 6.91497 8.62135 6.94323 8.6896C6.97149 8.75785 7.01292 8.81986 7.06515 8.8721C7.11739 8.92433 7.1794 8.96576 7.24765 8.99402C7.3159 9.02228 7.38905 9.03681 7.46292 9.03679H9.81987C9.96714 9.03392 10.1074 8.97339 10.2106 8.86822C10.3137 8.76305 10.3715 8.62162 10.3715 8.47432C10.3715 8.32701 10.3137 8.18559 10.2105 8.08042C10.1074 7.97525 9.96711 7.91474 9.81984 7.91187H8.02538V4.93891C8.0254 4.86504 8.01086 4.79189 7.9826 4.72364C7.95434 4.65539 7.91291 4.59338 7.86068 4.54114C7.80845 4.48891 7.74643 4.44748 7.67818 4.41922C7.60993 4.39096 7.53679 4.37643 7.46292 4.37645ZM14.7749 9.68632H13.6955L15.2143 7.78774C15.2789 7.70455 15.319 7.60501 15.3301 7.50028C15.3413 7.39556 15.323 7.2898 15.2774 7.19489C15.2317 7.09998 15.1605 7.01967 15.0718 6.96299C14.983 6.90631 14.8802 6.8755 14.7749 6.87402H12.525C12.3777 6.87682 12.2374 6.93732 12.1342 7.0425C12.031 7.14768 11.9732 7.28915 11.9732 7.4365C11.9732 7.58385 12.031 7.72532 12.1342 7.8305C12.2374 7.93567 12.3777 7.99615 12.5251 7.99895H13.6044L12.0856 9.89752C12.021 9.98071 11.9809 10.0803 11.9698 10.185C11.9586 10.2897 11.9769 10.3955 12.0225 10.4904C12.0682 10.5853 12.1394 10.6656 12.2282 10.7223C12.317 10.779 12.4198 10.8098 12.5251 10.8112H14.7749C14.9222 10.8084 15.0625 10.7479 15.1656 10.6427C15.2687 10.5375 15.3265 10.3961 15.3265 10.2488C15.3265 10.1015 15.2687 9.96005 15.1656 9.85488C15.0625 9.74971 14.9222 9.6892 14.7749 9.68633V9.68632Z" stroke="white" stroke-width="0.2" mask="url(#path-1-outside-1_2_3541)"/>
</svg>
