<svg width="18" height="18" viewBox="0 0 18 18" fill="none" xmlns="http://www.w3.org/2000/svg">
<g clip-path="url(#clip0_0_1404)">
<path d="M17.8164 8.53671L13.6538 4.12668C13.398 3.85534 12.971 3.84297 12.6996 4.09901C12.4287 4.35485 12.4161 4.7821 12.6722 5.05323L16.3975 8.99975L12.6722 12.9467C12.4161 13.2179 12.4287 13.6449 12.6996 13.901C12.8301 14.024 12.9968 14.085 13.1629 14.085C13.3422 14.085 13.5213 14.0139 13.6539 13.8737L17.8164 9.46347C18.0618 9.20317 18.0618 8.7968 17.8164 8.53671Z" fill="white"/>
<path d="M5.32852 12.9468L1.60341 9.00005L5.32852 5.05332C5.58435 4.78219 5.57198 4.3549 5.30085 4.0991C5.02994 3.84327 4.60243 3.85564 4.34664 4.12677L0.184112 8.53679C-0.0613503 8.79688 -0.0613503 9.20347 0.184112 9.46359L4.34685 13.8738C4.4796 14.0145 4.65847 14.0853 4.83781 14.0853C5.00385 14.0853 5.1706 14.0241 5.30085 13.901C5.57223 13.6452 5.58435 13.2179 5.32852 12.9468Z" fill="white"/>
<path d="M10.0922 1.8522C9.72389 1.7964 9.37918 2.04928 9.32293 2.41762L7.34292 15.3777C7.28667 15.7462 7.5398 16.0907 7.90834 16.147C7.94301 16.1522 7.97718 16.1546 8.01118 16.1546C8.33901 16.1546 8.62655 15.9155 8.67764 15.5816L10.6576 2.62149C10.7139 2.25291 10.4608 1.90845 10.0922 1.8522Z" fill="white"/>
</g>
<defs>
<clipPath id="clip0_0_1404">
<rect width="18" height="18" fill="white"/>
</clipPath>
</defs>
</svg>
