<svg width="24" height="24" viewBox="0 0 24 24" fill="none" xmlns="http://www.w3.org/2000/svg">
<path d="M5 21H17C18.0609 21 19.0783 20.5786 19.8284 19.8284C20.5786 19.0783 21 18.0609 21 17V5C21 4.46957 20.7893 3.96086 20.4142 3.58579C20.0391 3.21071 19.5304 3 19 3H9C8.46957 3 7.96086 3.21071 7.58579 3.58579C7.21071 3.96086 7 4.46957 7 5V18C7 19.657 6.657 21 5 21Z" stroke="#070F21" stroke-width="2" stroke-linecap="round" stroke-linejoin="round"/>
<path d="M3 10C3 9.46957 3.21071 8.96086 3.58579 8.58579C3.96086 8.21071 4.46957 8 5 8H7V18.5C7 19.88 6.38 21 5 21C3.62 21 3 19.88 3 18.5V10Z" stroke="#070F21" stroke-width="2" stroke-linecap="round" stroke-linejoin="round"/>
<path d="M12 7C11.7348 7 11.4804 7.10536 11.2929 7.29289C11.1054 7.48043 11 7.73478 11 8C11 8.26522 11.1054 8.51957 11.2929 8.70711C11.4804 8.89464 11.7348 9 12 9C12.2652 9 12.5196 8.89464 12.7071 8.70711C12.8946 8.51957 13 8.26522 13 8C13 7.73478 12.8946 7.48043 12.7071 7.29289C12.5196 7.10536 12.2652 7 12 7Z" stroke="#070F21" stroke-width="2" stroke-linecap="round" stroke-linejoin="round"/>
<path d="M11 14H17" stroke="#070F21" stroke-width="2" stroke-linecap="round" stroke-linejoin="round"/>
<path d="M11 17H14" stroke="#070F21" stroke-width="2" stroke-linecap="round" stroke-linejoin="round"/>
</svg>
