<svg width="24" height="24" viewBox="0 0 24 24" fill="none" xmlns="http://www.w3.org/2000/svg">
<path d="M12 2C9.34784 2 6.8043 3.05357 4.92893 4.92893C3.05357 6.8043 2 9.34784 2 12C2 14.6522 3.05357 17.1957 4.92893 19.0711C6.8043 20.9464 9.34784 22 12 22C14.6522 22 17.1957 20.9464 19.0711 19.0711C20.9464 17.1957 22 14.6522 22 12C22 9.34784 20.9464 6.8043 19.0711 4.92893C17.1957 3.05357 14.6522 2 12 2V2Z" stroke="#070F21" stroke-width="2" stroke-linecap="round" stroke-linejoin="round"/>
<path d="M12 8C10.9391 8 9.92172 8.42143 9.17157 9.17157C8.42143 9.92172 8 10.9391 8 12C8 13.0609 8.42143 14.0783 9.17157 14.8284C9.92172 15.5786 10.9391 16 12 16C13.0609 16 14.0783 15.5786 14.8284 14.8284C15.5786 14.0783 16 13.0609 16 12C16 10.9391 15.5786 9.92172 14.8284 9.17157C14.0783 8.42143 13.0609 8 12 8V8Z" stroke="#070F21" stroke-width="2" stroke-linecap="round" stroke-linejoin="round"/>
<path d="M19.071 4.92899L14.828 9.17199" stroke="#070F21" stroke-width="2" stroke-linecap="round" stroke-linejoin="round"/>
<path d="M9.17196 14.828L4.92896 19.071" stroke="#070F21" stroke-width="2" stroke-linecap="round" stroke-linejoin="round"/>
<path d="M19.071 19.071L14.828 14.828" stroke="#070F21" stroke-width="2" stroke-linecap="round" stroke-linejoin="round"/>
<path d="M9.17196 9.17199L4.92896 4.92899" stroke="#070F21" stroke-width="2" stroke-linecap="round" stroke-linejoin="round"/>
</svg>
