<svg width="24" height="24" viewBox="0 0 24 24" fill="none" xmlns="http://www.w3.org/2000/svg">
<g clip-path="url(#clip0_2_22939)">
<path d="M18.3316 7.37667V5.39072C18.3316 5.19099 18.2523 4.99944 18.111 4.85821L13.4238 0.170615L13.4238 0.170607C13.2825 0.0293817 13.091 -0.05 12.8912 -0.05H2.10974C0.919018 -0.05 -0.0496338 0.918651 -0.0496338 2.10938V21.8906C-0.0496338 23.0813 0.919018 24.05 2.10974 24.05H16.1722C17.363 24.05 18.3316 23.0813 18.3316 21.8906V13.4843L22.2291 9.58679L22.2293 9.58665L22.2293 9.58656L22.2295 9.58641L23.5553 8.2607C24.2144 7.60151 24.2144 6.52905 23.5552 5.86982L22.8923 5.20691C22.2331 4.54773 21.1606 4.54768 20.5014 5.20691L19.1756 6.53272L18.3316 7.37667ZM15.0479 16.7002L15.0715 16.6894L15.0717 16.6881C15.1426 16.653 15.2095 16.6064 15.2687 16.5471C15.2687 16.5471 15.2687 16.5471 15.2688 16.5471L16.8253 14.9905V21.8906V21.8986C16.821 22.255 16.5297 22.5438 16.1722 22.5438H2.10974C1.74965 22.5438 1.45662 22.2507 1.45662 21.8906V2.10938C1.45662 1.74929 1.74965 1.45625 2.10974 1.45625H12.1379V5.39062C12.1379 5.80655 12.4751 6.14375 12.891 6.14375H16.8254V8.88296L13.0083 12.7H3.98474C3.56881 12.7 3.23162 13.0372 3.23162 13.4531C3.23162 13.8691 3.56881 14.2063 3.98474 14.2063H11.8382L10.6052 16.9188H3.98474C3.56881 16.9188 3.23162 17.2559 3.23162 17.6719C3.23162 18.0878 3.56881 18.425 3.98474 18.425H11.0899H11.0904C11.1957 18.425 11.3019 18.4029 11.4018 18.3575L15.0479 16.7002ZM22.4902 7.19561L22.4901 7.19563L21.6968 7.98893L20.7731 7.06528L21.5664 6.27198C21.6383 6.20011 21.7554 6.20018 21.8272 6.27198L22.4901 6.93484C22.562 7.00678 22.562 7.12385 22.4902 7.19561ZM13.6441 2.52132L15.7603 4.6375H13.6441V2.52132ZM12.9834 15.3269L13.4352 15.7787L12.6069 16.1552L12.9834 15.3269ZM20.6318 9.054L14.7363 14.9495L13.8126 14.0258L19.7081 8.13035L20.6318 9.054Z" fill="#070F21" stroke="#070F21" stroke-width="0.1"/>
<path d="M3.98474 9.9875H14.2972C14.7132 9.9875 15.0504 9.6503 15.0504 9.23438C15.0504 8.81845 14.7132 8.48125 14.2972 8.48125H3.98474C3.56881 8.48125 3.23162 8.81845 3.23162 9.23438C3.23162 9.6503 3.56881 9.9875 3.98474 9.9875Z" fill="#070F21" stroke="#070F21" stroke-width="0.1"/>
</g>
<defs>
<clipPath id="clip0_2_22939">
<rect width="24" height="24" fill="white"/>
</clipPath>
</defs>
</svg>
