<svg width="22" height="22" viewBox="0 0 22 22" fill="none" xmlns="http://www.w3.org/2000/svg">
<path d="M3.66669 3.66665V18.3333C3.66669 18.8195 3.85984 19.2859 4.20366 19.6297C4.54747 19.9735 5.01379 20.1666 5.50002 20.1666H16.5C16.9863 20.1666 17.4526 19.9735 17.7964 19.6297C18.1402 19.2859 18.3334 18.8195 18.3334 18.3333V7.64681C18.3333 7.40258 18.2845 7.16081 18.1897 6.9357C18.095 6.7106 17.9562 6.5067 17.7815 6.33598L13.7115 2.35581C13.369 2.02092 12.909 1.83337 12.43 1.83331H5.50002C5.01379 1.83331 4.54747 2.02647 4.20366 2.37028C3.85984 2.7141 3.66669 3.18042 3.66669 3.66665V3.66665Z" stroke="#070F21" stroke-width="1.5" stroke-linecap="round" stroke-linejoin="round"/>
<path d="M8.25 11.9167H13.75" stroke="#070F21" stroke-width="1.5" stroke-linecap="round" stroke-linejoin="round"/>
<path d="M8.25 15.5833H11" stroke="#070F21" stroke-width="1.5" stroke-linecap="round" stroke-linejoin="round"/>
<path d="M12.8333 1.83331V5.49998C12.8333 5.98621 13.0265 6.45253 13.3703 6.79634C13.7141 7.14016 14.1804 7.33331 14.6666 7.33331H18.3333" stroke="#070F21" stroke-width="1.5" stroke-linecap="round" stroke-linejoin="round"/>
</svg>
