<svg width="24" height="24" viewBox="0 0 24 24" fill="none" xmlns="http://www.w3.org/2000/svg">
<path d="M10.5031 5.84428C8.23757 6.36661 6.41685 8.16333 5.86461 10.4216C5.32213 12.64 5.95485 14.9043 7.55708 16.4788C8.14607 17.0576 8.48436 17.9211 8.48436 18.8479V20.2803C8.48446 22.4119 10.0425 24 11.9995 24C13.938 24 15.5147 22.4229 15.5147 20.4844L15.5148 18.8498C15.5148 17.9338 15.8699 17.0529 16.4882 16.433C17.6744 15.2436 18.3277 13.6693 18.3277 12C18.3277 8.00859 14.6347 4.89183 10.5031 5.84428ZM11.9996 22.5937C10.7971 22.5937 9.89024 21.5992 9.89019 20.2802V19.7344H14.109V20.4844C14.109 21.6475 13.1627 22.5937 11.9996 22.5937ZM15.4926 15.4399C14.733 16.2015 14.2536 17.2327 14.1371 18.3281H9.86362C9.75135 17.2232 9.28401 16.2042 8.54277 15.4757C7.27902 14.234 6.80076 12.5136 7.2306 10.7557C7.65782 9.00862 9.06637 7.61869 10.8191 7.21462C14.0445 6.47095 16.9215 8.8769 16.9215 12C16.9215 13.2944 16.414 14.516 15.4926 15.4399Z" fill="#070F21"/>
<path d="M11.2969 0.703125V2.15625C11.2969 2.54456 11.6117 2.85938 12 2.85938C12.3883 2.85938 12.7031 2.54456 12.7031 2.15625V0.703125C12.7031 0.314812 12.3883 0 12 0C11.6117 0 11.2969 0.314812 11.2969 0.703125Z" fill="#070F21"/>
<path d="M2.85938 12C2.85938 11.6117 2.54456 11.2969 2.15625 11.2969H0.703125C0.314812 11.2969 0 11.6117 0 12C0 12.3883 0.314812 12.7031 0.703125 12.7031H2.15625C2.54456 12.7031 2.85938 12.3883 2.85938 12Z" fill="#070F21"/>
<path d="M23.2969 11.2969H21.8438C21.4554 11.2969 21.1406 11.6117 21.1406 12C21.1406 12.3883 21.4554 12.7031 21.8438 12.7031H23.2969C23.6852 12.7031 24 12.3883 24 12C24 11.6117 23.6852 11.2969 23.2969 11.2969Z" fill="#070F21"/>
<path d="M3.1234 16.313L1.90558 17.0161C1.56926 17.2102 1.45404 17.6403 1.64824 17.9765C1.84301 18.3139 2.27337 18.4275 2.60871 18.2339L3.82652 17.5308C4.16285 17.3366 4.27807 16.9066 4.08387 16.5703C3.88966 16.234 3.45968 16.1188 3.1234 16.313Z" fill="#070F21"/>
<path d="M21.3906 5.76608L20.1728 6.4692C19.8365 6.66336 19.7213 7.09339 19.9155 7.42967C20.1102 7.76703 20.5406 7.88061 20.8759 7.68702L22.0937 6.98389C22.4301 6.78974 22.5453 6.3597 22.3511 6.02342C22.1569 5.68709 21.7268 5.57192 21.3906 5.76608Z" fill="#070F21"/>
<path d="M17.0162 1.90567L16.3131 3.12353C16.1189 3.45981 16.2341 3.88984 16.5704 4.08399C16.9053 4.27735 17.3359 4.16439 17.5309 3.82665L18.234 2.60879C18.4282 2.27251 18.313 1.84248 17.9767 1.64832C17.6403 1.45407 17.2104 1.56934 17.0162 1.90567Z" fill="#070F21"/>
<path d="M6.46935 3.82667C6.66411 4.16403 7.09447 4.27761 7.42982 4.08401C7.76614 3.88986 7.88136 3.45983 7.68716 3.12355L6.98403 1.90569C6.78988 1.56936 6.35985 1.45419 6.02357 1.64834C5.68724 1.8425 5.57202 2.27253 5.76622 2.60881L6.46935 3.82667Z" fill="#070F21"/>
<path d="M22.0937 17.0161L20.8759 16.313C20.5395 16.1187 20.1096 16.234 19.9155 16.5703C19.7213 16.9066 19.8365 17.3367 20.1728 17.5308L21.3906 18.2339C21.7254 18.4273 22.1561 18.3143 22.3511 17.9766C22.5453 17.6403 22.4301 17.2103 22.0937 17.0161Z" fill="#070F21"/>
<path d="M3.82652 6.46921L2.60871 5.76608C2.27238 5.57178 1.8424 5.6871 1.64824 6.02342C1.45404 6.35971 1.56926 6.78974 1.90558 6.98389L3.1234 7.68702C3.45823 7.88038 3.88887 7.76741 4.08387 7.42967C4.27807 7.09339 4.16285 6.66336 3.82652 6.46921Z" fill="#070F21"/>
<path d="M12 9.1875C10.8369 9.1875 9.89062 10.1338 9.89062 11.2969C9.89062 11.6852 10.2054 12 10.5938 12C10.9821 12 11.2969 11.6852 11.2969 11.2969C11.2969 10.9092 11.6123 10.5938 12 10.5938C12.3877 10.5938 12.7031 10.9092 12.7031 11.2969C12.7031 11.5868 12.5292 11.8433 12.2599 11.9506C11.6749 12.1837 11.2969 12.7412 11.2969 13.3709V13.4062C11.2969 13.7946 11.6117 14.1094 12 14.1094C12.3883 14.1094 12.7031 13.7946 12.7031 13.4062V13.3709C12.7031 13.3212 12.7342 13.2754 12.7804 13.257C13.5877 12.9354 14.1094 12.166 14.1094 11.2969C14.1094 10.1338 13.1631 9.1875 12 9.1875Z" fill="#070F21"/>
<path d="M12 16.9219C12.3883 16.9219 12.7031 16.6071 12.7031 16.2188C12.7031 15.8304 12.3883 15.5156 12 15.5156C11.6117 15.5156 11.2969 15.8304 11.2969 16.2188C11.2969 16.6071 11.6117 16.9219 12 16.9219Z" fill="#070F21"/>
</svg>
