<svg width="22" height="22" viewBox="0 0 22 22" fill="none" xmlns="http://www.w3.org/2000/svg">
<path d="M11.661 4.58608L10.3171 4.58333C7.25179 4.576 4.59071 7.06658 4.56962 10.0833V13.5575C4.56962 14.2817 4.47796 14.9884 4.08287 15.5907L3.81979 15.9922C3.41921 16.6008 3.85004 17.4167 4.56962 17.4167H17.4305C18.15 17.4167 18.58 16.6008 18.1803 15.9922L17.9172 15.5907C17.523 14.9884 17.4305 14.2807 17.4305 13.5566V10.0842C17.3938 7.06658 14.7263 4.59341 11.661 4.58608V4.58608Z" stroke="#070F21" stroke-width="1.5" stroke-linecap="round" stroke-linejoin="round"/>
<path d="M13.75 17.4167C13.75 18.146 13.4603 18.8455 12.9445 19.3612C12.4288 19.877 11.7293 20.1667 11 20.1667C10.2707 20.1667 9.57118 19.877 9.05546 19.3612C8.53973 18.8455 8.25 18.146 8.25 17.4167" stroke="#070F21" stroke-width="1.5" stroke-linecap="round" stroke-linejoin="round"/>
<path d="M11 1.83331C11.4862 1.83331 11.9525 2.02647 12.2963 2.37028C12.6401 2.7141 12.8333 3.18042 12.8333 3.66665V4.58331H9.16663V3.66665C9.16663 3.18042 9.35978 2.7141 9.7036 2.37028C10.0474 2.02647 10.5137 1.83331 11 1.83331Z" stroke="#070F21" stroke-width="1.5" stroke-linecap="round" stroke-linejoin="round"/>
</svg>
