<svg width="24" height="24" viewBox="0 0 24 24" fill="none" xmlns="http://www.w3.org/2000/svg">
<rect width="24" height="24" fill="white"/>
<path d="M21.1451 1H2.94118C1.87081 1 1 1.87081 1 2.94118V21.0588C1 22.1292 1.87081 23 2.94118 23H21.1451C22.2155 23 23.0863 22.1292 23.0863 21.0588V2.94118C23.0863 1.87081 22.2155 1 21.1451 1ZM2.94118 2.29412H21.1451C21.5019 2.29412 21.7922 2.58439 21.7922 2.94118V6.17647H2.29412V2.94118C2.29412 2.58439 2.58439 2.29412 2.94118 2.29412ZM21.1451 21.7059H2.94118C2.58439 21.7059 2.29412 21.4156 2.29412 21.0588V7.47059H21.7922V21.0588C21.7922 21.4156 21.5019 21.7059 21.1451 21.7059Z" fill="#070F21"/>
<path d="M14.2392 9.46407C13.9107 9.32331 13.5303 9.47546 13.3896 9.8039L9.50721 18.8627C9.36641 19.1912 9.5186 19.5716 9.84704 19.7124C10.1756 19.8532 10.556 19.7009 10.6967 19.3725L14.579 10.3137C14.7198 9.98521 14.5676 9.60483 14.2392 9.46407Z" fill="#070F21"/>
<path d="M8.66608 11.5958C8.4428 11.3167 8.03554 11.2715 7.75662 11.4948L4.52132 14.083C4.19783 14.3417 4.19762 14.8346 4.52132 15.0935L7.75662 17.6818C8.03567 17.905 8.44293 17.8597 8.66608 17.5807C8.88931 17.3017 8.8441 16.8945 8.56501 16.6713L5.96133 14.5883L8.56501 12.5053C8.8441 12.2821 8.88931 11.8749 8.66608 11.5958Z" fill="#070F21"/>
<path d="M19.565 14.083L16.3297 11.4948C16.0507 11.2715 15.6435 11.3167 15.4203 11.5958C15.197 11.8749 15.2422 12.2821 15.5213 12.5053L18.125 14.5883L15.5213 16.6712C15.2422 16.8945 15.197 17.3017 15.4203 17.5807C15.6438 17.8601 16.0511 17.9048 16.3297 17.6817L19.565 15.0935C19.8885 14.8348 19.8887 14.3419 19.565 14.083Z" fill="#070F21"/>
<path d="M4.27841 4.88234C4.63577 4.88234 4.92547 4.59265 4.92547 4.23529C4.92547 3.87792 4.63577 3.58823 4.27841 3.58823C3.92105 3.58823 3.63135 3.87792 3.63135 4.23529C3.63135 4.59265 3.92105 4.88234 4.27841 4.88234Z" fill="#070F21"/>
<path d="M6.86666 4.88234C7.22402 4.88234 7.51372 4.59265 7.51372 4.23529C7.51372 3.87792 7.22402 3.58823 6.86666 3.58823C6.5093 3.58823 6.2196 3.87792 6.2196 4.23529C6.2196 4.59265 6.5093 4.88234 6.86666 4.88234Z" fill="#070F21"/>
<path d="M9.45492 4.88234C9.81228 4.88234 10.102 4.59265 10.102 4.23529C10.102 3.87792 9.81228 3.58823 9.45492 3.58823C9.09756 3.58823 8.80786 3.87792 8.80786 4.23529C8.80786 4.59265 9.09756 4.88234 9.45492 4.88234Z" fill="#070F21"/>
<path d="M15.9255 4.88234H19.8079C20.1652 4.88234 20.4549 4.59263 20.4549 4.23529C20.4549 3.87794 20.1652 3.58823 19.8079 3.58823H15.9255C15.5682 3.58823 15.2784 3.87794 15.2784 4.23529C15.2784 4.59263 15.5682 4.88234 15.9255 4.88234Z" fill="#070F21"/>
</svg>
