<svg width="24" height="24" viewBox="0 0 24 24" fill="none" xmlns="http://www.w3.org/2000/svg">
<path d="M19.0591 1H3.57812C2.15655 1 1 2.15655 1 3.57812V20.4219C1 21.8435 2.15655 23 3.57812 23H20.4219C21.8435 23 23 21.8435 23 20.4219V4.94092L19.0591 1ZM7.74609 2.71875H12.8594V5.98438H14.5781V2.71875H16.2969V6.84375C16.2969 7.31761 15.9114 7.70312 15.4375 7.70312H8.60547C8.13161 7.70312 7.74609 7.31761 7.74609 6.84375V2.71875ZM18.0156 21.2812H6.02734V14.7188C6.02734 14.2449 6.41286 13.8594 6.88672 13.8594H17.1562C17.6301 13.8594 18.0156 14.2449 18.0156 14.7188V21.2812ZM21.2812 20.4219C21.2812 20.8957 20.8957 21.2812 20.4219 21.2812H19.7344V14.7188C19.7344 13.2972 18.5778 12.1406 17.1562 12.1406H6.88672C5.46514 12.1406 4.30859 13.2972 4.30859 14.7188V21.2812H3.57812C3.10427 21.2812 2.71875 20.8957 2.71875 20.4219V3.57812C2.71875 3.10427 3.10427 2.71875 3.57812 2.71875H6.02734V6.84375C6.02734 8.26533 7.18389 9.42188 8.60547 9.42188H15.4375C16.8591 9.42188 18.0156 8.26533 18.0156 6.84375V2.71875H18.3472L21.2812 5.65283V20.4219Z" fill="#070F21"/>
</svg>
