<svg width="227" height="248" viewBox="0 0 227 248" fill="none" xmlns="http://www.w3.org/2000/svg">
<rect width="24" height="24" fill="#070F21"/>
<rect x="0.5" y="0.5" width="23" height="23" stroke="#070F21" stroke-opacity="0.2"/>
<rect x="29" width="24" height="24" fill="#626B81"/>
<rect x="29.5" y="0.5" width="23" height="23" stroke="#070F21" stroke-opacity="0.2"/>
<rect x="58" width="24" height="24" fill="#9499A5"/>
<rect x="58.5" y="0.5" width="23" height="23" stroke="#070F21" stroke-opacity="0.2"/>
<rect x="87" width="24" height="24" fill="#B4B8C1"/>
<rect x="87.5" y="0.5" width="23" height="23" stroke="#070F21" stroke-opacity="0.2"/>
<rect x="116" width="24" height="24" fill="#E7E8EB"/>
<rect x="116.5" y="0.5" width="23" height="23" stroke="#070F21" stroke-opacity="0.2"/>
<rect x="145" width="24" height="24" fill="white"/>
<rect x="145.5" y="0.5" width="23" height="23" stroke="#070F21" stroke-opacity="0.2"/>
<rect y="32" width="24" height="24" fill="#00C2FF"/>
<rect x="0.5" y="32.5" width="23" height="23" stroke="#070F21" stroke-opacity="0.2"/>
<rect x="29" y="32" width="24" height="24" fill="#34CEFF"/>
<rect x="29.5" y="32.5" width="23" height="23" stroke="#070F21" stroke-opacity="0.2"/>
<rect x="58" y="32" width="24" height="24" fill="#6248FF"/>
<rect x="58.5" y="32.5" width="23" height="23" stroke="#070F21" stroke-opacity="0.2"/>
<rect x="87" y="32" width="24" height="24" fill="#8F76FF"/>
<rect x="87.5" y="32.5" width="23" height="23" stroke="#070F21" stroke-opacity="0.2"/>
<rect x="116" y="32" width="24" height="24" fill="#FF9F1A"/>
<rect x="116.5" y="32.5" width="23" height="23" stroke="#070F21" stroke-opacity="0.2"/>
<rect x="145" y="32" width="24" height="24" fill="#F2D600"/>
<rect x="145.5" y="32.5" width="23" height="23" stroke="#070F21" stroke-opacity="0.2"/>
<rect x="174" y="32" width="24" height="24" fill="#FF3477"/>
<rect x="174.5" y="32.5" width="23" height="23" stroke="#070F21" stroke-opacity="0.2"/>
<rect x="203" y="32" width="24" height="24" fill="#FF34EB"/>
<rect x="203.5" y="32.5" width="23" height="23" stroke="#070F21" stroke-opacity="0.2"/>
<rect y="64" width="24" height="24" fill="#00AAAF"/>
<rect x="0.5" y="64.5" width="23" height="23" stroke="#070F21" stroke-opacity="0.2"/>
<rect x="29" y="64" width="24" height="24" fill="#27E1BF"/>
<rect x="29.5" y="64.5" width="23" height="23" stroke="#070F21" stroke-opacity="0.2"/>
<rect x="58" y="64" width="24" height="24" fill="#FF9900"/>
<rect x="58.5" y="64.5" width="23" height="23" stroke="#070F21" stroke-opacity="0.2"/>
<rect x="87" y="64" width="24" height="24" fill="#FFFF00"/>
<rect x="87.5" y="64.5" width="23" height="23" stroke="#070F21" stroke-opacity="0.2"/>
<rect x="116" y="64" width="24" height="24" fill="#00FF00"/>
<rect x="116.5" y="64.5" width="23" height="23" stroke="#070F21" stroke-opacity="0.2"/>
<rect x="145" y="64" width="24" height="24" fill="#00FFFF"/>
<rect x="145.5" y="64.5" width="23" height="23" stroke="#070F21" stroke-opacity="0.2"/>
<rect x="174" y="64" width="24" height="24" fill="#4A86E8"/>
<rect x="174.5" y="64.5" width="23" height="23" stroke="#070F21" stroke-opacity="0.2"/>
<rect x="203" y="64" width="24" height="24" fill="#0000FF"/>
<rect x="203.5" y="64.5" width="23" height="23" stroke="#070F21" stroke-opacity="0.2"/>
<rect y="96" width="24" height="24" fill="#980000"/>
<rect x="0.5" y="96.5" width="23" height="23" stroke="#070F21" stroke-opacity="0.2"/>
<rect x="29" y="96" width="24" height="24" fill="#FF0000"/>
<rect x="29.5" y="96.5" width="23" height="23" stroke="#070F21" stroke-opacity="0.2"/>
<rect x="58" y="96" width="24" height="24" fill="#E6B8AF"/>
<rect x="58.5" y="96.5" width="23" height="23" stroke="#070F21" stroke-opacity="0.2"/>
<rect x="87" y="96" width="24" height="24" fill="#FCE5CD"/>
<rect x="87.5" y="96.5" width="23" height="23" stroke="#070F21" stroke-opacity="0.2"/>
<rect x="116" y="96" width="24" height="24" fill="#D9EAD3"/>
<rect x="116.5" y="96.5" width="23" height="23" stroke="#070F21" stroke-opacity="0.2"/>
<rect x="145" y="96" width="24" height="24" fill="#D0E0E3"/>
<rect x="145.5" y="96.5" width="23" height="23" stroke="#070F21" stroke-opacity="0.2"/>
<rect x="174" y="96" width="24" height="24" fill="#CFE2F3"/>
<rect x="174.5" y="96.5" width="23" height="23" stroke="#070F21" stroke-opacity="0.2"/>
<rect x="203" y="96" width="24" height="24" fill="#EAD1DC"/>
<rect x="203.5" y="96.5" width="23" height="23" stroke="#070F21" stroke-opacity="0.2"/>
<rect y="128" width="24" height="24" fill="#EA9999"/>
<rect x="0.5" y="128.5" width="23" height="23" stroke="#070F21" stroke-opacity="0.2"/>
<rect x="29" y="128" width="24" height="24" fill="#F9CB9C"/>
<rect x="29.5" y="128.5" width="23" height="23" stroke="#070F21" stroke-opacity="0.2"/>
<rect x="58.5" y="128.5" width="23" height="23" fill="#B6D7A8" stroke="#0E8CFF"/>
<path d="M76 135.5L67.75 143.75L64 140" stroke="#070F21" stroke-width="1.91667" stroke-linecap="round" stroke-linejoin="round"/>
<rect x="87" y="128" width="24" height="24" fill="#A4C2F4"/>
<rect x="87.5" y="128.5" width="23" height="23" stroke="#070F21" stroke-opacity="0.2"/>
<rect x="116" y="128" width="24" height="24" fill="#9FC5E8"/>
<rect x="116.5" y="128.5" width="23" height="23" stroke="#070F21" stroke-opacity="0.2"/>
<rect x="145" y="128" width="24" height="24" fill="#D5A6BD"/>
<rect x="145.5" y="128.5" width="23" height="23" stroke="#070F21" stroke-opacity="0.2"/>
<rect x="174" y="128" width="24" height="24" fill="#CC4125"/>
<rect x="174.5" y="128.5" width="23" height="23" stroke="#070F21" stroke-opacity="0.2"/>
<rect x="203" y="128" width="24" height="24" fill="#E06666"/>
<rect x="203.5" y="128.5" width="23" height="23" stroke="#070F21" stroke-opacity="0.2"/>
<rect y="160" width="24" height="24" fill="#F6B26B"/>
<rect x="0.5" y="160.5" width="23" height="23" stroke="#070F21" stroke-opacity="0.2"/>
<rect x="29" y="160" width="24" height="24" fill="#93C47D"/>
<rect x="29.5" y="160.5" width="23" height="23" stroke="#070F21" stroke-opacity="0.2"/>
<rect x="58" y="160" width="24" height="24" fill="#6D9EEB"/>
<rect x="58.5" y="160.5" width="23" height="23" stroke="#070F21" stroke-opacity="0.2"/>
<rect x="87" y="160" width="24" height="24" fill="#8E7CC3"/>
<rect x="87.5" y="160.5" width="23" height="23" stroke="#070F21" stroke-opacity="0.2"/>
<rect x="116" y="160" width="24" height="24" fill="#A61C00"/>
<rect x="116.5" y="160.5" width="23" height="23" stroke="#070F21" stroke-opacity="0.2"/>
<rect x="145" y="160" width="24" height="24" fill="#CC0000"/>
<rect x="145.5" y="160.5" width="23" height="23" stroke="#070F21" stroke-opacity="0.2"/>
<rect x="174" y="160" width="24" height="24" fill="#E69138"/>
<rect x="174.5" y="160.5" width="23" height="23" stroke="#070F21" stroke-opacity="0.2"/>
<rect x="203" y="160" width="24" height="24" fill="#8E7CC3"/>
<rect x="203.5" y="160.5" width="23" height="23" stroke="#070F21" stroke-opacity="0.2"/>
<rect y="192" width="24" height="24" fill="#274E13"/>
<rect x="0.5" y="192.5" width="23" height="23" stroke="#070F21" stroke-opacity="0.2"/>
<rect x="29" y="192" width="24" height="24" fill="#0C343D"/>
<rect x="29.5" y="192.5" width="23" height="23" stroke="#070F21" stroke-opacity="0.2"/>
<rect x="58" y="192" width="24" height="24" fill="#1C4587"/>
<rect x="58.5" y="192.5" width="23" height="23" stroke="#070F21" stroke-opacity="0.2"/>
<rect x="87" y="192" width="24" height="24" fill="#073763"/>
<rect x="87.5" y="192.5" width="23" height="23" stroke="#070F21" stroke-opacity="0.2"/>
<rect x="116" y="192" width="24" height="24" fill="#20124D"/>
<rect x="116.5" y="192.5" width="23" height="23" stroke="#070F21" stroke-opacity="0.2"/>
<rect x="145" y="192" width="24" height="24" fill="#4C1130"/>
<rect x="145.5" y="192.5" width="23" height="23" stroke="#070F21" stroke-opacity="0.2"/>
<rect y="224" width="24" height="24" fill="#A4C3F2"/>
<rect x="0.5" y="224.5" width="23" height="23" stroke="#070F21" stroke-opacity="0.2"/>
<rect x="29" y="224" width="24" height="24" fill="#AA44CC"/>
<rect x="29.5" y="224.5" width="23" height="23" stroke="#070F21" stroke-opacity="0.2"/>
<rect x="58" y="224" width="24" height="24" fill="#1122DD"/>
<rect x="58.5" y="224.5" width="23" height="23" stroke="#070F21" stroke-opacity="0.2"/>
<rect x="87" y="224" width="24" height="24" fill="#DD1144"/>
<rect x="87.5" y="224.5" width="23" height="23" stroke="#070F21" stroke-opacity="0.2"/>
<rect x="116" y="224" width="24" height="24" fill="#FF0FF0"/>
<rect x="116.5" y="224.5" width="23" height="23" stroke="#070F21" stroke-opacity="0.2"/>
<rect x="145" y="224" width="24" height="24" fill="#EECCCC"/>
<rect x="145.5" y="224.5" width="23" height="23" stroke="#070F21" stroke-opacity="0.2"/>
</svg>
