<svg width="24" height="24" viewBox="0 0 24 24" fill="none" xmlns="http://www.w3.org/2000/svg">
<path fill-rule="evenodd" clip-rule="evenodd" d="M11.384 4.187C11.765 4.30219 12.1706 4.30843 12.555 4.205L18.881 15.387C18.5881 15.6692 18.3823 16.0294 18.288 16.425H5.71C5.60879 16.0097 5.38595 15.634 5.07 15.346L11.383 4.187H11.384ZM10.463 3.622C10.481 3.642 10.501 3.661 10.52 3.68L4.193 14.865C4.16316 14.857 4.13315 14.8497 4.103 14.843V9.156C4.39066 9.09165 4.66175 8.96807 4.89901 8.79314C5.13626 8.61821 5.33447 8.39577 5.481 8.14C5.62692 7.88568 5.71908 7.6041 5.75177 7.31272C5.78445 7.02133 5.75696 6.72633 5.671 6.446L10.463 3.623V3.622ZM14.033 2.787C14.1344 2.4688 14.1596 2.13125 14.1067 1.80151C14.0539 1.47177 13.9244 1.15903 13.7286 0.888468C13.5329 0.617901 13.2763 0.397052 12.9797 0.243686C12.683 0.0903202 12.3545 0.00871789 12.0206 0.00544319C11.6866 0.00216849 11.3566 0.0773128 11.057 0.224832C10.7574 0.372351 10.4966 0.588126 10.2956 0.854802C10.0945 1.12148 9.95892 1.43161 9.89959 1.76025C9.84027 2.08889 9.8589 2.42687 9.954 2.747L5.159 5.573C4.92889 5.33701 4.64718 5.15761 4.33601 5.04892C4.02484 4.94022 3.6927 4.90519 3.3657 4.94657C3.0387 4.98796 2.72576 5.10463 2.45148 5.28742C2.1772 5.47021 1.94906 5.71413 1.785 6C1.62114 6.28623 1.52546 6.60638 1.5054 6.93558C1.48533 7.26479 1.54141 7.59419 1.66928 7.8982C1.79716 8.20222 1.99338 8.47267 2.24272 8.68855C2.49207 8.90444 2.78781 9.05994 3.107 9.143V14.858C2.78851 14.9419 2.49358 15.0979 2.24504 15.314C1.9965 15.5301 1.80101 15.8005 1.67369 16.1042C1.54637 16.408 1.49064 16.7369 1.51081 17.0657C1.53098 17.3944 1.6265 17.7141 1.79 18C1.95383 18.2852 2.18149 18.5286 2.45511 18.711C2.72874 18.8935 3.04091 19.0102 3.36716 19.0518C3.69341 19.0935 4.02487 19.059 4.33557 18.9511C4.64627 18.8432 4.92776 18.6649 5.158 18.43L9.953 21.256C9.89568 21.4525 9.86672 21.6563 9.867 21.861C9.86634 22.1416 9.92102 22.4195 10.0279 22.679C10.1348 22.9384 10.2918 23.1742 10.4899 23.3728C10.688 23.5715 10.9234 23.7292 11.1825 23.8368C11.4416 23.9444 11.7194 23.9999 12 24C12.3414 23.9993 12.6777 23.9168 12.9807 23.7594C13.2836 23.6021 13.5445 23.3745 13.7415 23.0956C13.9385 22.8168 14.0659 22.4948 14.1129 22.1567C14.16 21.8185 14.1254 21.474 14.012 21.152L18.763 18.352C18.9869 18.6051 19.268 18.8012 19.5828 18.9241C19.8976 19.0471 20.2371 19.0932 20.5733 19.0588C20.9095 19.0244 21.2327 18.9104 21.5161 18.7263C21.7995 18.5422 22.035 18.2932 22.203 18C22.3715 17.7094 22.4691 17.3832 22.488 17.0478C22.5069 16.7125 22.4465 16.3774 22.3117 16.0697C22.1769 15.7621 21.9715 15.4905 21.7121 15.277C21.4528 15.0635 21.1468 14.9142 20.819 14.841V9.161C21.1471 9.08774 21.4534 8.93844 21.7133 8.72514C21.9731 8.51185 22.1793 8.2405 22.3151 7.93297C22.4509 7.62544 22.5126 7.2903 22.4952 6.95456C22.4778 6.61882 22.3819 6.29186 22.215 6C22.0489 5.71166 21.8177 5.46616 21.5398 5.28315C21.2619 5.10013 20.945 4.98467 20.6146 4.94599C20.2841 4.90732 19.9491 4.9465 19.6365 5.06041C19.3238 5.17432 19.0422 5.35979 18.814 5.602L14.034 2.786L14.033 2.787ZM13.434 3.724L13.509 3.652L18.317 6.485C18.2386 6.76028 18.2162 7.04847 18.2511 7.33255C18.2859 7.61664 18.3774 7.89085 18.52 8.139C18.6597 8.38398 18.847 8.59861 19.0707 8.77032C19.2945 8.94203 19.5502 9.06737 19.823 9.139V14.859C19.7968 14.8662 19.7708 14.8738 19.745 14.882L13.434 3.724ZM18.329 17.582L13.555 20.396C13.3561 20.1831 13.1154 20.0133 12.8481 19.8974C12.5807 19.7814 12.2924 19.7217 12.001 19.722C11.395 19.722 10.849 19.974 10.461 20.38L5.676 17.56C5.688 17.521 5.699 17.482 5.708 17.442H18.29C18.302 17.489 18.315 17.536 18.33 17.582H18.329Z" fill="#070F21"/>
</svg>
