<svg width="24" height="24" viewBox="0 0 24 24" fill="none" xmlns="http://www.w3.org/2000/svg">
<path d="M7.31556 15.8421L5.7767 17.3843V4.5047C5.7767 4.28032 5.68756 4.06513 5.5289 3.90646C5.37024 3.7478 5.15505 3.65867 4.93067 3.65867C4.70629 3.65867 4.49109 3.7478 4.33243 3.90646C4.17377 4.06513 4.08464 4.28032 4.08464 4.5047V17.3833L2.54572 15.8433L2.54569 15.8433C2.46701 15.7646 2.3736 15.7022 2.2708 15.6596C2.168 15.617 2.05782 15.5951 1.94654 15.5951C1.83527 15.5951 1.72509 15.617 1.62229 15.6596C1.51948 15.7022 1.42608 15.7646 1.34739 15.8433C1.26871 15.922 1.2063 16.0154 1.16372 16.1182C1.12114 16.221 1.09922 16.3312 1.09922 16.4424C1.09922 16.5537 1.12114 16.6639 1.16372 16.7667C1.2063 16.8695 1.26871 16.9629 1.34739 17.0416L1.34742 17.0416L4.33155 20.0233L4.33143 20.0234L4.33579 20.0273L4.34528 20.0357C4.50396 20.1898 4.717 20.2752 4.93827 20.2734C5.16022 20.2715 5.37244 20.182 5.52867 20.0244C5.52876 20.0243 5.52884 20.0242 5.52892 20.0241L8.51265 17.0404C8.51267 17.0404 8.51268 17.0404 8.5127 17.0403C8.67159 16.8816 8.76092 16.6663 8.76105 16.4417C8.76119 16.2171 8.67209 16.0016 8.51336 15.8427C8.35463 15.6838 8.13928 15.5944 7.91467 15.5943C7.69006 15.5942 7.4746 15.6833 7.31568 15.842L7.31556 15.8421ZM11.0467 5.39853C10.8881 5.55719 10.7989 5.77238 10.7989 5.99676C10.7989 6.22114 10.8881 6.43633 11.0467 6.59499C11.2054 6.75366 11.4206 6.84279 11.6449 6.84279H22.0894C22.3138 6.84279 22.5289 6.75366 22.6876 6.59499C22.8463 6.43633 22.9354 6.22114 22.9354 5.99676C22.9354 5.77238 22.8463 5.55719 22.6876 5.39853C22.5289 5.23986 22.3138 5.15073 22.0894 5.15073H11.6449C11.4206 5.15073 11.2054 5.23986 11.0467 5.39853ZM11.6449 9.62691C11.4206 9.62691 11.2054 9.71605 11.0467 9.87471C10.8881 10.0334 10.7989 10.2486 10.7989 10.4729C10.7989 10.6973 10.8881 10.9125 11.0467 11.0712C11.2054 11.2298 11.4206 11.319 11.6449 11.319H19.1053C19.3296 11.319 19.5448 11.2298 19.7035 11.0712C19.8622 10.9125 19.9513 10.6973 19.9513 10.4729C19.9513 10.2486 19.8622 10.0334 19.7035 9.87471C19.5448 9.71605 19.3296 9.62691 19.1053 9.62691H11.6449ZM11.6449 14.1031C11.4206 14.1031 11.2054 14.1922 11.0467 14.3509C10.8881 14.5096 10.7989 14.7248 10.7989 14.9491C10.7989 15.1735 10.8881 15.3887 11.0467 15.5474C11.2054 15.706 11.4206 15.7952 11.6449 15.7952H16.1211C16.3455 15.7952 16.5607 15.706 16.7194 15.5474C16.878 15.3887 16.9672 15.1735 16.9672 14.9491C16.9672 14.7248 16.878 14.5096 16.7194 14.3509C16.5607 14.1922 16.3455 14.1031 16.1211 14.1031H11.6449ZM11.6449 18.5793C11.5338 18.5793 11.4238 18.6012 11.3212 18.6437C11.2185 18.6862 11.1253 18.7485 11.0467 18.8271C10.9682 18.9056 10.9058 18.9989 10.8633 19.1016C10.8208 19.2042 10.7989 19.3142 10.7989 19.4253C10.7989 19.5364 10.8208 19.6464 10.8633 19.7491C10.9058 19.8517 10.9682 19.945 11.0467 20.0236C11.1253 20.1021 11.2185 20.1644 11.3212 20.2069C11.4238 20.2495 11.5338 20.2713 11.6449 20.2713H13.137C13.2481 20.2713 13.3581 20.2495 13.4608 20.2069C13.5634 20.1644 13.6567 20.1021 13.7352 20.0236C13.8138 19.945 13.8761 19.8517 13.9186 19.7491C13.9612 19.6464 13.983 19.5364 13.983 19.4253C13.983 19.3142 13.9612 19.2042 13.9186 19.1016C13.8761 18.9989 13.8138 18.9056 13.7352 18.8271C13.6567 18.7485 13.5634 18.6862 13.4608 18.6437C13.3581 18.6012 13.2481 18.5793 13.137 18.5793H11.6449Z" fill="#070F21" stroke="#070F21" stroke-width="0.2"/>
</svg>
