<svg width="22" height="22" viewBox="0 0 22 22" fill="none" xmlns="http://www.w3.org/2000/svg">
<path d="M15.1038 4.95742L17.0453 6.898M16.3523 3.24784L11.1025 8.49759C10.8313 8.76846 10.6463 9.11357 10.5709 9.48942L10.0859 11.9168L12.5133 11.4309C12.8891 11.3558 13.2338 11.1715 13.5051 10.9002L18.7549 5.65042C18.9126 5.49266 19.0377 5.30538 19.1231 5.09926C19.2085 4.89314 19.2524 4.67223 19.2524 4.44913C19.2524 4.22603 19.2085 4.00511 19.1231 3.79899C19.0377 3.59287 18.9126 3.40559 18.7549 3.24784C18.5971 3.09008 18.4098 2.96494 18.2037 2.87956C17.9976 2.79419 17.7767 2.75024 17.5536 2.75024C17.3305 2.75024 17.1095 2.79419 16.9034 2.87956C16.6973 2.96494 16.51 3.09008 16.3523 3.24784V3.24784Z" stroke="#070F21" stroke-width="1.5" stroke-linecap="round" stroke-linejoin="round"/>
<path d="M17.4141 13.7499V16.4999C17.4141 16.9861 17.2209 17.4525 16.8771 17.7963C16.5333 18.1401 16.067 18.3333 15.5807 18.3333H5.4974C5.01117 18.3333 4.54485 18.1401 4.20103 17.7963C3.85722 17.4525 3.66406 16.9861 3.66406 16.4999V6.41659C3.66406 5.93036 3.85722 5.46404 4.20103 5.12022C4.54485 4.77641 5.01117 4.58325 5.4974 4.58325H8.2474" stroke="#070F21" stroke-width="1.5" stroke-linecap="round" stroke-linejoin="round"/>
</svg>
