<svg width="533" height="324" viewBox="0 0 533 324" fill="none" xmlns="http://www.w3.org/2000/svg">
<mask id="path-1-inside-1_2_2345" fill="white">
<path fill-rule="evenodd" clip-rule="evenodd" d="M511.158 10L505 0L498.842 10H8C3.58172 10 0 13.5817 0 18V316C0 320.418 3.58173 324 8.00001 324H525C529.418 324 533 320.418 533 316V18C533 13.5817 529.418 10 525 10H511.158Z"/>
</mask>
<path fill-rule="evenodd" clip-rule="evenodd" d="M511.158 10L505 0L498.842 10H8C3.58172 10 0 13.5817 0 18V316C0 320.418 3.58173 324 8.00001 324H525C529.418 324 533 320.418 533 316V18C533 13.5817 529.418 10 525 10H511.158Z" fill="white"/>
<path d="M505 0L505.851 -0.524378L505 -1.90702L504.149 -0.52438L505 0ZM511.158 10L510.307 10.5244L510.6 11H511.158V10ZM498.842 10V11H499.4L499.693 10.5244L498.842 10ZM504.149 0.524378L510.307 10.5244L512.01 9.47562L505.851 -0.524378L504.149 0.524378ZM499.693 10.5244L505.851 0.52438L504.149 -0.52438L497.99 9.47562L499.693 10.5244ZM8 11H498.842V9H8V11ZM1 18C1 14.134 4.13401 11 8 11V9C3.02944 9 -1 13.0294 -1 18H1ZM1 316V18H-1V316H1ZM8.00001 323C4.13402 323 1 319.866 1 316H-1C-1 320.971 3.02945 325 8.00001 325V323ZM525 323H8.00001V325H525V323ZM532 316C532 319.866 528.866 323 525 323V325C529.971 325 534 320.971 534 316H532ZM532 18V316H534V18H532ZM525 11C528.866 11 532 14.134 532 18H534C534 13.0294 529.971 9 525 9V11ZM511.158 11H525V9H511.158V11Z" fill="#070F21" fill-opacity="0.1" mask="url(#path-1-inside-1_2_2345)"/>
</svg>
