<svg width="34" height="34" viewBox="0 0 34 34" fill="none" xmlns="http://www.w3.org/2000/svg">
<path d="M26.8866 8.2875L22.7035 3.2725C22.4048 2.91293 22.0304 2.62366 21.6071 2.42532C21.1838 2.22698 20.7219 2.12444 20.2544 2.125H9.5625C8.71712 2.125 7.90637 2.46083 7.3086 3.0586C6.71083 3.65637 6.375 4.46712 6.375 5.3125V28.6875C6.375 29.5329 6.71083 30.3436 7.3086 30.9414C7.90637 31.5392 8.71712 31.875 9.5625 31.875H24.4375C25.2829 31.875 26.0936 31.5392 26.6914 30.9414C27.2892 30.3436 27.625 29.5329 27.625 28.6875V10.3318C27.6253 9.58498 27.3641 8.86168 26.8866 8.2875ZM24.2941 8.5H21.25V4.84713L24.2941 8.5ZM25.5 28.6875C25.5 28.9693 25.3881 29.2395 25.1888 29.4388C24.9895 29.6381 24.7193 29.75 24.4375 29.75H9.5625C9.28071 29.75 9.01046 29.6381 8.8112 29.4388C8.61194 29.2395 8.5 28.9693 8.5 28.6875V5.3125C8.5 5.03071 8.61194 4.76046 8.8112 4.5612C9.01046 4.36194 9.28071 4.25 9.5625 4.25H19.125V8.5C19.125 9.06359 19.3489 9.60409 19.7474 10.0026C20.1459 10.4011 20.6864 10.625 21.25 10.625H25.5V28.6875Z" fill="#070F21"/>
<path d="M11.6875 11.6875H13.8125C14.0943 11.6875 14.3645 11.5756 14.5638 11.3763C14.7631 11.177 14.875 10.9068 14.875 10.625C14.875 10.3432 14.7631 10.073 14.5638 9.8737C14.3645 9.67444 14.0943 9.5625 13.8125 9.5625H11.6875C11.4057 9.5625 11.1355 9.67444 10.9362 9.8737C10.7369 10.073 10.625 10.3432 10.625 10.625C10.625 10.9068 10.7369 11.177 10.9362 11.3763C11.1355 11.5756 11.4057 11.6875 11.6875 11.6875Z" fill="#070F21"/>
<path d="M10.625 15.9375C10.625 16.2193 10.7369 16.4895 10.9362 16.6888C11.1355 16.8881 11.4057 17 11.6875 17H22.3125C22.5943 17 22.8645 16.8881 23.0638 16.6888C23.2631 16.4895 23.375 16.2193 23.375 15.9375C23.375 15.6557 23.2631 15.3855 23.0638 15.1862C22.8645 14.9869 22.5943 14.875 22.3125 14.875H11.6875C11.4057 14.875 11.1355 14.9869 10.9362 15.1862C10.7369 15.3855 10.625 15.6557 10.625 15.9375Z" fill="#070F21"/>
<path d="M22.3125 19.125H11.6875C11.4057 19.125 11.1355 19.2369 10.9362 19.4362C10.7369 19.6355 10.625 19.9057 10.625 20.1875C10.625 20.4693 10.7369 20.7395 10.9362 20.9388C11.1355 21.1381 11.4057 21.25 11.6875 21.25H22.3125C22.5943 21.25 22.8645 21.1381 23.0638 20.9388C23.2631 20.7395 23.375 20.4693 23.375 20.1875C23.375 19.9057 23.2631 19.6355 23.0638 19.4362C22.8645 19.2369 22.5943 19.125 22.3125 19.125Z" fill="#070F21"/>
<path d="M22.3125 27.0087C21.9986 27.0079 21.6883 26.9413 21.4017 26.8132C21.1151 26.6851 20.8586 26.4984 20.6486 26.265C20.5954 26.2096 20.5378 26.1584 20.4765 26.112C20.3954 26.1469 20.3228 26.1991 20.264 26.265C20.054 26.4986 19.7971 26.6854 19.5102 26.8132C19.2233 26.9411 18.9127 27.0072 18.5985 27.0072C18.2844 27.0072 17.9738 26.9411 17.6869 26.8132C17.3999 26.6854 17.1431 26.4986 16.9331 26.265C16.8789 26.2097 16.8207 26.1585 16.7588 26.112C16.6752 26.1453 16.6006 26.1977 16.541 26.265C16.3306 26.4984 16.0736 26.6851 15.7867 26.8132C15.4998 26.9413 15.1892 27.0079 14.875 27.0087C14.5932 27.0087 14.323 26.8968 14.1237 26.6975C13.9244 26.4983 13.8125 26.228 13.8125 25.9462C13.8125 25.6645 13.9244 25.3942 14.1237 25.1949C14.323 24.9957 14.5932 24.8837 14.875 24.8837C14.9486 24.8455 15.0148 24.7944 15.0705 24.7329C15.2807 24.4994 15.5377 24.3127 15.8247 24.185C16.1117 24.0572 16.4223 23.9911 16.7365 23.9911C17.0507 23.9911 17.3613 24.0572 17.6483 24.185C17.9353 24.3127 18.1923 24.4994 18.4025 24.7329C18.4566 24.7879 18.5144 24.839 18.5757 24.8859C18.6576 24.8523 18.7304 24.7999 18.7882 24.7329C18.998 24.4993 19.2547 24.3126 19.5414 24.1847C19.8282 24.0569 20.1386 23.9908 20.4526 23.9908C20.7666 23.9908 21.077 24.0569 21.3638 24.1847C21.6505 24.3126 21.9072 24.4993 22.117 24.7329C22.1699 24.7883 22.2271 24.8394 22.2881 24.8859C22.571 24.885 22.8427 24.9964 23.0437 25.1956C23.2446 25.3947 23.3584 25.6654 23.3601 25.9484C23.3611 26.0868 23.3348 26.2241 23.2826 26.3524C23.2305 26.4806 23.1536 26.5974 23.0562 26.6958C22.9589 26.7943 22.8432 26.8727 22.7155 26.9264C22.5879 26.9801 22.451 27.0081 22.3125 27.0087Z" fill="#070F21"/>
</svg>
