<svg width="16" height="16" viewBox="0 0 16 16" fill="none" xmlns="http://www.w3.org/2000/svg">
<path fill-rule="evenodd" clip-rule="evenodd" d="M5.33334 2.93372C5.33334 2.63917 5.09456 2.40039 4.80001 2.40039C4.50546 2.40039 4.26667 2.63917 4.26667 2.93372V8.58706C4.26667 10.6489 5.93815 12.3204 8.00001 12.3204C10.0619 12.3204 11.7333 10.6489 11.7333 8.58706V2.93372C11.7333 2.63917 11.4946 2.40039 11.2 2.40039C10.9055 2.40039 10.6667 2.63917 10.6667 2.93372V8.58706C10.6667 10.0598 9.47276 11.2537 8.00001 11.2537C6.52725 11.2537 5.33334 10.0598 5.33334 8.58706V2.93372ZM3.73331 13.9738C3.49766 13.9738 3.30664 14.1648 3.30664 14.4005C3.30664 14.6361 3.49766 14.8272 3.73331 14.8272H12.2667C12.5023 14.8272 12.6933 14.6361 12.6933 14.4005C12.6933 14.1648 12.5023 13.9738 12.2667 13.9738H3.73331Z" fill="#070F21"/>
</svg>
