<svg width="24" height="24" viewBox="0 0 24 24" fill="none" xmlns="http://www.w3.org/2000/svg">
<g clip-path="url(#clip0_2_23201)">
<path d="M23.25 12C23.2496 9.64325 22.509 7.34613 21.1328 5.4329C19.7567 3.51966 17.8144 2.08692 15.5802 1.33692C13.3459 0.58691 10.9326 0.557509 8.68072 1.25286C6.42888 1.94822 4.45228 3.33321 3.02991 5.21235C1.60754 7.0915 0.811232 9.36989 0.75339 11.7259C0.695549 14.082 1.37909 16.3967 2.70754 18.3434C4.03598 20.2901 5.94224 21.7704 8.15725 22.5754C10.3723 23.3804 12.7842 23.4695 15.0525 22.83C15.7518 23.1079 16.4975 23.2505 17.25 23.25C18.8413 23.25 20.3674 22.6179 21.4926 21.4926C22.6179 20.3674 23.25 18.8413 23.25 17.25C23.2505 16.4975 23.1079 15.7518 22.83 15.0525C23.1086 14.0589 23.2499 13.0319 23.25 12ZM17.25 11.25C17.25 10.74 17.2125 10.2375 17.1675 9.75001H21.495C21.6678 10.4874 21.7534 11.2426 21.75 12C21.7489 12.4039 21.7214 12.8072 21.6675 13.2075C21.1071 12.5928 20.425 12.1014 19.6645 11.7644C18.904 11.4274 18.0818 11.2523 17.25 11.25ZM12 21.75C10.6425 21.75 9.18 19.41 8.5575 15.75H11.445C11.3188 16.2401 11.2533 16.7439 11.25 17.25C11.2522 18.7964 11.8514 20.2822 12.9225 21.3975C12.6636 21.6158 12.3385 21.74 12 21.75ZM12.06 14.25H8.355C8.2875 13.5375 8.25 12.7875 8.25 12C8.25 11.2125 8.2875 10.4625 8.355 9.75001H15.645C15.6975 10.2975 15.7275 10.86 15.735 11.4525C14.968 11.6529 14.2483 12.0033 13.6175 12.4835C12.9868 12.9636 12.4574 13.5641 12.06 14.25ZM2.25 12C2.25155 11.242 2.34217 10.4868 2.52 9.75001H6.8475C6.7875 10.5 6.75 11.25 6.75 12C6.75 12.75 6.7875 13.5 6.8475 14.25H2.52C2.34217 13.5132 2.25155 12.758 2.25 12ZM12 2.25001C13.3575 2.25001 14.82 4.59001 15.4425 8.25001H8.5575C9.18 4.59001 10.6425 2.25001 12 2.25001ZM21 8.25001H16.965C16.724 6.3015 16.0749 4.42569 15.06 2.74501C16.3845 3.18774 17.5993 3.90774 18.6236 4.857C19.6479 5.80626 20.458 6.96297 21 8.25001ZM8.94 2.74501C7.92509 4.42569 7.27597 6.3015 7.035 8.25001H3C3.542 6.96297 4.35214 5.80626 5.37641 4.857C6.40067 3.90774 7.61554 3.18774 8.94 2.74501ZM3 15.75H7.035C7.27597 17.6985 7.92509 19.5743 8.94 21.255C7.61554 20.8123 6.40067 20.0923 5.37641 19.143C4.35214 18.1938 3.542 17.037 3 15.75ZM17.25 21.75C16.36 21.75 15.49 21.4861 14.7499 20.9916C14.0099 20.4972 13.4331 19.7943 13.0925 18.9721C12.7519 18.1498 12.6628 17.245 12.8365 16.3721C13.0101 15.4992 13.4387 14.6974 14.068 14.068C14.6974 13.4387 15.4992 13.0101 16.3721 12.8365C17.245 12.6628 18.1498 12.752 18.9721 13.0925C19.7943 13.4331 20.4972 14.0099 20.9916 14.7499C21.4861 15.49 21.75 16.36 21.75 17.25C21.75 18.4435 21.2759 19.5881 20.432 20.432C19.5881 21.2759 18.4435 21.75 17.25 21.75Z" fill="#070F21"/>
<path d="M18 16.9425V14.25C18 14.0511 17.921 13.8603 17.7803 13.7197C17.6397 13.579 17.4489 13.5 17.25 13.5C17.0511 13.5 16.8603 13.579 16.7197 13.7197C16.579 13.8603 16.5 14.0511 16.5 14.25V17.25C16.4994 17.3487 16.5184 17.4466 16.5557 17.5379C16.593 17.6293 16.648 17.7124 16.7175 17.7825L18.2175 19.2825C18.2872 19.3528 18.3702 19.4086 18.4616 19.4467C18.553 19.4847 18.651 19.5043 18.75 19.5043C18.849 19.5043 18.9471 19.4847 19.0384 19.4467C19.1298 19.4086 19.2128 19.3528 19.2825 19.2825C19.3528 19.2128 19.4086 19.1298 19.4467 19.0384C19.4848 18.947 19.5044 18.849 19.5044 18.75C19.5044 18.651 19.4848 18.553 19.4467 18.4616C19.4086 18.3702 19.3528 18.2872 19.2825 18.2175L18 16.9425Z" fill="#070F21"/>
</g>
<defs>
<clipPath id="clip0_2_23201">
<rect width="24" height="24" fill="white"/>
</clipPath>
</defs>
</svg>
