<svg width="24" height="24" viewBox="0 0 24 24" fill="none" xmlns="http://www.w3.org/2000/svg">
<g clip-path="url(#clip0_2_23145)">
<path d="M13.8312 21.0552C13.0992 21.228 12.3408 21.3168 11.5824 21.3168C6.22319 21.3168 1.86239 16.956 1.86239 11.5968C1.86239 6.23759 6.22319 1.87679 11.5824 1.87679C16.9416 1.87679 21.3024 6.23759 21.3024 11.5968C21.3024 12.384 21.2088 13.1688 21.0216 13.9272C20.9136 14.3616 21.18 14.8008 21.6144 14.9064C22.0488 15.0192 22.488 14.7504 22.5936 14.3136C22.812 13.428 22.9224 12.5136 22.9224 11.5944C22.9224 5.33999 17.8344 0.254395 11.5824 0.254395C5.32799 0.254395 0.23999 5.34239 0.23999 11.5944C0.23999 17.8488 5.32799 22.9368 11.58 22.9368C12.4656 22.9368 13.3488 22.8336 14.2032 22.632C14.6376 22.5288 14.9088 22.0944 14.8032 21.6576C14.7024 21.2208 14.2656 20.9496 13.8312 21.0552Z" fill="#070F21"/>
<path d="M6.00479 14.2728C5.65199 14.5488 5.58959 15.0576 5.86559 15.4104C7.25759 17.1912 9.35039 18.2112 11.6088 18.2112C13.8912 18.2112 15.9984 17.172 17.3904 15.3624C17.664 15.0072 17.5968 14.5008 17.2416 14.2272C16.8864 13.9536 16.38 14.0208 16.1064 14.376C15.024 15.7848 13.3848 16.5912 11.6088 16.5912C9.85199 16.5912 8.22479 15.7968 7.13999 14.412C6.86639 14.0592 6.35519 13.9992 6.00479 14.2728Z" fill="#070F21"/>
<path d="M9.17758 10.4616V8.8416C9.17758 8.1696 8.63518 7.6272 7.96318 7.6272C7.29118 7.6272 6.74878 8.1696 6.74878 8.8416V10.4616C6.74878 11.1336 7.29118 11.676 7.96318 11.676C8.63518 11.676 9.17758 11.1312 9.17758 10.4616Z" fill="#070F21"/>
<path d="M16.4688 10.4616V8.8416C16.4688 8.1696 15.924 7.6272 15.2544 7.6272C14.5848 7.6272 14.04 8.1696 14.04 8.8392V10.4592C14.04 11.1312 14.5848 11.6736 15.2544 11.6736C15.924 11.6736 16.4688 11.1312 16.4688 10.4616Z" fill="#070F21"/>
<path d="M22.9488 18.8856H20.52V16.4544C20.52 16.0056 20.1576 15.6432 19.7088 15.6432C19.26 15.6432 18.8976 16.0056 18.8976 16.4544V18.8856H16.4688C16.02 18.8856 15.6576 19.248 15.6576 19.6968C15.6576 20.1456 16.02 20.508 16.4688 20.508H18.9V22.9392C18.9 23.388 19.2624 23.7504 19.7112 23.7504C20.16 23.7504 20.5224 23.388 20.5224 22.9392V20.5056H22.9536C23.4024 20.5056 23.7648 20.1432 23.7648 19.6944C23.7648 19.2456 23.3976 18.8856 22.9488 18.8856Z" fill="#070F21"/>
</g>
<defs>
<clipPath id="clip0_2_23145">
<rect width="24" height="24" fill="white"/>
</clipPath>
</defs>
</svg>
