<svg width="24" height="24" viewBox="0 0 24 24" fill="none" xmlns="http://www.w3.org/2000/svg">
<path d="M11.577 16.248L5.82202 9.66899C5.14202 8.89499 5.69402 7.67899 6.72502 7.67899H18.235C18.466 7.67851 18.6922 7.74469 18.8864 7.86958C19.0807 7.99447 19.2348 8.17277 19.3302 8.38308C19.4257 8.59339 19.4584 8.82678 19.4245 9.05523C19.3906 9.28367 19.2915 9.49748 19.139 9.67099L13.384 16.247C13.2716 16.3761 13.1327 16.4797 12.9769 16.5506C12.821 16.6216 12.6518 16.6583 12.4805 16.6583C12.3093 16.6583 12.14 16.6216 11.9842 16.5506C11.8283 16.4797 11.6895 16.3761 11.577 16.247V16.248Z" fill="#070F21"/>
</svg>
