<svg width="24" height="24" viewBox="0 0 24 24" fill="none" xmlns="http://www.w3.org/2000/svg">
<path d="M18.8496 1.25H16.1504C13.4893 1.25 12.25 2.48926 12.25 5.15039V8.84961C12.25 11.5107 13.4893 12.75 16.1504 12.75H18.8496C21.5107 12.75 22.75 11.5107 22.75 8.84961V5.15039C22.75 2.48926 21.5107 1.25 18.8496 1.25ZM21.25 8.84961C21.25 10.6895 20.6895 11.25 18.8496 11.25H16.1504C14.3106 11.25 13.75 10.6895 13.75 8.84961V5.15039C13.75 3.31055 14.3106 2.75 16.1504 2.75H18.8496C20.6895 2.75 21.25 3.31055 21.25 5.15039V8.84961ZM7.84961 11.25H5.15039C2.48926 11.25 1.25 12.4893 1.25 15.1504V18.8496C1.25 21.5107 2.48926 22.75 5.15039 22.75H7.84961C10.5107 22.75 11.75 21.5107 11.75 18.8496V15.1504C11.75 12.4893 10.5107 11.25 7.84961 11.25ZM10.25 18.8496C10.25 20.6895 9.68945 21.25 7.84961 21.25H5.15039C3.31055 21.25 2.75 20.6895 2.75 18.8496V15.1504C2.75 13.3106 3.31055 12.75 5.15039 12.75H7.84961C9.68945 12.75 10.25 13.3106 10.25 15.1504V18.8496ZM22.75 15C22.7477 17.0547 21.9305 19.0246 20.4775 20.4775C19.0246 21.9305 17.0547 22.7477 15 22.75C14.8674 22.7498 14.7371 22.7145 14.6226 22.6477C14.508 22.5808 14.4132 22.4848 14.3478 22.3694C14.2824 22.254 14.2487 22.1233 14.2503 21.9906C14.2518 21.858 14.2884 21.7281 14.3565 21.6143L15.4063 19.8643C15.5089 19.6943 15.6747 19.572 15.8674 19.5241C16.0601 19.4762 16.2639 19.5066 16.4342 19.6087C16.6045 19.7107 16.7274 19.8762 16.776 20.0687C16.8246 20.2612 16.7948 20.4651 16.6934 20.6357L16.4229 21.0869C17.7952 20.7639 19.0185 19.9873 19.8945 18.8826C20.7706 17.7779 21.2482 16.4099 21.25 15C21.25 14.8011 21.329 14.6103 21.4697 14.4697C21.6103 14.329 21.8011 14.25 22 14.25C22.1989 14.25 22.3897 14.329 22.5303 14.4697C22.671 14.6103 22.75 14.8011 22.75 15ZM1.25 9C1.2523 6.94528 2.06955 4.97537 3.52246 3.52246C4.97537 2.06955 6.94528 1.2523 9 1.25C9.13265 1.25017 9.26289 1.28548 9.37745 1.35234C9.49202 1.4192 9.58682 1.51522 9.65222 1.63063C9.71761 1.74604 9.75126 1.87671 9.74974 2.00935C9.74822 2.14199 9.71158 2.27186 9.64355 2.38574L8.59375 4.13574C8.49109 4.30568 8.32525 4.42801 8.13258 4.47592C7.9399 4.52383 7.73608 4.49341 7.56579 4.39134C7.39549 4.28926 7.27259 4.12385 7.22402 3.93134C7.17544 3.73883 7.20515 3.53491 7.30664 3.36426L7.57715 2.91309C6.20475 3.23606 4.98152 4.01275 4.10547 5.11742C3.22941 6.2221 2.75182 7.59011 2.75 9C2.75 9.19891 2.67098 9.38968 2.53033 9.53033C2.38968 9.67098 2.19891 9.75 2 9.75C1.80109 9.75 1.61032 9.67098 1.46967 9.53033C1.32902 9.38968 1.25 9.19891 1.25 9Z" fill="#070F21"/>
</svg>
