<svg width="16" height="16" viewBox="0 0 16 16" fill="none" xmlns="http://www.w3.org/2000/svg">
<path fill-rule="evenodd" clip-rule="evenodd" d="M5.33362 3.46693C5.33362 3.17238 5.09484 2.93359 4.80029 2.93359C4.50574 2.93359 4.26695 3.17238 4.26695 3.46693V7.57363H2.6669C2.43125 7.57363 2.24023 7.76465 2.24023 8.00029C2.24023 8.23593 2.43125 8.42696 2.6669 8.42696H4.26695V9.12026C4.26695 11.1821 5.93842 12.8536 8.00029 12.8536C10.0622 12.8536 11.7336 11.1821 11.7336 9.12026V8.42696H13.3336C13.5692 8.42696 13.7603 8.23593 13.7603 8.00029C13.7603 7.76465 13.5692 7.57363 13.3336 7.57363H11.7336V3.46693C11.7336 3.17238 11.4949 2.93359 11.2003 2.93359C10.9057 2.93359 10.6669 3.17238 10.6669 3.46693V7.57363H5.33362V3.46693ZM5.33362 8.42696V9.12026C5.33362 10.593 6.52753 11.7869 8.00029 11.7869C9.47304 11.7869 10.6669 10.593 10.6669 9.12026V8.42696H5.33362Z" fill="#070F21"/>
</svg>
