<svg width="24" height="24" viewBox="0 0 24 24" fill="none" xmlns="http://www.w3.org/2000/svg">
<path d="M18.561 3.33333H17.7857V2.66667C17.7857 2.48986 17.718 2.32029 17.5974 2.19526C17.4769 2.07024 17.3134 2 17.1429 2C16.9724 2 16.8088 2.07024 16.6883 2.19526C16.5677 2.32029 16.5 2.48986 16.5 2.66667V3.33333H12.6429V2.66667C12.6429 2.48986 12.5751 2.32029 12.4546 2.19526C12.334 2.07024 12.1705 2 12 2C11.8295 2 11.666 2.07024 11.5454 2.19526C11.4249 2.32029 11.3571 2.48986 11.3571 2.66667V3.33333H7.5V2.66667C7.5 2.48986 7.43227 2.32029 7.31171 2.19526C7.19115 2.07024 7.02764 2 6.85714 2C6.68665 2 6.52313 2.07024 6.40257 2.19526C6.28202 2.32029 6.21429 2.48986 6.21429 2.66667V3.33333H5.439C4.79245 3.33439 4.17267 3.60121 3.71549 4.07533C3.25831 4.54944 3.00102 5.19217 3 5.86267V19.4707C3.00102 20.1412 3.25831 20.7839 3.71549 21.258C4.17267 21.7321 4.79245 21.9989 5.439 22H18.561C19.2076 21.9989 19.8273 21.7321 20.2845 21.258C20.7417 20.7839 20.999 20.1412 21 19.4707V5.86267C20.999 5.19217 20.7417 4.54944 20.2845 4.07533C19.8273 3.60121 19.2076 3.33439 18.561 3.33333ZM19.7143 19.4707C19.7133 19.7875 19.5914 20.0911 19.3754 20.3152C19.1593 20.5393 18.8666 20.6656 18.561 20.6667H5.439C5.13344 20.6656 4.84069 20.5393 4.62463 20.3152C4.40856 20.0911 4.28673 19.7875 4.28571 19.4707V5.86267C4.28673 5.54579 4.40856 5.2422 4.62463 5.01813C4.84069 4.79407 5.13344 4.66772 5.439 4.66667H6.21429V5.33333C6.21429 5.51014 6.28202 5.67971 6.40257 5.80474C6.52313 5.92976 6.68665 6 6.85714 6C7.02764 6 7.19115 5.92976 7.31171 5.80474C7.43227 5.67971 7.5 5.51014 7.5 5.33333V4.66667H11.3571V5.33333C11.3571 5.51014 11.4249 5.67971 11.5454 5.80474C11.666 5.92976 11.8295 6 12 6C12.1705 6 12.334 5.92976 12.4546 5.80474C12.5751 5.67971 12.6429 5.51014 12.6429 5.33333V4.66667H16.5V5.33333C16.5 5.51014 16.5677 5.67971 16.6883 5.80474C16.8088 5.92976 16.9724 6 17.1429 6C17.3134 6 17.4769 5.92976 17.5974 5.80474C17.718 5.67971 17.7857 5.51014 17.7857 5.33333V4.66667H18.561C18.8666 4.66772 19.1593 4.79407 19.3754 5.01813C19.5914 5.2422 19.7133 5.54579 19.7143 5.86267V19.4707Z" fill="#070F21"/>
<path d="M9.78949 9.16885L8.15163 10.5481L7.22806 9.77035C7.16217 9.7129 7.08335 9.66708 6.99621 9.63556C6.90906 9.60403 6.81533 9.58744 6.72049 9.58674C6.62565 9.58605 6.53159 9.60127 6.44381 9.63151C6.35603 9.66176 6.27628 9.70642 6.20921 9.7629C6.14214 9.81937 6.08911 9.88653 6.05319 9.96046C6.01728 10.0344 5.9992 10.1136 6.00003 10.1935C6.00085 10.2733 6.02056 10.3522 6.05799 10.4256C6.09543 10.499 6.14984 10.5654 6.21806 10.6209L7.64663 11.8239C7.78058 11.9367 7.96223 12 8.15163 12C8.34104 12 8.52269 11.9367 8.65663 11.8239L10.7995 10.0194C10.9296 9.90593 11.0016 9.75399 11 9.59628C10.9983 9.43856 10.9232 9.2877 10.7908 9.17618C10.6584 9.06465 10.4792 9.00139 10.2919 9.00002C10.1046 8.99865 9.92421 9.05928 9.78949 9.16885Z" fill="#070F21"/>
<path d="M17.3333 10H12.6667C12.4899 10 12.3203 10.0527 12.1953 10.1464C12.0702 10.2402 12 10.3674 12 10.5C12 10.6326 12.0702 10.7598 12.1953 10.8536C12.3203 10.9473 12.4899 11 12.6667 11H17.3333C17.5101 11 17.6797 10.9473 17.8047 10.8536C17.9298 10.7598 18 10.6326 18 10.5C18 10.3674 17.9298 10.2402 17.8047 10.1464C17.6797 10.0527 17.5101 10 17.3333 10Z" fill="#070F21"/>
<path d="M9.78949 15.1688L8.15163 16.5481L7.22806 15.7704C7.16217 15.7129 7.08335 15.6671 6.99621 15.6356C6.90906 15.604 6.81533 15.5874 6.72049 15.5867C6.62565 15.586 6.53159 15.6013 6.44381 15.6315C6.35603 15.6618 6.27628 15.7064 6.20921 15.7629C6.14214 15.8194 6.08911 15.8865 6.05319 15.9605C6.01728 16.0344 5.9992 16.1136 6.00003 16.1935C6.00085 16.2733 6.02056 16.3522 6.05799 16.4256C6.09543 16.499 6.14984 16.5654 6.21806 16.6209L7.64663 17.8239C7.78058 17.9367 7.96223 18 8.15163 18C8.34104 18 8.52269 17.9367 8.65663 17.8239L10.7995 16.0194C10.9296 15.9059 11.0016 15.754 11 15.5963C10.9983 15.4386 10.9232 15.2877 10.7908 15.1762C10.6584 15.0647 10.4792 15.0014 10.2919 15C10.1046 14.9987 9.92421 15.0593 9.78949 15.1688Z" fill="#070F21"/>
<path d="M17.3333 16H12.6667C12.4899 16 12.3203 16.0527 12.1953 16.1464C12.0702 16.2402 12 16.3674 12 16.5C12 16.6326 12.0702 16.7598 12.1953 16.8536C12.3203 16.9473 12.4899 17 12.6667 17H17.3333C17.5101 17 17.6797 16.9473 17.8047 16.8536C17.9298 16.7598 18 16.6326 18 16.5C18 16.3674 17.9298 16.2402 17.8047 16.1464C17.6797 16.0527 17.5101 16 17.3333 16Z" fill="#070F21"/>
</svg>
