<svg width="24" height="24" viewBox="0 0 24 24" fill="none" xmlns="http://www.w3.org/2000/svg">
<path d="M5.17493 15.1959H7.79993C8.2832 15.1959 8.67494 14.8042 8.67494 14.3209C8.67494 13.8376 8.2832 13.4459 7.79993 13.4459H5.17493C4.69167 13.4459 4.29993 13.8376 4.29993 14.3209C4.29993 14.8042 4.69167 15.1959 5.17493 15.1959Z" fill="#070F21"/>
<path d="M5.17493 11.6959H7.79993C8.2832 11.6959 8.67494 11.3041 8.67494 10.8209C8.67494 10.3376 8.2832 9.94586 7.79993 9.94586H5.17493C4.69167 9.94586 4.29993 10.3376 4.29993 10.8209C4.29993 11.3041 4.69167 11.6959 5.17493 11.6959Z" fill="#070F21"/>
<path d="M10.313 14.3209C10.313 14.8042 10.7047 15.1959 11.188 15.1959C13.0177 15.1959 14.7378 14.4834 16.0316 13.1897L22.4305 6.79015C23.4563 5.76435 23.4565 4.10381 22.4305 3.07783C21.407 2.05434 19.7417 2.05434 18.7182 3.07783L12.3193 9.47733C11.0255 10.7712 10.313 12.4913 10.313 14.3209ZM19.9557 4.3153C20.2968 3.97414 20.8519 3.97414 21.1931 4.3153C21.535 4.65716 21.5351 5.21073 21.1931 5.55273L14.7941 11.9522C14.0627 12.6837 13.1481 13.1656 12.1537 13.3552C12.3433 12.3609 12.8252 11.4463 13.5567 10.7148L19.9557 4.3153Z" fill="#070F21"/>
<path d="M3.42493 22.1959C4.07138 22.1959 4.69272 21.9587 5.17458 21.5278L6.38414 20.4459H15.325C17.7374 20.4459 19.7 18.4833 19.7 16.0709V14.1081C19.7 13.6249 19.3082 13.2331 18.825 13.2331C18.3417 13.2331 17.95 13.6249 17.95 14.1081V16.0709C17.95 17.5183 16.7724 18.6959 15.325 18.6959H6.04994C5.83469 18.6959 5.627 18.7752 5.46657 18.9187L4.00803 20.2234C3.84751 20.3669 3.64044 20.4459 3.42493 20.4459C2.94246 20.4459 2.54993 20.0534 2.54993 19.5709V9.07087C2.54993 7.62344 3.72751 6.44587 5.17493 6.44587H12.514C12.9972 6.44587 13.389 6.05413 13.389 5.57086C13.389 5.0876 12.9972 4.69586 12.514 4.69586H5.17493C2.76251 4.69586 0.799927 6.65849 0.799927 9.07087V19.5709C0.799927 21.0183 1.9775 22.1959 3.42493 22.1959Z" fill="#070F21"/>
</svg>
