<svg width="24" height="24" viewBox="0 0 24 24" fill="none" xmlns="http://www.w3.org/2000/svg">
<path d="M11.795 21H5C4.46957 21 3.96086 20.7893 3.58579 20.4142C3.21071 20.0391 3 19.5304 3 19V7C3 6.46957 3.21071 5.96086 3.58579 5.58579C3.96086 5.21071 4.46957 5 5 5H17C17.5304 5 18.0391 5.21071 18.4142 5.58579C18.7893 5.96086 19 6.46957 19 7V11" stroke="#070F21" stroke-width="1.5" stroke-linecap="round" stroke-linejoin="round"/>
<path d="M17.9994 22.4362C19.176 22.4362 20.3043 21.9688 21.1363 21.1369C21.9682 20.3049 22.4356 19.1766 22.4356 18C22.4356 16.8235 21.9682 15.6951 21.1363 14.8632C20.3043 14.0312 19.176 13.5638 17.9994 13.5638C16.8229 13.5638 15.6945 14.0312 14.8626 14.8632C14.0306 15.6951 13.5632 16.8235 13.5632 18C13.5632 19.1766 14.0306 20.3049 14.8626 21.1369C15.6945 21.9688 16.8229 22.4362 17.9994 22.4362Z" stroke="#070F21" stroke-width="1.5" stroke-linecap="round" stroke-linejoin="round"/>
<path d="M15 3V7" stroke="#070F21" stroke-width="1.5" stroke-linecap="round" stroke-linejoin="round"/>
<path d="M7 3V7" stroke="#070F21" stroke-width="1.5" stroke-linecap="round" stroke-linejoin="round"/>
<path d="M3 11H19" stroke="#070F21" stroke-width="1.5" stroke-linecap="round" stroke-linejoin="round"/>
<path d="M18.0001 16.3275V17.9955L19.1092 19.1046" stroke="#070F21" stroke-width="1.5" stroke-linecap="round" stroke-linejoin="round"/>
</svg>
