<svg width="22" height="22" viewBox="0 0 22 22" fill="none" xmlns="http://www.w3.org/2000/svg">
<g clip-path="url(#clip0_2_22899)">
<path d="M7.89092 10.1043C7.89092 11.8264 9.2917 13.2272 11.0138 13.2272C12.7358 13.2272 14.1366 11.8264 14.1366 10.1043C14.1366 8.38222 12.7358 6.98143 11.0138 6.98143C9.2917 6.98143 7.89092 8.38222 7.89092 10.1043ZM11.0138 8.61902C11.8338 8.61902 12.499 9.28424 12.499 10.1043C12.499 10.9243 11.8338 11.5896 11.0138 11.5896C10.1937 11.5896 9.52851 10.9243 9.52851 10.1043C9.52851 9.28429 10.1937 8.61902 11.0138 8.61902Z" fill="#070F21" stroke="white" stroke-width="0.6"/>
<path d="M9.11649 13.4542H9.11552H9.11551H9.11551H9.11551H9.11551H9.11551H9.1155H9.1155H9.1155H9.1155H9.1155H9.11549H9.11549H9.11549H9.11549H9.11548H9.11548H9.11548H9.11548H9.11548H9.11547H9.11547H9.11547H9.11547H9.11546H9.11546H9.11546H9.11546H9.11545H9.11545H9.11545H9.11545H9.11544H9.11544H9.11544H9.11543H9.11543H9.11543H9.11543H9.11542H9.11542H9.11542H9.11541H9.11541H9.11541H9.11541H9.11541H9.1154H9.1154H9.1154H9.1154H9.1154H9.11539H9.11539H9.11539H9.11539H9.11538H9.11538H9.11538H9.11538H9.11538H9.11537H9.11537H9.11537H9.11537H9.11536H9.11536H9.11536H9.11536H9.11535H9.11535H9.11535H9.11535H9.11534H9.11534H9.11534H9.11534H9.11533H9.11533H9.11533H9.11532H9.11532H9.11532H9.11532H9.11531H9.11531H9.11531H9.1153H9.1153H9.1153H9.11529H9.11529H9.11529H9.11529H9.11528H9.11528H9.11528H9.11527H9.11527H9.11527H9.11526H9.11526H9.11526H9.11525H9.11525H9.11524H9.11524H9.11524H9.11523H9.11523H9.11523H9.11522H9.11522H9.11522H9.11521H9.11521H9.1152H9.1152H9.1152H9.11519H9.11519H9.11518H9.11518H9.11518H9.11517H9.11517H9.11516H9.11516H9.11515H9.11515H9.11515H9.11514H9.11514H9.11513H9.11513H9.11512H9.11512H9.11511H9.11511H9.1151H9.1151H9.1151H9.11509H9.11509H9.11508H9.11508H9.11507H9.11507H9.11506H9.11506H9.11505H9.11505H9.11504H9.11504H9.11503H9.11502H9.11502H9.11501H9.11501H9.115H9.115H9.11499H9.11499H9.11498H9.11498H9.11497H9.11496H9.11496H9.11495H9.11495H9.11494H9.11494H9.11493H9.11492H9.11492H9.11491H9.1149H9.1149H9.11489H9.11489H9.11488H9.11487H9.11487H9.11486H9.11485H9.11485H9.11484H9.11484H9.11483H9.11482H9.11482H9.11481H9.1148H9.11479H9.11479H9.11478H9.11477H9.11477H9.11476H9.11475H9.11475H9.11474H9.11473H9.11472H9.11472H9.11471H9.1147H9.1147H9.11469H9.11468H9.11467H9.11467H9.11466H9.11465H9.11464H9.11463H9.11463H9.11462H9.11461H9.1146H9.11459H9.11459H9.11458H9.11457H9.11456H9.11455H9.11455H9.11454H9.11453H9.11452H9.11451H9.1145H9.11449H9.11449H9.11448H9.11447H9.11446H9.11445H9.11444H9.11443H9.11442H9.11442H9.11441H9.1144H9.11439H9.11438H9.11437H9.11436H9.11435H9.11434H9.11433H9.11432H9.11431H9.1143H9.11429H9.11428H9.11427H9.11426H9.11425H9.11424H9.11423H9.11422H9.11421H9.1142H9.11419H9.11418H9.11417H9.11416H9.11415H9.11414H9.11413H9.11412H9.11411H9.1141H9.11409H9.11408H9.11407H9.11406H9.11405H9.11403H9.11402H9.11401H9.114H9.11399H9.11398H9.11397H9.11396H9.11394H9.11393H9.11392H9.11391H9.1139H9.11389H9.11387H9.11386H9.11385H9.11384H9.11383H9.11381H9.1138H9.11379H9.11378H9.11377H9.11375H9.11374H9.11373H9.11372H9.1137H9.11369H9.11368H9.11366H9.11365H9.11364H9.11363H9.11361H9.1136H9.11359H9.11357H9.11356H9.11355H9.11353H9.11352H9.11351H9.11349H9.11348H9.11347H9.11345H9.11344H9.11342H9.11341H9.1134H9.11338H9.11337H9.11335H9.11334H9.11333H9.11331H9.1133H9.11328H9.11327H9.11325H9.11324H9.11322H9.11321H9.11319H9.11318H9.11316H9.11315H9.11313H9.11312H9.1131H9.11309H9.11307H9.11306H9.11304H9.11303H9.11301H9.113H9.11298H9.11296H9.11295H9.11293H9.11292H9.1129H9.11288H9.11287H9.11285H9.11284H9.11282H9.1128H9.11279H9.11277H9.11275H9.11274H9.11272H9.1127H9.11269H9.11267H9.11265H9.11263H9.11262H9.1126H9.11258H9.11256H9.11255H9.11253H9.11251H9.11249H9.11248C6.87769 13.4542 5.06188 15.27 5.06188 17.5048V21.0387C5.06188 21.7354 5.62647 22.3 6.32318 22.3H15.6768C16.38 22.3 16.9381 21.7501 16.9381 21.0479V17.5139C16.9381 15.2828 15.126 13.4666 12.8971 13.4664C12.897 13.4664 12.8968 13.4664 12.8966 13.4664L9.11649 13.4542ZM12.8896 15.104L12.8906 14.804V14.9282V15.104H12.8906H12.8906H12.8906H12.8906H12.8906H12.8906H12.8906H12.8906H12.8907H12.8907H12.8907H12.8907H12.8907H12.8907H12.8907H12.8907H12.8907H12.8907H12.8907H12.8907H12.8907H12.8907H12.8907H12.8907H12.8907H12.8907H12.8907H12.8907H12.8907H12.8907H12.8907H12.8908H12.8908H12.8908H12.8908H12.8908H12.8908H12.8908H12.8908H12.8908H12.8908H12.8908H12.8908H12.8908H12.8908H12.8908H12.8908H12.8908H12.8908H12.8909H12.8909H12.8909H12.8909H12.8909H12.8909H12.8909H12.8909H12.8909H12.8909H12.8909H12.8909H12.8909H12.8909H12.8909H12.8909H12.8909H12.8909H12.8909H12.8909H12.8909H12.891H12.891H12.891H12.891H12.891H12.891H12.891H12.891H12.891H12.891H12.891H12.891H12.891H12.891H12.891H12.891H12.891H12.891H12.891H12.891H12.891H12.891H12.891H12.8911H12.8911H12.8911H12.8911H12.8911H12.8911H12.8911H12.8911H12.8911H12.8911H12.8911H12.8911H12.8911H12.8911H12.8911H12.8911H12.8911H12.8911H12.8911H12.8912H12.8912H12.8912H12.8912H12.8912H12.8912H12.8912H12.8912H12.8912H12.8912H12.8912H12.8912H12.8912H12.8912H12.8912H12.8912H12.8912H12.8913H12.8913H12.8913H12.8913H12.8913H12.8913H12.8913H12.8913H12.8913H12.8913H12.8913H12.8913H12.8913H12.8913H12.8913H12.8914H12.8914H12.8914H12.8914H12.8914H12.8914H12.8914H12.8914H12.8914H12.8914H12.8914H12.8914H12.8914H12.8914H12.8915H12.8915H12.8915H12.8915H12.8915H12.8915H12.8915H12.8915H12.8915H12.8915H12.8915H12.8915H12.8916H12.8916H12.8916H12.8916H12.8916H12.8916H12.8916H12.8916H12.8916H12.8916H12.8916H12.8916H12.8917H12.8917H12.8917H12.8917H12.8917H12.8917H12.8917H12.8917H12.8917H12.8917H12.8917H12.8918H12.8918H12.8918H12.8918H12.8918H12.8918H12.8918H12.8918H12.8918H12.8918H12.8918H12.8919H12.8919H12.8919H12.8919H12.8919H12.8919H12.8919H12.8919H12.8919H12.8919H12.892H12.892H12.892H12.892H12.892H12.892H12.892H12.892H12.892H12.8921H12.8921H12.8921H12.8921H12.8921H12.8921H12.8921H12.8921H12.8921H12.8922H12.8922H12.8922H12.8922H12.8922H12.8922H12.8922H12.8922H12.8922H12.8923H12.8923H12.8923H12.8923H12.8923H12.8923H12.8923H12.8923H12.8924H12.8924H12.8924H12.8924H12.8924H12.8924H12.8924H12.8924H12.8925H12.8925H12.8925H12.8925H12.8925H12.8925H12.8925H12.8925H12.8926H12.8926H12.8926H12.8926H12.8926H12.8926H12.8926H12.8926H12.8927H12.8927H12.8927H12.8927H12.8927H12.8927H12.8927H12.8928H12.8928H12.8928H12.8928H12.8928H12.8928H12.8928H12.8929H12.8929H12.8929H12.8929H12.8929H12.8929H12.8929H12.893H12.893H12.893H12.893H12.893H12.893H12.8931H12.8931H12.8931H12.8931H12.8931H12.8931H12.8931H12.8932H12.8932H12.8932H12.8932H12.8932H12.8932H12.8933H12.8933H12.8933H12.8933H12.8933H12.8933H12.8934H12.8934H12.8934H12.8934H12.8934H12.8934H12.8935H12.8935H12.8935H12.8935H12.8935H12.8935H12.8936H12.8936H12.8936H12.8936H12.8936H12.8937C14.2201 15.104 15.3005 16.184 15.3005 17.5139V20.6624H14.75V17.5292C14.75 17.1285 14.4234 16.8019 14.0227 16.8019C13.6221 16.8019 13.2955 17.1285 13.2955 17.5292V20.6624H8.7045V17.5292C8.7045 17.1285 8.3779 16.8019 7.97725 16.8019C7.57661 16.8019 7.25001 17.1285 7.25001 17.5292V20.6624H6.69953V17.5017C6.69953 16.1726 7.78217 15.092 9.11206 15.0917C9.11222 15.0917 9.11238 15.0917 9.11254 15.0917L12.8896 15.104Z" fill="#070F21" stroke="white" stroke-width="0.6"/>
<path d="M6.11571 5.94572C7.83778 5.94572 9.23856 4.54493 9.23856 2.82286C9.23856 1.10079 7.83778 -0.3 6.11571 -0.3C4.39363 -0.3 2.99285 1.10079 2.99285 2.82286C2.99285 4.54493 4.39363 5.94572 6.11571 5.94572ZM6.11571 1.33759C6.93576 1.33759 7.60097 2.00281 7.60097 2.82286C7.60097 3.64291 6.93576 4.30813 6.11571 4.30813C5.29566 4.30813 4.63044 3.64291 4.63044 2.82286C4.63044 2.00281 5.29566 1.33759 6.11571 1.33759Z" fill="#070F21" stroke="white" stroke-width="0.6"/>
<path d="M9.5057 7.16185L9.50632 7.15898C9.60223 6.7178 9.32767 6.28407 8.88628 6.18325L8.88596 6.18318C8.59397 6.11682 8.30609 6.08721 8.01077 6.08721H4.22667C1.99189 6.08721 0.176074 7.90302 0.176074 10.1378V13.6717C0.176074 14.3684 0.740672 14.933 1.43737 14.933H5.40159V14.9331L5.40471 14.933C5.85424 14.9284 6.22039 14.5644 6.22039 14.1113C6.22039 13.6587 5.85415 13.2925 5.40159 13.2925H3.81869V10.1623C3.81869 9.76166 3.4921 9.43506 3.09145 9.43506C2.6908 9.43506 2.36421 9.76166 2.36421 10.1623V13.2955H1.81367V10.1379C1.81367 8.8082 2.89701 7.72486 4.22667 7.72486H8.01083C8.18544 7.72486 8.35203 7.7434 8.52597 7.78121C8.59277 7.79735 8.65692 7.80115 8.70659 7.80115C9.08296 7.80115 9.41932 7.54115 9.5057 7.16185Z" fill="#070F21" stroke="white" stroke-width="0.6"/>
<path d="M15.8996 5.94572C17.6217 5.94572 19.0224 4.54493 19.0224 2.82286C19.0224 1.10079 17.6217 -0.3 15.8996 -0.3C14.1775 -0.3 12.7767 1.10079 12.7767 2.82286C12.7767 4.54493 14.1775 5.94572 15.8996 5.94572ZM15.8996 1.33759C16.7196 1.33759 17.3848 2.00281 17.3848 2.82286C17.3848 3.64291 16.7196 4.30813 15.8996 4.30813C15.0795 4.30813 14.4143 3.64291 14.4143 2.82286C14.4143 2.00281 15.0795 1.33759 15.8996 1.33759Z" fill="#070F21" stroke="white" stroke-width="0.6"/>
<path d="M19.4808 8.43049C19.4808 8.4305 19.4808 8.4305 19.4808 8.4305C19.9377 8.88742 20.1894 9.49179 20.1894 10.1349V13.2925H19.6389V10.1624C19.6389 9.76171 19.3123 9.43511 18.9117 9.43511C18.511 9.43511 18.1844 9.76171 18.1844 10.1624V13.2956H16.6015C16.149 13.2956 15.7827 13.6618 15.7827 14.1144C15.7827 14.5669 16.149 14.9332 16.6015 14.9332H20.5627C21.2594 14.9332 21.824 14.3686 21.824 13.6719V10.1372V10.1349V10.1349C21.8239 9.05392 21.4014 8.03804 20.6379 7.27117L20.6374 7.27071L17.7764 7.42187C18.4996 7.42187 19.1802 7.7057 19.6929 8.21836L19.4808 8.43049ZM19.4808 8.43049C19.0239 7.97365 18.4194 7.72189 17.7765 7.72187M19.4808 8.43049L17.7765 7.72187M17.7765 7.72187C17.7764 7.72187 17.7764 7.72187 17.7764 7.72187L13.9955 7.72491L13.9953 7.72491C13.8211 7.72491 13.6607 7.74335 13.4898 7.78112C13.4228 7.79737 13.3584 7.8012 13.3086 7.8012C12.9323 7.8012 12.596 7.54117 12.5095 7.16197L12.5089 7.15902L12.5089 7.15902C12.4137 6.72095 12.6846 6.28097 13.1301 6.18303C13.4187 6.11682 13.7032 6.08726 13.9952 6.08726L13.995 6.08726L13.9953 6.38726V6.08726L17.7765 7.72187Z" fill="#070F21" stroke="white" stroke-width="0.6"/>
</g>
<defs>
<clipPath id="clip0_2_22899">
<rect width="22" height="22" fill="white"/>
</clipPath>
</defs>
</svg>
