<svg width="24" height="24" viewBox="0 0 24 24" fill="none" xmlns="http://www.w3.org/2000/svg">
<path d="M21.0008 19.2947H7.62692C7.07572 19.2947 6.62897 18.848 6.62897 18.2968C6.62897 17.7456 7.07572 17.2988 7.62692 17.2988H21.0005C21.5517 17.2988 21.9984 17.7456 21.9984 18.2968C21.9984 18.848 21.552 19.2947 21.0008 19.2947Z" fill="#070F21"/>
<path d="M21.0008 13.0307H7.62692C7.07572 13.0307 6.62897 12.5839 6.62897 12.0327C6.62897 11.4815 7.07572 11.0348 7.62692 11.0348H21.0005C21.5517 11.0348 21.9984 11.4815 21.9984 12.0327C21.9987 12.5839 21.552 13.0307 21.0008 13.0307Z" fill="#070F21"/>
<path d="M21.0008 6.76647H7.62692C7.07572 6.76647 6.62897 6.31972 6.62897 5.76852C6.62897 5.21732 7.07572 4.77057 7.62692 4.77057H21.0005C21.5517 4.77057 21.9984 5.21732 21.9984 5.76852C21.9984 6.31972 21.552 6.76647 21.0008 6.76647Z" fill="#070F21"/>
<path d="M3.34028 7.18599C4.08048 7.18599 4.68053 6.58594 4.68053 5.84574C4.68053 5.10554 4.08048 4.50549 3.34028 4.50549C2.60008 4.50549 2.00003 5.10554 2.00003 5.84574C2.00003 6.58594 2.60008 7.18599 3.34028 7.18599Z" fill="#070F21"/>
<path d="M3.34031 13.3729C4.08051 13.3729 4.68056 12.7728 4.68056 12.0326C4.68056 11.2924 4.08051 10.6924 3.34031 10.6924C2.60011 10.6924 2.00006 11.2924 2.00006 12.0326C2.00006 12.7728 2.60011 13.3729 3.34031 13.3729Z" fill="#070F21"/>
<path d="M3.34031 19.5599C4.08051 19.5599 4.68056 18.9598 4.68056 18.2196C4.68056 17.4794 4.08051 16.8794 3.34031 16.8794C2.60011 16.8794 2.00006 17.4794 2.00006 18.2196C2.00006 18.9598 2.60011 19.5599 3.34031 19.5599Z" fill="#070F21"/>
</svg>
