<svg width="24" height="24" viewBox="0 0 24 24" fill="none" xmlns="http://www.w3.org/2000/svg">
<path d="M20.952 9.4647L12.9991 1.51186C12.177 0.689674 10.8391 0.689627 10.0169 1.51186C9.27775 2.25094 9.21409 3.37814 9.7599 4.18303L9.74884 4.23839C9.17547 7.10549 7.77958 9.7138 5.71197 11.7814L2.06421 15.4291C1.24006 16.2533 1.23992 17.5872 2.06421 18.4114L4.05237 20.3995C4.87647 21.2237 6.21044 21.2237 7.03464 20.3995L7.5317 19.9025L11.011 23.3818C11.8352 24.206 13.1691 24.2061 13.9933 23.3818C14.8155 22.5596 14.8155 21.2218 13.9933 20.3996L12.5021 18.9085L12.9992 18.4114C13.8233 17.5873 13.8234 16.2534 12.9992 15.4292L12.6614 15.0913C14.3231 13.9279 16.2102 13.118 18.2255 12.7149L18.2816 12.7037C19.1044 13.2592 20.2289 13.1699 20.952 12.4469H20.952C21.7741 11.6247 21.7741 10.2869 20.952 9.4647ZM6.04057 19.4055C5.76588 19.6801 5.32113 19.6802 5.04644 19.4054L3.05829 17.4173C2.78356 17.1425 2.78356 16.6979 3.05829 16.4232L6.53758 12.9439L9.51986 15.9261C9.17945 16.2665 6.38936 19.0566 6.04057 19.4055ZM12.9991 21.3936C13.2732 21.6676 13.2732 22.1136 12.9991 22.3877C12.7251 22.6617 12.2791 22.6617 12.0051 22.3877L8.52573 18.9084L9.51986 17.9143L12.9991 21.3936ZM10.5139 16.9202C10.7252 16.7089 11.0416 16.3852 11.5408 15.9588L12.0051 16.4232C12.2798 16.6979 12.2798 17.1425 12.0051 17.4173L11.508 17.9143L10.5139 16.9202ZM10.5438 14.962L7.5017 11.9199C9.13197 10.0374 10.2994 7.81532 10.924 5.40126L17.0624 11.5396C14.6483 12.1642 12.4263 13.3316 10.5438 14.962ZM19.9578 11.4528C19.683 11.7274 19.2384 11.7274 18.9637 11.4528L11.0109 3.50001C10.7362 3.22523 10.7362 2.78067 11.0109 2.50594C11.2857 2.2312 11.7303 2.2312 12.0051 2.50594L19.9578 10.4586C20.2318 10.7327 20.2318 11.1786 19.9578 11.4528Z" fill="#070F21"/>
<path d="M7.0346 15.4291C6.76015 15.1546 6.31503 15.1546 6.04053 15.4291L5.04645 16.4232C4.77195 16.6977 4.77195 17.1427 5.04645 17.4172C5.3209 17.6917 5.76607 17.6917 6.04053 17.4172L7.0346 16.4232C7.3091 16.1487 7.3091 15.7036 7.0346 15.4291Z" fill="#070F21"/>
<path d="M16.2276 0C15.8394 0 15.5247 0.314718 15.5247 0.702936V2.10881C15.5247 2.49703 15.8394 2.81174 16.2276 2.81174C16.6158 2.81174 16.9305 2.49703 16.9305 2.10881V0.702936C16.9305 0.314718 16.6158 0 16.2276 0Z" fill="#070F21"/>
<path d="M21.8511 5.62341H20.4452C20.057 5.62341 19.7423 5.93813 19.7423 6.32635C19.7423 6.71457 20.057 7.02928 20.4452 7.02928H21.8511C22.2393 7.02928 22.5541 6.71457 22.5541 6.32635C22.5541 5.93813 22.2393 5.62341 21.8511 5.62341Z" fill="#070F21"/>
<path d="M20.9422 1.6117C20.6678 1.3372 20.2227 1.3372 19.9482 1.6117L18.5423 3.01757C18.2678 3.29207 18.2678 3.73715 18.5423 4.01165C18.8168 4.28615 19.2619 4.28619 19.5364 4.01165L20.9422 2.60577C21.2167 2.33127 21.2167 1.88624 20.9422 1.6117Z" fill="#070F21"/>
</svg>
