<svg width="16" height="16" viewBox="0 0 16 16" fill="none" xmlns="http://www.w3.org/2000/svg">
<path d="M5.44538 12.8C5.02192 12.8 4.7185 12.7061 4.53515 12.5184C4.35616 12.3263 4.26666 12.0229 4.26666 11.6082V4.39183C4.26666 3.96836 4.35834 3.66495 4.54169 3.48159C4.72941 3.29387 5.03064 3.20001 5.44538 3.20001C6.8559 3.20001 8.8063 3.20001 9.63042 3.20001C10.8131 3.20001 11.7908 4.24698 11.7908 5.53025C11.7908 6.49069 11.3106 7.27313 10.3502 7.71843C11.5901 7.94509 12.2854 9.20307 12.2854 10.1134C12.2854 11.2133 11.7229 12.8 9.89582 12.8C9.36258 12.8 6.85467 12.8 5.44538 12.8ZM8.9375 8.53698H6.18666V11.3397H8.9375C9.49333 11.3397 10.2716 10.7959 10.2716 9.9187C10.2716 9.04154 9.49333 8.53698 8.9375 8.53698ZM6.18666 4.66031V7.14217H8.725C9.10833 7.14217 9.89582 6.78336 9.89582 5.8667C9.89582 4.95003 9.04583 4.66031 8.725 4.66031H6.18666Z" fill="#070F21"/>
</svg>
