<svg width="16" height="16" viewBox="0 0 16 16" fill="none" xmlns="http://www.w3.org/2000/svg">
<path fill-rule="evenodd" clip-rule="evenodd" d="M6.0532 3.73391C6.0532 3.46881 6.2681 3.25391 6.5332 3.25391H11.3332C11.5983 3.25391 11.8132 3.46881 11.8132 3.73391C11.8132 3.999 11.5983 4.21391 11.3332 4.21391H9.60619L7.71289 11.7871H9.46652C9.73161 11.7871 9.94652 12.002 9.94652 12.2671C9.94652 12.5322 9.73161 12.7471 9.46652 12.7471H4.66652C4.40142 12.7471 4.18652 12.5322 4.18652 12.2671C4.18652 12.002 4.40142 11.7871 4.66652 11.7871H6.3935L8.2868 4.21391H6.5332C6.2681 4.21391 6.0532 3.999 6.0532 3.73391Z" fill="#070F21"/>
</svg>
