<svg width="24" height="24" viewBox="0 0 24 24" fill="none" xmlns="http://www.w3.org/2000/svg">
<path fill-rule="evenodd" clip-rule="evenodd" d="M11.679 1.44601C8.78099 1.44601 6.42899 3.79876 6.42899 6.69601C6.42899 9.59402 8.78099 11.946 11.679 11.946C14.5762 11.946 16.929 9.59402 16.929 6.69601C16.929 3.79876 14.5762 1.44601 11.679 1.44601ZM11.679 2.94601C13.7482 2.94601 15.429 4.62676 15.429 6.69601C15.429 8.76601 13.7482 10.446 11.679 10.446C9.60899 10.446 7.92899 8.76601 7.92899 6.69601C7.92899 4.62676 9.60899 2.94601 11.679 2.94601Z" fill="#070F21"/>
<path fill-rule="evenodd" clip-rule="evenodd" d="M2.81488 21.5H14.0926C14.5935 21.5 15 21.836 15 22.25C15 22.664 14.5935 23 14.0926 23H1.90744C1.40563 23 1 22.6648 1 22.25C1 22.25 1 21.632 1 20.75C1 17.0225 4.65608 14 9.16697 14H14.0926C14.5935 14 15 14.336 15 14.75C15 15.164 14.5935 15.5 14.0926 15.5H9.16697C5.6588 15.5 2.81488 17.8505 2.81488 20.75V21.5Z" fill="#070F21"/>
<circle cx="19" cy="19" r="3" fill="#070F21"/>
</svg>
