<svg width="24" height="24" viewBox="0 0 24 24" fill="none" xmlns="http://www.w3.org/2000/svg">
<path d="M21.9351 15.658L18.6381 3.38001C18.2801 2.04501 16.6391 1.55301 15.6031 2.47001L13.5251 4.31001C11.212 6.35664 8.45474 7.8373 5.47105 8.63501C4.87732 8.794 4.32072 9.06838 3.83304 9.4425C3.34536 9.81661 2.93615 10.2831 2.62878 10.8154C2.32141 11.3477 2.1219 11.9353 2.04165 12.5447C1.9614 13.1541 2.00197 13.7733 2.16105 14.367C2.48401 15.5664 3.26945 16.5887 4.34512 17.2098C5.4208 17.8309 6.69887 18 7.89905 17.68C10.884 16.8816 14.0137 16.7878 17.0411 17.406L19.7621 17.962C21.1191 18.239 22.2931 16.994 21.9351 15.659V15.658Z" stroke="#070F21" stroke-width="1.5" stroke-linecap="round" stroke-linejoin="round"/>
<path d="M7.71704 8L11.5 22" stroke="#070F21" stroke-width="1.5" stroke-linecap="round" stroke-linejoin="round"/>
</svg>
