<svg width="15" height="15" viewBox="0 0 15 15" fill="none" xmlns="http://www.w3.org/2000/svg">
<path fill-rule="evenodd" clip-rule="evenodd" d="M2.78245 2.21677C2.70744 2.14176 2.60569 2.09961 2.49961 2.09961C2.39352 2.09961 2.29178 2.14176 2.21676 2.21677L0.216767 4.21677C0.060557 4.37298 0.060557 4.62625 0.216767 4.78246C0.372977 4.93867 0.626243 4.93867 0.782452 4.78246L2.09961 3.4653V11.5339L0.782452 10.2168C0.626242 10.0606 0.372976 10.0606 0.216767 10.2168C0.0605569 10.373 0.0605569 10.6262 0.216767 10.7825L2.21676 12.7825C2.29178 12.8575 2.39352 12.8996 2.49961 12.8996C2.60569 12.8996 2.70743 12.8575 2.78245 12.7825L4.78245 10.7825C4.93866 10.6262 4.93866 10.373 4.78245 10.2168C4.62624 10.0606 4.37297 10.0606 4.21676 10.2168L2.89961 11.5339V3.4653L4.21676 4.78246C4.37297 4.93867 4.62624 4.93867 4.78245 4.78246C4.93866 4.62625 4.93866 4.37298 4.78245 4.21677L2.78245 2.21677ZM10.5001 2.74967C10.7108 2.74967 10.8989 2.88181 10.9704 3.08006L13.9704 11.3996C14.0641 11.6594 13.9294 11.9459 13.6697 12.0396C13.4099 12.1333 13.1234 11.9986 13.0297 11.7389L12.0478 9.0157H8.9524L7.97045 11.7389C7.87678 11.9986 7.59025 12.1333 7.33048 12.0396C7.07071 11.9459 6.93607 11.6594 7.02974 11.3996L10.0297 3.08006C10.1012 2.88181 10.2893 2.74967 10.5001 2.74967ZM10.5001 4.72366L11.7413 8.1657H9.25891L10.5001 4.72366Z" fill="#070F21"/>
</svg>
