<svg width="24" height="24" viewBox="0 0 24 24" fill="none" xmlns="http://www.w3.org/2000/svg">
<g clip-path="url(#clip0_2_23256)">
<path d="M23.9033 9.5849L19.6377 2.31633C19.4421 1.98309 19.0143 1.87008 18.6797 2.0633L16.1233 3.53925L13.8205 2.69226C13.1004 2.42737 12.3061 2.49548 11.6416 2.8792L8.14482 4.89806L5.04483 3.10823C4.88002 3.01308 4.68376 2.98884 4.50066 3.04092C4.31766 3.09305 4.16358 3.21708 4.07363 3.38484L0.083584 10.824C-0.0958535 11.1586 0.0227872 11.5754 0.351662 11.7652L1.93496 12.6794L1.14094 14.0546C0.559365 15.0619 0.905725 16.3545 1.91302 16.9361C2.38055 17.206 2.90944 17.2757 3.40027 17.1726C3.55632 17.6492 3.88116 18.0724 4.34869 18.3423C4.81623 18.6122 5.34512 18.682 5.83594 18.5788C5.99199 19.0554 6.31683 19.4787 6.78437 19.7486C7.2519 20.0185 7.78079 20.0882 8.27162 19.9851C8.42771 20.4617 8.75255 20.8849 9.22008 21.1548C10.2274 21.7364 11.52 21.39 12.1015 20.3827L12.1924 20.2254L14.831 21.7488C15.8383 22.3304 17.1309 21.984 17.7125 20.9767C17.8497 20.739 17.9347 20.4853 17.9721 20.2289C18.8693 20.4652 19.8509 20.0855 20.3365 19.2442C20.5038 18.9545 20.5939 18.6412 20.614 18.328C21.3815 18.3683 22.1447 17.9872 22.5547 17.2772C22.9646 16.5672 22.913 15.7157 22.4943 15.0712C22.7555 14.8972 22.9818 14.6625 23.149 14.3728C23.7145 13.3933 23.4025 12.1443 22.4588 11.5413L23.7436 10.4836C24.0106 10.2639 24.0782 9.88294 23.9033 9.5849ZM12.3447 4.09706C12.6467 3.92259 13.0076 3.8917 13.3351 4.01212L15.9469 4.97278C16.1429 5.04483 16.3605 5.02612 16.5412 4.92178L18.7782 3.63023L22.3868 9.77925L21.1604 10.7889L12.7151 5.91295C12.4975 5.78733 12.2295 5.78733 12.012 5.91295L8.12504 8.15705C7.80155 8.35275 7.34677 8.23092 7.16457 7.8997C6.96886 7.57631 7.09074 7.12139 7.42191 6.93923L12.3447 4.09706ZM2.61619 15.7182C2.28043 15.5243 2.16497 15.0935 2.35885 14.7577L3.53072 12.728C3.7246 12.3922 4.15543 12.2768 4.49119 12.4707C4.82696 12.6645 4.94241 13.0954 4.74854 13.4311L3.57666 15.4609C3.38283 15.7966 2.95196 15.9121 2.61619 15.7182ZM5.05187 17.1245C4.7161 16.9306 4.60065 16.4998 4.79452 16.164L6.43515 13.3223C6.62902 12.9865 7.05985 12.8711 7.39561 13.065C7.73138 13.2589 7.84683 13.6897 7.65296 14.0255L6.01233 16.8671C5.81851 17.2029 5.38763 17.3183 5.05187 17.1245ZM7.48754 18.5307C7.15177 18.3368 7.03632 17.906 7.23019 17.5702L8.40207 15.5405C8.59594 15.2047 9.02677 15.0893 9.36254 15.2832C9.6983 15.477 9.81376 15.9079 9.61988 16.2436L8.44801 18.2734C8.25418 18.6091 7.82335 18.7246 7.48754 18.5307ZM9.92326 19.937C9.58749 19.7431 9.47199 19.3123 9.66586 18.9765L10.369 17.7586C10.5629 17.4229 10.9937 17.3074 11.3295 17.5013C11.6653 17.6952 11.7807 18.126 11.5868 18.4618L10.8837 19.6796C10.6899 20.0154 10.2591 20.1309 9.92326 19.937ZM21.3369 16.5741C21.1431 16.9099 20.7122 17.0253 20.3765 16.8315L16.7229 14.7221C16.3867 14.5279 15.9566 14.6431 15.7625 14.9794C15.5683 15.3157 15.6835 15.7457 16.0198 15.9399L18.8614 17.5805C19.1972 17.7744 19.3126 18.2052 19.1188 18.541C18.9249 18.8767 18.4941 18.9922 18.1583 18.7983L15.3167 17.1577C14.9804 16.9635 14.5504 17.0788 14.3562 17.415C14.1621 17.7513 14.2773 18.1814 14.6136 18.3755L16.2374 19.313C16.5731 19.5069 16.6886 19.9377 16.4947 20.2735C16.3008 20.6092 15.87 20.7247 15.5342 20.5308L12.8884 19.0032C13.3474 18.0231 12.9869 16.8343 12.0327 16.2833C11.743 16.1161 11.4297 16.026 11.1165 16.0058C11.1567 15.2383 10.7757 14.4751 10.0657 14.0651C9.77602 13.8979 9.46271 13.8078 9.14954 13.7877C9.1898 13.0201 8.80876 12.2569 8.09874 11.847C7.38872 11.4371 6.53729 11.4887 5.89271 11.9073C5.71871 11.6461 5.48401 11.4199 5.19432 11.2526C4.38357 10.7845 3.38832 10.918 2.72743 11.5129L1.64499 10.8881L4.96997 4.68886L6.73857 5.70998L6.71879 5.72142C6.23087 6.00314 5.88183 6.45801 5.73596 7.00223C5.59018 7.54645 5.66499 8.1149 5.94671 8.60283C6.22843 9.09075 6.6833 9.43978 7.22752 9.58565C7.77174 9.73139 8.34019 9.65662 8.82811 9.3749L12.3635 7.33378L21.6739 12.7092C22.0096 12.9031 22.1251 13.3339 21.9312 13.6697C21.7373 14.0055 21.3065 14.1209 20.9708 13.927L18.1291 12.2864C17.7929 12.0922 17.3628 12.2075 17.1687 12.5437C16.9745 12.88 17.0897 13.3101 17.426 13.5042L21.0796 15.6136C21.4154 15.8075 21.5308 16.2383 21.3369 16.5741Z" fill="#070F21"/>
</g>
<defs>
<clipPath id="clip0_2_23256">
<rect width="24" height="24" fill="white"/>
</clipPath>
</defs>
</svg>
