<svg width="16" height="16" viewBox="0 0 16 16" fill="none" xmlns="http://www.w3.org/2000/svg">
<path fill-rule="evenodd" clip-rule="evenodd" d="M1.60005 5.6C2.04187 5.6 2.40005 5.24182 2.40005 4.8C2.40005 4.35818 2.04187 4 1.60005 4C1.15822 4 0.800049 4.35818 0.800049 4.8C0.800049 5.24182 1.15822 5.6 1.60005 5.6ZM4.26672 4.8C4.26672 4.50545 4.5055 4.26667 4.80005 4.26667H14.4C14.6946 4.26667 14.9334 4.50545 14.9334 4.8C14.9334 5.09455 14.6946 5.33333 14.4 5.33333H4.80005C4.5055 5.33333 4.26672 5.09455 4.26672 4.8ZM4.80005 7.46667C4.5055 7.46667 4.26672 7.70545 4.26672 8C4.26672 8.29455 4.5055 8.53333 4.80005 8.53333H14.4C14.6946 8.53333 14.9334 8.29455 14.9334 8C14.9334 7.70545 14.6946 7.46667 14.4 7.46667H4.80005ZM4.80005 10.6667C4.5055 10.6667 4.26672 10.9055 4.26672 11.2C4.26672 11.4945 4.5055 11.7333 4.80005 11.7333H14.4C14.6946 11.7333 14.9334 11.4945 14.9334 11.2C14.9334 10.9055 14.6946 10.6667 14.4 10.6667H4.80005ZM2.40005 8C2.40005 8.44182 2.04187 8.8 1.60005 8.8C1.15822 8.8 0.800049 8.44182 0.800049 8C0.800049 7.55818 1.15822 7.2 1.60005 7.2C2.04187 7.2 2.40005 7.55818 2.40005 8ZM1.60005 12C2.04187 12 2.40005 11.6418 2.40005 11.2C2.40005 10.7582 2.04187 10.4 1.60005 10.4C1.15822 10.4 0.800049 10.7582 0.800049 11.2C0.800049 11.6418 1.15822 12 1.60005 12Z" fill="#070F21"/>
</svg>
