<svg width="24" height="24" viewBox="0 0 24 24" fill="none" xmlns="http://www.w3.org/2000/svg">
<path d="M8.88889 3.68518H12L14.0741 5.75925H19.2593C19.8093 5.75925 20.3369 5.97777 20.7259 6.36674C21.1148 6.7557 21.3333 7.28325 21.3333 7.83333V15.0926C21.3333 15.6427 21.1148 16.1702 20.7259 16.5592C20.3369 16.9481 19.8093 17.1667 19.2593 17.1667H8.88889C8.33881 17.1667 7.81127 16.9481 7.4223 16.5592C7.03334 16.1702 6.81482 15.6427 6.81482 15.0926V5.75925C6.81482 5.20918 7.03334 4.68163 7.4223 4.29266C7.81127 3.9037 8.33881 3.68518 8.88889 3.68518Z" stroke="#070F21" stroke-width="1.2" stroke-linecap="round" stroke-linejoin="round"/>
<path d="M17.1851 17.1667V19.2407C17.1851 19.7908 16.9666 20.3184 16.5777 20.7073C16.1887 21.0963 15.6612 21.3148 15.1111 21.3148H4.7407C4.19062 21.3148 3.66307 21.0963 3.27411 20.7073C2.88514 20.3184 2.66663 19.7908 2.66663 19.2407V9.90742C2.66663 9.35734 2.88514 8.82979 3.27411 8.44083C3.66307 8.05186 4.19062 7.83334 4.7407 7.83334H6.81477" stroke="#070F21" stroke-width="1.2" stroke-linecap="round" stroke-linejoin="round"/>
</svg>
