<svg width="15" height="15" viewBox="0 0 15 15" fill="none" xmlns="http://www.w3.org/2000/svg">
<path fill-rule="evenodd" clip-rule="evenodd" d="M10.1464 2.14645C9.95118 2.34171 9.95118 2.65829 10.1464 2.85355L11.2929 4H6C3.5147 4 1.5 6.01472 1.5 8.5C1.5 10.9853 3.5147 13 6 13H10C10.2761 13 10.5 12.7761 10.5 12.5C10.5 12.2239 10.2761 12 10 12H6C4.067 12 2.5 10.433 2.5 8.5C2.5 6.567 4.067 5 6 5H11.2929L10.1464 6.14645C9.95118 6.34171 9.95118 6.65829 10.1464 6.85355C10.3417 7.04882 10.6583 7.04882 10.8535 6.85355L12.8535 4.85355C13.0488 4.65829 13.0488 4.34171 12.8535 4.14645L10.8535 2.14645C10.6583 1.95118 10.3417 1.95118 10.1464 2.14645Z" fill="#070F21"/>
</svg>
