<svg width="24" height="24" viewBox="0 0 24 24" fill="none" xmlns="http://www.w3.org/2000/svg">
<path d="M5.45428 19.6821C5.45428 17.2711 8.38455 15.3183 11.9999 15.3183C15.6153 15.3183 18.5456 17.2711 18.5456 19.6821" stroke="#070F21" stroke-width="1.5" stroke-linecap="round" stroke-linejoin="round"/>
<path d="M11.9999 12.0455C13.1572 12.0455 14.2672 11.5857 15.0855 10.7673C15.9039 9.94898 16.3636 8.83904 16.3636 7.6817C16.3636 6.52435 15.9039 5.41441 15.0855 4.59605C14.2672 3.77768 13.1572 3.31793 11.9999 3.31793C10.8425 3.31793 9.73259 3.77768 8.91423 4.59605C8.09586 5.41441 7.63611 6.52435 7.63611 7.6817C7.63611 8.83904 8.09586 9.94898 8.91423 10.7673C9.73259 11.5857 10.8425 12.0455 11.9999 12.0455V12.0455Z" stroke="#070F21" stroke-width="1.5" stroke-linecap="round" stroke-linejoin="round"/>
</svg>
