<svg width="24" height="24" viewBox="0 0 24 24" fill="none" xmlns="http://www.w3.org/2000/svg">
<path d="M22.4051 10.564L19.943 8.10195V1.64453C19.943 1.28858 19.6544 1 19.2984 1H16.5368C16.1809 1 15.8923 1.28858 15.8923 1.64453V4.05151L13.4355 1.59482C13.0519 1.21123 12.542 1 11.9995 1C11.457 1 10.947 1.21123 10.5634 1.59482L1.59389 10.5641C0.802036 11.3558 0.802036 12.6442 1.59389 13.436C1.97749 13.8196 2.48746 14.0308 3.02992 14.0308C3.14358 14.0308 3.25564 14.021 3.3656 14.0028V20.6296C3.3656 21.9367 4.42903 23 5.73615 23H9.92838C10.2843 23 10.5729 22.7114 10.5729 22.3555V17.4771H13.4262V22.3554C13.4262 22.7114 13.7148 23 14.0707 23H18.2629C19.57 23 20.6334 21.9366 20.6334 20.6295V14.0028C20.7433 14.021 20.8553 14.0308 20.969 14.0308C21.5114 14.0308 22.0215 13.8195 22.4052 13.4359C22.7887 13.0524 23 12.5424 23 12C22.9999 11.4575 22.7887 10.9475 22.4051 10.564ZM17.1814 2.28906H18.6539V6.81293L17.1814 5.34048V2.28906ZM18.2629 21.7109H14.7152V16.8325C14.7152 16.4766 14.4266 16.188 14.0707 16.188H9.92833C9.57237 16.188 9.28378 16.4766 9.28378 16.8325V21.7109H5.7361C5.13981 21.7109 4.65467 21.2258 4.65467 20.6295V13.2471L11.9995 5.90277L19.3443 13.2472V20.6296C19.3443 21.2258 18.8592 21.7109 18.2629 21.7109ZM21.4936 12.5244C21.3534 12.6646 21.1671 12.7417 20.969 12.7417C20.771 12.7417 20.5847 12.6646 20.4446 12.5245L12.4553 4.5355C12.2037 4.28375 11.7955 4.28384 11.5438 4.5355L3.5545 12.5243C3.41442 12.6644 3.22801 12.7417 3.02992 12.7417C2.83183 12.7417 2.64555 12.6646 2.50542 12.5245C2.21623 12.2353 2.21623 11.7647 2.50542 11.4755L11.475 2.50631C11.615 2.36623 11.8014 2.28906 11.9995 2.28906C12.1976 2.28906 12.3839 2.36623 12.524 2.50631L16.0811 6.06326L21.4935 11.4755C21.7828 11.7646 21.7828 12.2353 21.4936 12.5244Z" fill="#070F21"/>
</svg>
