<svg width="24" height="24" viewBox="0 0 24 24" fill="none" xmlns="http://www.w3.org/2000/svg">
<g clip-path="url(#clip0_2_22817)">
<path d="M23.7933 4.86569L19.0876 0.159718C18.9552 0.0272948 18.7756 -0.0470581 18.5884 -0.0470581H7.76471C6.59704 -0.0470581 5.64706 0.902918 5.64706 2.07059V11.3806C2.47501 11.7329 0 14.4297 0 17.6941C0 21.1971 2.84993 24.0471 6.35294 24.0471H21.8824C23.05 24.0471 24 23.0971 24 21.9294V5.36485C24 5.1776 23.9256 4.99812 23.7933 4.86569ZM19.2941 2.36297L20.8278 3.89666L21.5899 4.65882H19.2941V2.36297ZM1.41176 17.6941C1.41176 14.9696 3.62838 12.7529 6.35294 12.7529C9.07751 12.7529 11.2941 14.9696 11.2941 17.6941C11.2941 20.4187 9.07751 22.6353 6.35294 22.6353C3.62838 22.6353 1.41176 20.4187 1.41176 17.6941ZM21.8824 22.6353H10.3411C11.61 21.6092 12.4771 20.1055 12.6665 18.4H20C20.3898 18.4 20.7059 18.084 20.7059 17.6941C20.7059 17.3043 20.3898 16.9882 20 16.9882H12.6664C12.5513 15.952 12.1863 14.9902 11.6327 14.1647H20C20.3898 14.1647 20.7059 13.8487 20.7059 13.4588C20.7059 13.069 20.3898 12.7529 20 12.7529H10.3411C9.42249 12.0101 8.29355 11.5177 7.05882 11.3806V2.07059C7.05882 1.68137 7.37548 1.36471 7.76471 1.36471H17.8824V5.36471C17.8824 5.75454 18.1984 6.07059 18.5882 6.07059H22.5882V21.9294C22.5882 22.3186 22.2716 22.6353 21.8824 22.6353Z" fill="#070F21"/>
<path d="M20 8.51764H9.64704C9.25721 8.51764 8.94116 8.83369 8.94116 9.22352C8.94116 9.61336 9.25721 9.9294 9.64704 9.9294H20C20.3898 9.9294 20.7059 9.61336 20.7059 9.22352C20.7059 8.83369 20.3898 8.51764 20 8.51764Z" fill="#070F21"/>
<path d="M9.15796 15.9244C8.88234 15.6488 8.43538 15.6488 8.15971 15.9244L5.36474 18.7194L4.45208 17.8067C4.17646 17.5311 3.72949 17.5311 3.45382 17.8067C3.17815 18.0824 3.17815 18.5293 3.45382 18.805L4.86559 20.2168C5.00342 20.3546 5.18408 20.4235 5.36474 20.4235C5.5454 20.4235 5.72606 20.3546 5.86385 20.2168L9.15796 16.9226C9.43364 16.647 9.43364 16.2001 9.15796 15.9244Z" fill="#070F21"/>
</g>
<defs>
<clipPath id="clip0_2_22817">
<rect width="24" height="24" fill="white"/>
</clipPath>
</defs>
</svg>
