<svg width="24" height="24" viewBox="0 0 24 24" fill="none" xmlns="http://www.w3.org/2000/svg">
<path d="M21.1322 13.8161C21.5729 13.3464 21.8438 12.7153 21.8438 12.0218C21.8438 10.5744 20.6662 9.39679 19.2188 9.39679C17.7713 9.39679 16.5938 10.5744 16.5938 12.0218C16.5938 12.7232 16.8708 13.3607 17.3206 13.8321C16.458 14.3125 15.7926 15.1058 15.479 16.0576C15.1282 15.8108 14.7377 15.6169 14.3191 15.4874C14.7156 14.9847 14.9531 14.351 14.9531 13.6624C14.9531 12.034 13.6283 10.7093 12 10.7093C10.3716 10.7093 9.04683 12.034 9.04683 13.6624C9.04683 14.351 9.28435 14.9847 9.68086 15.4874C9.26222 15.6169 8.87175 15.8108 8.52087 16.0576C8.20732 15.1058 7.54197 14.3125 6.67935 13.8321C7.12918 13.3607 7.40625 12.7232 7.40625 12.0218C7.40625 10.5744 6.22868 9.39679 4.78125 9.39679C3.33383 9.39679 2.15625 10.5744 2.15625 12.0218C2.15625 12.7153 2.42707 13.3464 2.86785 13.8161C1.6369 14.4883 0.800003 15.7951 0.800003 17.2937V20.553C0.800003 20.9155 1.09383 21.2093 1.45625 21.2093H6.75V21.8655C6.75 22.228 7.04383 22.5218 7.40625 22.5218H16.5938C16.9562 22.5218 17.25 22.228 17.25 21.8655V21.2093H22.5438C22.9062 21.2093 23.2 20.9155 23.2 20.553V17.2937C23.2 15.7951 22.3631 14.4883 21.1322 13.8161ZM19.2188 10.7093C19.9425 10.7093 20.5313 11.2981 20.5313 12.0218C20.5313 12.7455 19.9425 13.3343 19.2188 13.3343C18.495 13.3343 17.9063 12.7455 17.9063 12.0218C17.9063 11.2981 18.495 10.7093 19.2188 10.7093ZM12 12.0218C12.9047 12.0218 13.6406 12.7578 13.6406 13.6624C13.6406 14.5671 12.9047 15.303 12 15.303C11.0953 15.303 10.3594 14.5671 10.3594 13.6624C10.3594 12.7578 11.0953 12.0218 12 12.0218ZM4.78125 10.7093C5.50497 10.7093 6.09375 11.2981 6.09375 12.0218C6.09375 12.7455 5.50497 13.3343 4.78125 13.3343C4.05754 13.3343 3.46875 12.7455 3.46875 12.0218C3.46875 11.2981 4.05754 10.7093 4.78125 10.7093ZM2.1125 19.8968V17.2937C2.1125 15.8342 3.29988 14.6468 4.75938 14.6468C6.19508 14.6468 7.36662 15.796 7.40446 17.2227C6.99032 17.8688 6.75 18.6365 6.75 19.4593V19.8968H2.1125ZM15.9375 21.2093H8.0625V19.4593C8.0625 17.8912 9.33821 16.6155 10.9063 16.6155H13.0938C14.6618 16.6155 15.9375 17.8912 15.9375 19.4593V21.2093ZM21.8875 19.8968H17.25V19.4593C17.25 18.6365 17.0097 17.8688 16.5955 17.2227C16.6334 15.796 17.8049 14.6468 19.2406 14.6468C20.7001 14.6468 21.8875 15.8342 21.8875 17.2937V19.8968Z" fill="#070F21"/>
<path d="M9.92004 7.29652C10.7777 8.06932 11.6265 8.58176 11.6622 8.6032C11.8701 8.72793 12.1298 8.72797 12.3377 8.6032C12.3734 8.58176 13.2223 8.06927 14.0799 7.29652C15.3125 6.18579 15.9375 5.10915 15.9375 4.09642C15.9375 1.79981 13.5858 0.721679 12 2.06769C10.414 0.721504 8.0625 1.80003 8.0625 4.09642C8.0625 5.10915 8.68747 6.18579 9.92004 7.29652ZM10.456 2.7897C10.8279 2.7897 11.1863 3.00959 11.4517 3.41309C11.711 3.80724 12.2895 3.80636 12.5482 3.41309C12.8799 2.909 13.3566 2.69157 13.8234 2.83126C14.2109 2.94729 14.625 3.34055 14.625 4.09642C14.625 5.24175 12.9321 6.62688 11.9996 7.26042C11.0667 6.62806 9.375 5.24552 9.375 4.09642C9.375 3.22882 9.93137 2.7897 10.456 2.7897Z" fill="#070F21"/>
</svg>
