<svg width="18" height="18" viewBox="0 0 18 18" fill="none" xmlns="http://www.w3.org/2000/svg">
<path d="M15.714 7.09851L9.74937 1.13388C9.13277 0.51724 8.12934 0.517205 7.51267 1.13388C6.95833 1.68819 6.91058 2.53359 7.31994 3.13725L7.31164 3.17877C6.88161 5.3291 5.8347 7.28533 4.28399 8.836L1.54818 11.5718C0.930059 12.19 0.929954 13.1904 1.54818 13.8085L3.03929 15.2996C3.65737 15.9178 4.65785 15.9178 5.276 15.2996L5.64879 14.9268L8.2583 17.5363C8.87641 18.1545 9.87682 18.1545 10.495 17.5363C11.1116 16.9197 11.1116 15.9163 10.495 15.2997L9.37661 14.1813L9.74941 13.8085C10.3675 13.1904 10.3676 12.19 9.74941 11.5719L9.49607 11.3185C10.7423 10.4459 12.1577 9.83848 13.6691 9.53617L13.7112 9.52777C14.3283 9.9444 15.1717 9.87743 15.714 9.33515H15.714C16.3306 8.71854 16.3306 7.71519 15.714 7.09851ZM4.53044 14.5541C4.32442 14.7601 3.99086 14.7601 3.78485 14.554L2.29373 13.0629C2.08768 12.8568 2.08768 12.5234 2.29373 12.3174L4.9032 9.70787L7.13991 11.9446C6.8846 12.1999 4.79204 14.2925 4.53044 14.5541ZM9.74937 16.0452C9.9549 16.2507 9.9549 16.5852 9.74937 16.7908C9.54385 16.9963 9.20934 16.9963 9.00382 16.7908L6.39431 14.1813L7.13991 13.4357L9.74937 16.0452ZM7.88546 12.6901C8.04395 12.5317 8.28118 12.2889 8.6556 11.9691L9.00382 12.3174C9.20987 12.5234 9.20987 12.8568 9.00382 13.0629L8.63102 13.4357L7.88546 12.6901ZM7.90786 11.2215L5.62629 8.93989C6.84899 7.52805 7.72459 5.86147 8.19305 4.05093L12.7968 8.6547C10.9863 9.12312 9.31973 9.99872 7.90786 11.2215ZM14.9683 8.58956C14.7623 8.79557 14.4288 8.79557 14.2228 8.58956L8.25822 2.62499C8.05217 2.41891 8.05217 2.08549 8.25822 1.87944C8.46428 1.67339 8.79777 1.67339 9.00382 1.87944L14.9683 7.84396C15.1739 8.04952 15.1739 8.38396 14.9683 8.58956Z" fill="white"/>
<path d="M5.27596 11.5719C5.07012 11.366 4.73628 11.366 4.5304 11.5719L3.78485 12.3174C3.57897 12.5233 3.57897 12.8571 3.78485 13.063C3.99069 13.2689 4.32456 13.2689 4.5304 13.063L5.27596 12.3174C5.48184 12.1116 5.48184 11.7778 5.27596 11.5719Z" fill="white"/>
<path d="M12.1707 0C11.8796 0 11.6435 0.236039 11.6435 0.527202V1.58161C11.6435 1.87277 11.8796 2.10881 12.1707 2.10881C12.4619 2.10881 12.6979 1.87277 12.6979 1.58161V0.527202C12.6979 0.236039 12.4619 0 12.1707 0Z" fill="white"/>
<path d="M16.3883 4.21753H15.3339C15.0427 4.21753 14.8067 4.45357 14.8067 4.74473C14.8067 5.03589 15.0427 5.27193 15.3339 5.27193H16.3883C16.6795 5.27193 16.9155 5.03589 16.9155 4.74473C16.9155 4.45357 16.6794 4.21753 16.3883 4.21753Z" fill="white"/>
<path d="M15.7067 1.20885C15.5009 1.00297 15.167 1.00297 14.9611 1.20885L13.9067 2.26325C13.7009 2.46913 13.7009 2.80294 13.9067 3.00881C14.1126 3.21469 14.4464 3.21472 14.6523 3.00881L15.7067 1.95441C15.9126 1.74853 15.9126 1.41476 15.7067 1.20885Z" fill="white"/>
</svg>
